<?xml version="1.0" encoding="UTF-8" standalone="no"?><!DOCTYPE svg PUBLIC "-//W3C//DTD SVG 1.1//EN" "http://www.w3.org/Graphics/SVG/1.1/DTD/svg11.dtd"><svg width="100%" height="100%" viewBox="0 0 4267 2500" version="1.1" xmlns="http://www.w3.org/2000/svg" xmlns:xlink="http://www.w3.org/1999/xlink" xml:space="preserve" xmlns:serif="http://www.serif.com/" style="fill-rule:evenodd;clip-rule:evenodd;stroke-linejoin:round;stroke-miterlimit:2;"><g opacity="0.98"><path d="M2426.14,402.738l-679.809,137.936l459.831,274.023l-542.502,934.318l880.91,-668.914l783.397,551.409l-104.456,-356.087c5.772,-48.767 33.068,-89 76.638,-113.888c79.503,-45.405 180.965,-39.141 269.06,-29.261c75.814,8.492 151.02,24.342 228.527,25.267c109.75,1.303 219.761,-15.597 323.696,-49.735c140.692,-46.245 246.406,-131.966 364.923,-214.913c-4.774,3.321 -215.422,146.807 -600.307,59.782c-126.979,-28.672 -258.037,-62.22 -388.313,-73.025c-159.961,-13.327 -319.27,17.91 -398.599,165.347c-23.391,43.47 -37.668,91.397 -44.916,139.828c-0.954,6.433 -11.586,58.731 -4.86,63.146c-0.304,-0.21 -490.122,-324.136 -490.122,-324.136l-536.34,437.814l322.654,-610.854l-315.32,-191.791l461.915,-78.154l263.938,-497.176l106.582,423.899l595.143,-113.973c-0,-0 -337.106,270.197 -312.196,257.164c24.953,-13.033 329.815,-260.612 774.718,-169.341c188.254,38.594 382.368,71.848 575.266,51.122c176.494,-19.003 348.345,-90.977 497.153,-182.878c125.199,-77.313 234.211,-171.779 351.513,-258.888c-236.556,175.731 -437.092,193.388 -437.092,193.388c-369.306,56.923 -314.279,26.906 -754.321,-39.687c-439.999,-66.592 -701.073,42.462 -701.073,42.462l-493.811,128.267l-179.88,-565.913l-351.947,653.442Zm2060.22,490.155c0.043,-0.042 0.086,-0.042 0.086,-0.042c-0.043,0 -0.043,0.042 -0.086,0.042Z" style="fill:#fff;fill-rule:nonzero;"/><path d="M5012.07,393.195c-67.655,46.076 -141.3,83.493 -218.459,112.039c-248.663,92.49 -532.13,80.088 -792.076,49.692c-316.275,-36.996 -740.825,-117.336 -960.716,173.545c-10.502,13.831 -55.461,66.341 -50.34,86.226c0.043,0.126 44.047,170.476 44.047,170.476c-3.905,-15.093 57.154,-69.073 68.394,-79.836c168.639,-161.395 432.1,-195.196 656.765,-157.695c280.516,46.875 557.257,65.92 825.405,-46.456c134.4,-56.334 259.512,-136.717 366.659,-231.729c28.164,-24.973 55.2,-51.122 80.457,-78.953l25.908,-30.354c-15.059,11.351 -30.421,22.408 -46.044,33.045Zm-1616.14,256.113l-47.736,-22.114l57.283,-10.594l15.406,-52.972l19.963,46.414l57.327,-10.595l-44.959,39.267l19.919,46.413l-47.693,-22.114l-44.916,39.309l15.406,-53.014Zm436.527,-83.367l20.05,57.175l62.664,7.988l-50.296,27.411l20.092,57.26l-51.121,-40.318l-50.253,27.411l18.66,-52.299l-51.078,-40.317l62.622,7.946l18.66,-52.257Zm362.146,43.26l19.875,48.641l50.427,4.499l-38.102,25.518l19.876,48.684l-43.44,-32.834l-38.146,25.477l11.283,-45.825l-43.483,-32.792l50.427,4.499l11.283,-45.867Z" style="fill:#fff;fill-rule:nonzero;"/><path d="M1717.86,596.576l307.596,263.344l-402.938,842.585l469.682,-848.26l8.462,-13.621l-382.802,-244.048Z" style="fill:#fff;fill-rule:nonzero;"/><path d="M2540.47,1181.33l694.478,467.158l-760.918,-416.709l66.44,-50.449Z" style="fill:#fff;fill-rule:nonzero;"/><path d="M2291.59,379.292l398.512,-606.357l-311.979,588.868l-86.533,17.489Z" style="fill:#fff;fill-rule:nonzero;"/><path d="M1676.59,693.68l207.609,204.949l-197.802,447.189l231.131,-446.895l5.859,-9.501l-246.797,-195.742Z" style="fill:#fff;fill-rule:nonzero;"/><path d="M2394.54,1274.9l531.392,307.067l-563.81,-283.777l32.418,-23.29Z" style="fill:#fff;fill-rule:nonzero;"/><path d="M2164.17,405.859l366.138,-533.626l-328.557,526.143l-37.581,7.483Z" style="fill:#fff;fill-rule:nonzero;"/></g><g><path d="M1107.62,147.785l69.571,924.878c-0.023,9.415 -5.357,14.519 -16.002,15.311l-128.34,4.597c-8.596,-0.021 -12.885,-3.92 -12.866,-11.697l-8.713,-202.647l-139.394,5.184l-46.515,189.003c-1.242,5.728 -2.889,9.612 -4.941,11.654c-2.051,2.042 -5.738,3.261 -11.061,3.657l-127.111,3.986c-8.187,-0.02 -12.271,-3.919 -12.251,-11.696l271.83,-928.339c2.887,-8.998 8.425,-13.692 16.613,-14.081l135.094,-4.581c8.596,0.43 13.291,5.354 14.086,14.771Zm-116.668,252.688l-86.827,352.232l101.935,-3.434l-15.108,-348.798Z" style="fill:#375d99;fill-rule:nonzero;"/><path d="M1768.58,283.262l-103.129,-10.691c-37.25,-0.092 -66.13,8.843 -86.641,26.804c-21.745,20.004 -37.804,58.545 -48.177,115.623c-10.374,57.078 -20.384,132.987 -30.032,227.727c-9.647,94.739 -14.522,163.087 -14.625,205.045c-0.103,41.957 6.578,71.651 20.044,89.081c13.465,17.43 29.511,26.168 48.136,26.214c18.625,0.046 33.669,-0.122 45.131,-0.503l41.379,-348.046c1.659,-9.001 6.993,-13.9 16,-14.697l115.445,-4.015c11.051,0.437 16.565,5.362 16.542,14.777l-52.706,460.383c-1.66,9.001 -7.198,14.104 -16.616,15.309c-54.463,8.054 -120.786,11.984 -198.97,11.792c-93.739,-0.229 -153.802,-45.609 -180.187,-136.139c-7.307,-24.988 -10.93,-49.762 -10.87,-74.323c0.06,-24.56 0.95,-53.621 2.67,-87.183c5.207,-120.334 19.841,-245.148 43.9,-374.442c16.185,-90.016 35.989,-153.211 59.41,-189.585c24.654,-38.008 54.192,-64.543 88.614,-79.605c43.027,-18.724 89.101,-28.026 138.222,-27.905c49.121,0.12 81.865,1.531 98.232,4.232c16.367,2.701 25.574,4.258 27.619,4.673c4.908,1.649 7.352,6.772 7.331,15.368l-13.789,114.173c-1.663,10.639 -5.974,15.95 -12.933,15.933Z" style="fill:#375d99;fill-rule:nonzero;"/><path d="M2293.22,673.221l-190.975,6.899l-29.476,251.674l235.186,-7.405c10.642,0.436 15.95,5.77 15.925,16.004l-16.276,127.061c-0.84,8.594 -6.175,13.902 -16.004,15.925l-377.647,11.354c-9.006,-0.022 -13.499,-3.922 -13.48,-11.699l108.503,-928.74c1.659,-8.592 6.992,-13.286 15.999,-14.083l336.507,-10.841c10.231,1.254 15.334,6.792 15.31,16.616l-15.662,127.063c-1.253,10.231 -6.588,15.744 -16.005,16.539l-197.725,5.041l-26.963,228.348l189.132,-6.29c10.642,0.435 15.95,5.77 15.925,16.003l-16.272,125.22c-1.66,9.41 -6.994,14.514 -16.002,15.311Z" style="fill:#375d99;fill-rule:nonzero;"/><path d="M3044.22,150.694l-107.878,924.443c-1.661,9.41 -6.995,14.514 -16.002,15.311l-121.591,6.456c-6.959,-0.018 -11.043,-3.916 -12.252,-11.697l-127.333,-656.081l-47.027,647.671c-0.433,9.823 -5.767,14.927 -16.001,15.311l-126.497,3.988c-9.006,-0.022 -13.499,-3.922 -13.48,-11.699l108.503,-928.74c1.658,-8.592 6.991,-13.286 15.999,-14.083l124.661,-6.448c5.731,0.014 9.514,1.149 11.351,3.405c1.836,2.256 3.362,6.046 4.577,11.37l123.125,619.844l44.485,-613.292c0.432,-9.005 5.969,-13.699 16.613,-14.082l122.205,-6.454c11.052,0.027 16.566,4.953 16.542,14.777Z" style="fill:#375d99;fill-rule:nonzero;"/><path d="M3230.86,157.292c0.831,-4.91 2.272,-8.386 4.324,-10.428c2.051,-2.042 22.73,-4.856 62.036,-8.444c39.306,-3.588 93.241,-5.297 161.805,-5.129c68.565,0.168 121.219,20.048 157.963,59.64c36.744,39.592 55.032,93.772 54.863,162.542c-0.319,129.761 -15.217,279.135 -44.695,448.121c-15.775,89.608 -41.113,156.269 -76.014,199.983c-32.027,40.037 -82.032,66.317 -150.013,78.84c-30.714,5.246 -68.177,8.634 -112.39,10.162l-152.903,5.151c-9.004,-0.431 -13.497,-4.331 -13.479,-11.699l108.503,-928.739Zm140.318,118.849l-76.55,668.475c61.005,-5.172 103.299,-16.939 126.881,-35.301c23.582,-18.363 40.144,-53.321 49.685,-104.875c9.542,-51.554 19.027,-121.938 28.456,-211.152c9.429,-89.214 14.213,-162.27 14.353,-219.168c0.082,-33.566 -8.043,-58.556 -24.377,-74.97c-16.333,-16.414 -38.52,-24.655 -66.56,-24.724c-28.04,-0.068 -45.336,0.503 -51.888,1.715Z" style="fill:#375d99;fill-rule:nonzero;"/><path d="M4159.87,155.273l69.571,924.878c-0.023,9.415 -5.357,14.518 -16.002,15.311l-128.34,4.597c-8.597,-0.021 -12.885,-3.92 -12.866,-11.698l-8.713,-202.646l-139.394,5.184l-46.515,189.003c-1.242,5.727 -2.889,9.612 -4.941,11.654c-2.052,2.042 -5.739,3.261 -11.061,3.657l-127.111,3.986c-8.187,-0.02 -12.271,-3.919 -12.252,-11.696l271.831,-928.339c2.887,-8.998 8.425,-13.692 16.612,-14.081l135.095,-4.581c8.595,0.43 13.291,5.354 14.086,14.771Zm-116.669,252.688l-86.826,352.232l101.935,-3.434l-15.109,-348.798Z" style="fill:#375d99;fill-rule:nonzero;"/></g></svg>