<?xml version="1.0" encoding="UTF-8" standalone="no"?><!DOCTYPE svg PUBLIC "-//W3C//DTD SVG 1.1//EN" "http://www.w3.org/Graphics/SVG/1.1/DTD/svg11.dtd"><svg width="100%" height="100%" viewBox="0 0 20834 10417" version="1.1" xmlns="http://www.w3.org/2000/svg" xmlns:xlink="http://www.w3.org/1999/xlink" xml:space="preserve" xmlns:serif="http://www.serif.com/" style="fill-rule:evenodd;clip-rule:evenodd;stroke-linejoin:round;stroke-miterlimit:2;"><g><path d="M4284.21,7768.54l-39.945,30.625c-22.017,-28.659 -48.476,-50.4 -79.338,-65.184c-30.863,-14.82 -64.75,-22.254 -101.708,-22.254c-40.413,0 -77.8,9.713 -112.242,29.133c-34.442,19.384 -61.096,45.45 -80.046,78.121c-18.908,32.709 -28.383,69.509 -28.383,110.317c-0,61.763 21.15,113.267 63.491,154.583c42.342,41.284 95.771,61.963 160.246,61.963c70.925,-0 130.25,-27.758 177.979,-83.308l39.946,30.27c-25.241,32.159 -56.77,57.009 -94.512,74.58c-37.742,17.537 -79.888,26.304 -126.479,26.304c-88.613,-0 -158.475,-29.446 -209.663,-88.5c-42.896,-49.734 -64.358,-109.884 -64.358,-180.375c-0,-74.109 25.987,-136.463 77.958,-187.059c51.975,-50.6 117.079,-75.916 195.358,-75.916c47.296,-0 89.992,9.316 128.046,28.071c38.096,18.675 69.313,44.895 93.65,78.629" style="fill:#403f41;fill-rule:nonzero;"/><path d="M4554.96,7843.96c-40.062,0 -74.504,14.825 -103.283,44.43c-28.817,29.604 -43.204,65.379 -43.204,107.366c-0,27.129 6.562,52.329 19.696,75.758c13.129,23.396 30.862,41.517 53.191,54.217c22.371,12.738 46.863,19.109 73.6,19.109c26.692,-0.001 51.225,-6.371 73.596,-19.109c22.329,-12.7 40.063,-30.821 53.192,-54.216c13.133,-23.43 19.696,-48.63 19.696,-75.759c-0,-41.987 -14.467,-77.762 -43.363,-107.366c-28.896,-29.605 -63.296,-44.43 -103.121,-44.43m0.155,-47.175c57.716,0 105.52,20.913 143.462,62.667c34.517,38.096 51.738,83.192 51.738,135.283c-0,52.325 -18.205,98.05 -54.65,137.209c-36.442,39.116 -83.305,58.658 -140.55,58.658c-57.475,0 -104.417,-19.542 -140.863,-58.658c-36.446,-39.159 -54.65,-84.884 -54.65,-137.209c0,-51.816 17.221,-96.833 51.742,-134.929c37.896,-41.987 85.862,-63.021 143.771,-63.021" style="fill:#403f41;fill-rule:nonzero;"/><rect x="4832.29" y="7661.83" width="48.2" height="519.112" style="fill:#403f41;"/><path d="M5295.96,7955.83c-6.446,-25.671 -15.804,-46.233 -28.108,-61.604c-12.304,-15.375 -28.542,-27.758 -48.75,-37.191c-20.208,-9.4 -41.479,-14.117 -63.771,-14.117c-36.758,-0 -68.367,11.833 -94.787,35.462c-19.305,17.221 -33.888,43.013 -43.759,77.45l279.175,0Zm0,100.884l40.613,21.308c-13.325,26.183 -28.7,47.333 -46.154,63.375c-17.459,16.079 -37.113,28.267 -58.934,36.679c-21.82,8.338 -46.508,12.542 -74.07,12.542c-61.134,-0 -108.9,-20.008 -143.342,-60.071c-34.438,-40.062 -51.696,-85.312 -51.696,-135.833c0,-47.492 14.583,-89.834 43.796,-127.025c36.954,-47.259 86.454,-70.888 148.491,-70.888c63.846,0 114.838,24.221 152.934,72.617c27.129,34.242 40.929,76.937 41.358,128.046l-337.004,-0c0.904,43.562 14.821,79.183 41.712,107.016c26.892,27.796 60.113,41.713 99.625,41.713c19.025,-0 37.584,-3.3 55.667,-9.946c18.008,-6.604 33.342,-15.412 46,-26.379c12.621,-10.971 26.3,-28.7 41.004,-53.154" style="fill:#403f41;fill-rule:nonzero;"/><path d="M5802.33,7884.21l-38.212,23.746c-32.988,-43.796 -78.042,-65.733 -135.125,-65.733c-45.646,-0 -83.504,14.704 -113.621,43.992c-30.154,29.37 -45.25,65.029 -45.25,106.979c0,27.241 6.958,52.954 20.796,77.016c13.879,24.021 32.908,42.734 57.083,56.063c24.221,13.287 51.309,19.891 81.304,19.891c55.042,0 99.979,-21.858 134.813,-65.733l38.212,25.121c-17.887,26.971 -41.95,47.925 -72.104,62.746c-30.192,14.862 -64.554,22.291 -103.121,22.291c-59.208,0 -108.312,-18.791 -147.312,-56.454c-39.042,-37.625 -58.542,-83.425 -58.542,-137.366c0,-36.246 9.121,-69.9 27.363,-101c18.241,-31.138 43.325,-55.396 75.212,-72.85c31.921,-17.375 67.621,-26.146 107.054,-26.146c24.804,-0 48.709,3.775 71.788,11.362c23.079,7.588 42.658,17.459 58.696,29.604c16.041,12.188 29.725,27.68 40.966,46.471" style="fill:#403f41;fill-rule:nonzero;"/><path d="M5936.96,7667.33l48.2,0l0,139.055l76.425,-0.001l0,41.676l-76.425,-0.001l0,332.88l-48.2,-0l0,-332.88l-65.737,0.001l-0,-41.676l65.737,0.001l0,-139.055Z" style="fill:#403f41;fill-rule:nonzero;"/><path d="M6126.62,7806.42l48.2,-0l0,374.55l-48.2,-0l0,-374.55Zm23.904,-154.234c10.929,0 20.325,3.934 28.109,11.717c7.787,7.825 11.637,17.179 11.637,28.229c0,10.813 -3.85,20.088 -11.637,27.875c-7.784,7.821 -17.18,11.713 -28.109,11.713c-10.733,-0 -19.971,-3.892 -27.754,-11.713c-7.787,-7.787 -11.637,-17.062 -11.637,-27.875c-0,-11.05 3.85,-20.404 11.637,-28.229c7.783,-7.783 17.021,-11.717 27.754,-11.717" style="fill:#403f41;fill-rule:nonzero;"/><path d="M6239.54,7806.42l51.308,-0l125.688,273.041l124.237,-273.041l51.617,-0l-171.45,374.554l-8.925,-0l-172.475,-374.554Z" style="fill:#403f41;fill-rule:nonzero;"/><path d="M6842.79,7843.96c-40.063,0 -74.5,14.825 -103.28,44.43c-28.816,29.604 -43.166,65.379 -43.166,107.366c-0,27.129 6.525,52.329 19.658,75.758c13.129,23.396 30.9,41.517 53.229,54.217c22.334,12.738 46.867,19.109 73.559,19.109c26.695,-0.001 51.229,-6.371 73.637,-19.109c22.292,-12.7 40.021,-30.821 53.154,-54.216c13.13,-23.43 19.696,-48.63 19.696,-75.759c0,-41.987 -14.429,-77.762 -43.362,-107.366c-28.896,-29.605 -63.3,-44.43 -103.125,-44.43m0.196,-47.175c57.675,0 105.483,20.913 143.462,62.667c34.479,38.096 51.738,83.192 51.738,135.283c-0,52.325 -18.242,98.05 -54.688,137.209c-36.446,39.116 -83.267,58.658 -140.512,58.658c-57.475,0 -104.459,-19.542 -140.905,-58.658c-36.441,-39.159 -54.608,-84.884 -54.608,-137.209c0,-51.816 17.183,-96.833 51.7,-134.929c37.938,-41.987 85.863,-63.021 143.813,-63.021" style="fill:#403f41;fill-rule:nonzero;"/><path d="M7503.75,7843.25c-26.812,0 -51.579,6.604 -74.267,19.775c-22.72,13.171 -40.766,31.729 -54.133,55.554c-13.446,23.825 -20.133,49.025 -20.133,75.642c-0,26.379 6.762,51.579 20.287,75.642c13.525,24.058 31.729,42.854 54.492,56.22c22.804,13.405 47.296,20.088 73.4,20.088c26.379,-0 51.346,-6.604 75.012,-19.892c23.588,-13.329 41.754,-31.333 54.492,-54.021c12.7,-22.645 19.067,-48.237 19.067,-76.662c-0,-43.325 -14.271,-79.575 -42.813,-108.667c-28.542,-29.133 -63.65,-43.679 -105.404,-43.679m192.642,-181.396l-0,519.113l-47.53,-0l0,-64.4c-20.208,24.612 -42.854,43.05 -68.016,55.433c-25.121,12.388 -52.604,18.596 -82.404,18.596c-53.034,-0 -98.325,-19.225 -135.834,-57.633c-37.504,-38.45 -56.258,-85.234 -56.258,-140.317c-0,-53.9 18.95,-100.017 56.808,-138.388c37.863,-38.291 83.388,-57.479 136.659,-57.479c30.745,0 58.579,6.529 83.466,19.621c24.925,13.092 46.746,32.708 65.579,58.854l0,-213.4l47.53,0Z" style="fill:#403f41;fill-rule:nonzero;"/><path d="M8120.83,7955.83c-6.45,-25.671 -15.804,-46.233 -28.112,-61.604c-12.304,-15.375 -28.542,-27.758 -48.75,-37.191c-20.208,-9.4 -41.517,-14.117 -63.767,-14.117c-36.762,-0 -68.371,11.833 -94.792,35.462c-19.341,17.221 -33.887,43.013 -43.754,77.45l279.175,0Zm0,100.884l40.613,21.308c-13.329,26.183 -28.7,47.333 -46.158,63.375c-17.455,16.079 -37.113,28.267 -58.934,36.679c-21.816,8.338 -46.508,12.542 -74.108,12.542c-61.096,-0 -108.863,-20.008 -143.3,-60.071c-34.479,-40.062 -51.7,-85.312 -51.7,-135.833c-0,-47.492 14.583,-89.834 43.796,-127.025c36.916,-47.259 86.454,-70.888 148.454,-70.888c63.887,0 114.875,24.221 152.975,72.617c27.125,34.242 40.887,76.937 41.358,128.046l-337.008,-0c0.904,43.562 14.821,79.183 41.712,107.016c26.854,27.796 60.113,41.713 99.588,41.713c19.066,-0 37.621,-3.3 55.666,-9.946c18.046,-6.604 33.38,-15.412 46.038,-26.379c12.621,-10.971 26.304,-28.7 41.008,-53.154" style="fill:#403f41;fill-rule:nonzero;"/><path d="M8667.29,7782.17l-86.809,183.287l173.184,0l-86.375,-183.287Zm6.408,-107.604l236.125,506.374l-54.687,0.001l-79.613,-166.617l-218.158,-0l-78.867,166.617l-56.454,-0.001l239.229,-506.374l12.425,-0Z" style="fill:#403f41;fill-rule:nonzero;"/><path d="M8962.17,7806.42l49.221,-0l-0,54.725c14.662,-21.542 30.154,-37.663 46.47,-48.317c16.275,-10.692 33.259,-16.042 50.95,-16.042c13.288,0 27.559,4.288 42.696,12.742l-25.121,40.608c-10.145,-4.32 -18.596,-6.525 -25.475,-6.525c-16.083,0 -31.57,6.567 -46.47,19.817c-14.98,13.171 -26.342,33.692 -34.088,61.408c-6.013,21.35 -8.962,64.517 -8.962,129.425l-0.001,126.713l-49.22,-0l-0,-374.554Z" style="fill:#403f41;fill-rule:nonzero;"/><path d="M9234.46,7667.33l48.2,0l0,139.055l76.43,-0.001l-0.001,41.676l-76.429,-0.001l0,332.88l-48.2,-0l0,-332.88l-65.733,0.001l0,-41.676l65.733,0.001l0,-139.055Z" style="fill:#403f41;fill-rule:nonzero;"/><path d="M9424.12,7806.42l48.2,-0l0,374.55l-48.2,-0l0,-374.55Zm23.904,-154.234c10.967,0 20.367,3.934 28.15,11.717c7.746,7.825 11.638,17.179 11.638,28.229c-0,10.813 -3.892,20.088 -11.638,27.875c-7.783,7.821 -17.183,11.713 -28.15,11.713c-10.691,-0 -19.971,-3.892 -27.717,-11.713c-7.783,-7.787 -11.674,-17.062 -11.674,-27.875c-0,-11.05 3.891,-20.404 11.675,-28.229c7.745,-7.783 17.025,-11.717 27.716,-11.717" style="fill:#403f41;fill-rule:nonzero;"/><path d="M9760.79,7847.38l-30.979,32.004c-25.792,-24.966 -50.992,-37.508 -75.6,-37.508c-15.609,-0 -29.055,5.15 -40.221,15.492c-11.167,10.337 -16.709,22.366 -16.709,36.129c0,12.225 4.559,23.746 13.759,34.791c9.2,11.246 28.546,24.417 57.991,39.592c35.855,18.558 60.23,36.483 73.125,53.704c12.621,17.454 18.988,37.075 18.988,58.854c-0,30.784 -10.808,56.809 -32.433,78.159c-21.625,21.308 -48.634,32 -81.03,32c-21.583,-0 -42.262,-4.675 -61.879,-14.113c-19.658,-9.396 -35.933,-22.371 -48.75,-38.921l30.271,-34.4c24.571,27.796 50.717,41.634 78.275,41.634c19.342,-0 35.817,-6.171 49.379,-18.596c13.604,-12.383 20.367,-26.929 20.367,-43.717c-0,-13.762 -4.483,-25.987 -13.488,-36.8c-8.92,-10.537 -29.208,-23.862 -60.662,-39.946c-33.85,-17.416 -56.846,-34.633 -68.996,-51.658c-12.188,-16.946 -18.283,-36.325 -18.283,-58.146c-0,-28.425 9.675,-52.091 29.096,-70.925c19.42,-18.791 43.954,-28.229 73.637,-28.229c34.479,0 69.192,16.867 104.142,50.6" style="fill:#403f41;fill-rule:nonzero;"/><path d="M9888.17,7667.33l48.2,0l-0,139.055l76.425,-0.001l-0,41.676l-76.425,-0.001l-0,332.88l-48.2,-0l-0,-332.88l-65.738,0.001l0,-41.676l65.738,0.001l-0,-139.055Z" style="fill:#403f41;fill-rule:nonzero;"/><path d="M10265.6,7843.25c-26.812,0 -51.583,6.604 -74.267,19.775c-22.725,13.171 -40.77,31.729 -54.137,55.554c-13.446,23.825 -20.129,49.025 -20.129,75.642c-0,26.379 6.762,51.579 20.287,75.642c13.525,24.058 31.725,42.854 54.492,56.22c22.8,13.405 47.296,20.088 73.4,20.088c26.379,-0 51.346,-6.604 75.012,-19.892c23.588,-13.329 41.75,-31.333 54.492,-54.021c12.696,-22.645 19.067,-48.237 19.067,-76.662c-0,-43.325 -14.271,-79.575 -42.817,-108.667c-28.542,-29.133 -63.65,-43.679 -105.4,-43.679m192.642,-36.837l-0,374.554l-47.534,-0l0,-64.4c-20.204,24.612 -42.85,43.05 -68.012,55.433c-25.121,12.388 -52.604,18.596 -82.404,18.596c-53.038,-0 -98.325,-19.225 -135.834,-57.633c-37.504,-38.45 -56.258,-85.234 -56.258,-140.317c0,-53.9 18.95,-100.017 56.808,-138.388c37.863,-38.291 83.388,-57.479 136.659,-57.479c30.746,0 58.579,6.529 83.466,19.621c24.925,13.092 46.746,32.708 65.575,58.854l0,-68.841l47.534,-0Z" style="fill:#403f41;fill-rule:nonzero;"/><path d="M10755,7847.38l-30.979,32.004c-25.792,-24.966 -50.992,-37.508 -75.604,-37.508c-15.609,-0 -29.055,5.15 -40.217,15.492c-11.167,10.337 -16.712,22.366 -16.712,36.129c-0.001,12.225 4.562,23.746 13.762,34.791c9.2,11.246 28.542,24.417 57.987,39.592c35.859,18.558 60.234,36.483 73.126,53.704c12.62,17.454 18.991,37.075 18.991,58.854c0,30.784 -10.812,56.809 -32.433,78.159c-21.625,21.308 -48.633,32 -81.029,32c-21.584,-0 -42.263,-4.675 -61.884,-14.113c-19.658,-9.396 -35.933,-22.371 -48.75,-38.921l30.275,-34.4c24.571,27.796 50.713,41.634 78.275,41.634c19.342,-0 35.817,-6.171 49.38,-18.596c13.604,-12.383 20.362,-26.929 20.362,-43.717c0,-13.762 -4.479,-25.987 -13.483,-36.8c-8.925,-10.537 -29.213,-23.862 -60.663,-39.946c-33.85,-17.416 -56.85,-34.633 -68.996,-51.658c-12.187,-16.946 -18.283,-36.325 -18.283,-58.146c0,-28.425 9.671,-52.091 29.092,-70.925c19.421,-18.791 43.954,-28.229 73.637,-28.229c34.479,0 69.196,16.867 104.146,50.6" style="fill:#403f41;fill-rule:nonzero;"/><rect x="3789.84" y="8373.21" width="36.129" height="361.696" style="fill:#403f41;"/><path d="M3903.19,8467.38l34.441,0l0,47.963c13.759,-18.359 29.013,-32.08 45.721,-41.163c16.708,-9.121 34.913,-13.679 54.571,-13.679c20.012,-0 37.742,5.108 53.233,15.254c15.488,10.179 26.929,23.825 34.321,41.042c7.392,17.221 11.046,44.033 11.046,80.4l-0,137.721l-34.4,-0l-0,-127.617c-0,-30.783 -1.296,-51.383 -3.854,-61.725c-3.971,-17.692 -11.638,-31.021 -22.921,-39.942c-11.321,-8.925 -26.063,-13.408 -44.267,-13.408c-20.837,-0 -39.512,6.879 -55.983,20.641c-16.475,13.759 -27.325,30.821 -32.554,51.146c-3.263,13.292 -4.913,37.588 -4.913,72.775l0,98.129l-34.441,0l-0,-267.537Z" style="fill:#403f41;fill-rule:nonzero;"/><path d="M4339.75,8493.67c-19.146,-0 -36.837,4.716 -53.033,14.112c-16.238,9.438 -29.134,22.688 -38.688,39.671c-9.591,17.025 -14.387,35.067 -14.387,54.058c-0,18.829 4.833,36.838 14.504,54.017c9.633,17.183 22.646,30.588 38.925,40.179c16.275,9.596 33.771,14.35 52.446,14.35c18.829,0 36.679,-4.717 53.504,-14.229c16.867,-9.517 29.879,-22.371 38.962,-38.608c9.084,-16.159 13.642,-34.4 13.642,-54.725c0,-30.942 -10.221,-56.85 -30.625,-77.609c-20.367,-20.795 -45.45,-31.216 -75.25,-31.216m137.563,-129.584l-0,370.821l-33.93,0l0,-46c-14.425,17.575 -30.583,30.746 -48.554,39.592c-17.966,8.846 -37.583,13.287 -58.891,13.287c-37.859,0 -70.217,-13.72 -96.992,-41.162c-26.813,-27.521 -40.217,-60.9 -40.217,-100.254c0,-38.488 13.525,-71.434 40.571,-98.838c27.05,-27.325 59.604,-41.046 97.621,-41.046c21.975,0 41.871,4.642 59.641,14c17.767,9.354 33.376,23.35 46.821,42.067l0,-152.467l33.93,0Z" style="fill:#403f41;fill-rule:nonzero;"/><path d="M4780.54,8574.08c-4.6,-18.362 -11.284,-32.987 -20.05,-44.033c-8.805,-10.929 -20.404,-19.817 -34.871,-26.537c-14.429,-6.684 -29.604,-10.067 -45.529,-10.067c-26.259,-0 -48.825,8.454 -67.7,25.321c-13.796,12.266 -24.217,30.741 -31.254,55.316l199.404,0Zm-0,72.063l29.016,15.216c-9.516,18.713 -20.525,33.809 -32.987,45.251c-12.463,11.52 -26.496,20.208 -42.067,26.22c-15.608,5.938 -33.221,8.925 -52.916,8.925c-43.68,0 -77.805,-14.308 -102.417,-42.85c-24.608,-28.621 -36.875,-60.941 -36.875,-97.029c-0,-33.929 10.417,-64.204 31.217,-90.741c26.416,-33.73 61.8,-50.675 106.108,-50.675c45.608,-0.001 82.012,17.337 109.258,51.895c19.342,24.454 29.209,54.921 29.525,91.484l-240.725,-0c0.667,31.062 10.575,56.537 29.8,76.429c19.188,19.854 42.934,29.8 71.159,29.8c13.604,-0 26.854,-2.358 39.75,-7.075c12.895,-4.758 23.825,-11.05 32.825,-18.913c9.083,-7.82 18.833,-20.441 29.329,-37.937" style="fill:#403f41;fill-rule:nonzero;"/><path d="M5020.75,8493.67c-29.758,-0 -54.842,10.421 -75.208,31.216c-20.325,20.759 -30.509,46.667 -30.509,77.609c0,20.325 4.521,38.566 13.605,54.725c9.079,16.237 22.095,29.091 39,38.608c16.904,9.512 34.791,14.229 53.625,14.229c18.479,0 35.816,-4.754 52.091,-14.35c16.275,-9.591 29.25,-22.996 38.884,-40.179c9.67,-17.179 14.508,-35.188 14.508,-54.017c-0,-18.991 -4.8,-37.033 -14.392,-54.058c-9.554,-16.983 -22.45,-30.233 -38.608,-39.671c-16.196,-9.396 -33.85,-14.112 -52.996,-14.112m-137.679,-26.3l34.4,-0l-0,49.183c13.604,-18.717 29.25,-32.712 46.904,-42.067c17.692,-9.358 37.425,-14 59.246,-14c37.979,0 70.492,13.721 97.5,41.046c27.012,27.404 40.533,60.35 40.533,98.838c0,39.354 -13.404,72.733 -40.179,100.254c-26.771,27.441 -59.05,41.162 -96.871,41.162c-21.308,0 -40.887,-4.441 -58.737,-13.287c-17.846,-8.846 -33.967,-22.017 -48.396,-39.592l-0,143.854l-34.4,0l-0,-365.391Z" style="fill:#403f41;fill-rule:nonzero;"/><path d="M5451.29,8574.08c-4.6,-18.362 -11.284,-32.987 -20.05,-44.033c-8.809,-10.929 -20.404,-19.817 -34.875,-26.537c-14.425,-6.684 -29.604,-10.067 -45.525,-10.067c-26.263,-0 -48.829,8.454 -67.7,25.321c-13.8,12.266 -24.217,30.741 -31.254,55.316l199.404,0Zm-0,72.063l29.012,15.216c-9.512,18.713 -20.521,33.809 -32.983,45.251c-12.463,11.52 -26.5,20.208 -42.067,26.22c-15.608,5.938 -33.221,8.925 -52.917,8.925c-43.679,0 -77.804,-14.308 -102.416,-42.85c-24.613,-28.621 -36.879,-60.941 -36.879,-97.029c-0,-33.929 10.42,-64.204 31.216,-90.741c26.421,-33.73 61.804,-50.675 106.113,-50.675c45.604,-0.001 82.008,17.337 109.254,51.895c19.346,24.454 29.212,54.921 29.525,91.484l-240.725,-0c0.671,31.062 10.579,56.537 29.804,76.429c19.184,19.854 42.929,29.8 71.158,29.8c13.605,-0 26.85,-2.358 39.746,-7.075c12.896,-4.758 23.825,-11.05 32.829,-18.913c9.084,-7.82 18.834,-20.441 29.33,-37.937" style="fill:#403f41;fill-rule:nonzero;"/><path d="M5553.38,8467.38l34.438,0l-0,47.963c13.762,-18.359 29.016,-32.08 45.725,-41.163c16.708,-9.121 34.912,-13.679 54.566,-13.679c20.013,-0 37.746,5.108 53.234,15.254c15.491,10.179 26.933,23.825 34.32,41.042c7.392,17.221 11.05,44.033 11.05,80.4l0,137.721l-34.4,-0l0,-127.617c0,-30.783 -1.3,-51.383 -3.854,-61.725c-3.971,-17.692 -11.637,-31.021 -22.921,-39.942c-11.32,-8.925 -26.066,-13.408 -44.266,-13.408c-20.838,-0 -39.513,6.879 -55.988,20.641c-16.471,13.759 -27.321,30.821 -32.55,51.146c-3.262,13.292 -4.916,37.588 -4.916,72.775l-0,98.129l-34.438,0l0,-267.537Z" style="fill:#403f41;fill-rule:nonzero;"/><path d="M5989.92,8493.67c-19.146,-0 -36.838,4.716 -53.038,14.112c-16.237,9.438 -29.129,22.688 -38.683,39.671c-9.596,17.025 -14.392,35.067 -14.392,54.058c0,18.829 4.838,36.838 14.508,54.017c9.634,17.183 22.646,30.588 38.921,40.179c16.279,9.596 33.771,14.35 52.446,14.35c18.833,0 36.683,-4.717 53.508,-14.229c16.867,-9.517 29.88,-22.371 38.963,-38.608c9.079,-16.159 13.642,-34.4 13.642,-54.725c-0,-30.942 -10.221,-56.85 -30.625,-77.609c-20.367,-20.795 -45.45,-31.216 -75.25,-31.216m137.562,-129.584l0,370.821l-33.929,0l0,-46c-14.429,17.575 -30.587,30.746 -48.554,39.592c-17.967,8.846 -37.583,13.287 -58.892,13.287c-37.862,0 -70.217,-13.72 -96.992,-41.162c-26.812,-27.521 -40.216,-60.9 -40.216,-100.254c-0,-38.488 13.521,-71.434 40.571,-98.838c27.05,-27.325 59.6,-41.046 97.621,-41.046c21.975,0 41.866,4.642 59.637,14c17.771,9.354 33.379,23.35 46.825,42.067l0,-152.467l33.929,0Z" style="fill:#403f41;fill-rule:nonzero;"/><path d="M6200.29,8467.33l34.441,0l0,267.538l-34.441,-0l-0,-267.538Zm17.062,-110.158c7.904,0 14.588,2.829 20.092,8.371c5.541,5.625 8.333,12.308 8.333,20.171c0,7.704 -2.792,14.35 -8.333,19.933c-5.504,5.583 -12.188,8.333 -20.092,8.333c-7.666,0 -14.233,-2.75 -19.812,-8.333c-5.546,-5.583 -8.296,-12.229 -8.296,-19.933c-0,-7.863 2.75,-14.546 8.296,-20.171c5.579,-5.542 12.145,-8.371 19.812,-8.371" style="fill:#403f41;fill-rule:nonzero;"/><path d="M6531.5,8574.08c-4.642,-18.362 -11.325,-32.987 -20.054,-44.033c-8.804,-10.929 -20.404,-19.817 -34.871,-26.537c-14.429,-6.684 -29.604,-10.067 -45.567,-10.067c-26.262,-0 -48.829,8.454 -67.658,25.321c-13.8,12.266 -24.221,30.741 -31.258,55.316l199.408,0Zm0,72.063l29.012,15.216c-9.554,18.713 -20.52,33.809 -32.983,45.251c-12.462,11.52 -26.537,20.208 -42.108,26.22c-15.608,5.938 -33.179,8.925 -52.917,8.925c-43.641,0 -77.766,-14.308 -102.375,-42.85c-24.612,-28.621 -36.879,-60.941 -36.879,-97.029c0,-33.929 10.421,-64.204 31.217,-90.741c26.421,-33.73 61.762,-50.675 106.071,-50.675c45.645,-0.001 82.012,17.337 109.254,51.895c19.383,24.454 29.212,54.921 29.566,91.484l-240.725,-0c0.63,31.062 10.575,56.537 29.763,76.429c19.225,19.854 42.929,29.8 71.158,29.8c13.604,-0 26.892,-2.358 39.788,-7.075c12.896,-4.758 23.783,-11.05 32.829,-18.913c9.079,-7.82 18.792,-20.441 29.329,-37.937" style="fill:#403f41;fill-rule:nonzero;"/><path d="M6633.54,8467.38l34.437,0l0,47.963c13.763,-18.359 29.017,-32.08 45.725,-41.163c16.708,-9.121 34.908,-13.679 54.567,-13.679c19.971,-0 37.742,5.108 53.233,15.254c15.492,10.179 26.929,23.825 34.321,41.042c7.392,17.221 11.05,44.033 11.05,80.4l0,137.721l-34.404,-0l-0,-127.617c-0,-30.783 -1.296,-51.383 -3.85,-61.725c-3.971,-17.692 -11.638,-31.021 -22.963,-39.942c-11.32,-8.925 -26.062,-13.408 -44.266,-13.408c-20.796,-0 -39.471,6.879 -55.946,20.641c-16.471,13.759 -27.363,30.821 -32.55,51.146c-3.304,13.292 -4.917,37.588 -4.917,72.775l0,98.129l-34.437,0l-0,-267.537Z" style="fill:#403f41;fill-rule:nonzero;"/><path d="M6970.67,8368.04l34.437,-0l0,99.35l54.571,-0l0,29.758l-54.571,0l0,237.738l-34.437,-0l-0,-237.738l-46.984,0l0,-29.758l46.984,-0l-0,-99.35Z" style="fill:#403f41;fill-rule:nonzero;"/><path d="M7336.54,8574.08c-4.642,-18.362 -11.325,-32.987 -20.055,-44.033c-8.804,-10.929 -20.404,-19.817 -34.87,-26.537c-14.429,-6.684 -29.604,-10.067 -45.567,-10.067c-26.221,-0 -48.829,8.454 -67.658,25.321c-13.8,12.266 -24.221,30.741 -31.259,55.316l199.409,0Zm-0,72.063l29.012,15.216c-9.554,18.713 -20.521,33.809 -32.983,45.251c-12.463,11.52 -26.538,20.208 -42.108,26.22c-15.609,5.938 -33.18,8.925 -52.917,8.925c-43.642,0 -77.767,-14.308 -102.375,-42.85c-24.613,-28.621 -36.879,-60.941 -36.879,-97.029c-0,-33.929 10.421,-64.204 31.216,-90.741c26.421,-33.73 61.763,-50.675 106.071,-50.675c45.646,-0.001 82.013,17.337 109.259,51.895c19.379,24.454 29.208,54.921 29.562,91.484l-240.725,-0c0.629,31.062 10.575,56.537 29.763,76.429c19.225,19.854 42.929,29.8 71.158,29.8c13.604,-0 26.892,-2.358 39.787,-7.075c12.896,-4.758 23.788,-11.05 32.83,-18.913c9.079,-7.82 18.791,-20.441 29.329,-37.937" style="fill:#403f41;fill-rule:nonzero;"/><path d="M7573.08,8496.62l-22.137,22.879c-18.438,-17.846 -36.442,-26.812 -53.979,-26.812c-11.163,-0 -20.759,3.695 -28.738,11.05c-7.983,7.387 -11.954,16 -11.954,25.829c0,8.687 3.304,16.983 9.829,24.846c6.609,8.058 20.367,17.454 41.438,28.266c25.596,13.288 43.012,26.067 52.212,38.371c9.042,12.463 13.563,26.5 13.563,42.029c-0,21.975 -7.704,40.571 -23.155,55.825c-15.454,15.255 -34.716,22.884 -57.875,22.884c-15.45,-0 -30.154,-3.342 -44.229,-10.104c-13.996,-6.684 -25.591,-15.963 -34.791,-27.796l21.625,-24.571c17.571,19.854 36.208,29.762 55.904,29.762c13.837,0 25.591,-4.445 35.266,-13.291c9.709,-8.846 14.546,-19.225 14.546,-31.217c0,-9.825 -3.187,-18.596 -9.633,-26.3c-6.371,-7.55 -20.838,-17.025 -43.363,-28.542c-24.141,-12.425 -40.575,-24.729 -49.262,-36.879c-8.729,-12.108 -13.054,-25.987 -13.054,-41.554c-0,-20.325 6.958,-37.192 20.8,-50.679c13.875,-13.404 31.371,-20.129 52.562,-20.129c24.65,-0 49.459,12.033 74.425,36.133" style="fill:#403f41;fill-rule:nonzero;"/><path d="M7902.92,8493.67c-19.146,-0 -36.838,4.716 -52.996,14.112c-16.238,9.438 -29.133,22.688 -38.725,39.671c-9.592,17.025 -14.35,35.067 -14.35,54.058c-0,18.829 4.796,36.838 14.467,54.017c9.67,17.183 22.645,30.588 38.92,40.179c16.28,9.596 33.813,14.35 52.446,14.35c18.834,0 36.684,-4.717 53.55,-14.229c16.867,-9.517 29.838,-22.371 38.959,-38.608c9.045,-16.159 13.604,-34.4 13.604,-54.725c-0,-30.942 -10.221,-56.85 -30.588,-77.609c-20.404,-20.795 -45.487,-31.216 -75.287,-31.216m137.604,-129.584l-0,370.821l-33.929,0l-0,-46c-14.471,17.575 -30.629,30.746 -48.596,39.592c-17.967,8.846 -37.583,13.287 -58.854,13.287c-37.9,0 -70.254,-13.72 -97.029,-41.162c-26.813,-27.521 -40.18,-60.9 -40.18,-100.254c0,-38.488 13.525,-71.434 40.575,-98.838c27.046,-27.325 59.563,-41.046 97.617,-41.046c21.938,0 41.833,4.642 59.6,14c17.813,9.354 33.379,23.35 46.867,42.067l-0,-152.467l33.929,0Z" style="fill:#403f41;fill-rule:nonzero;"/><path d="M8343.71,8574.08c-4.641,-18.362 -11.325,-32.987 -20.05,-44.033c-8.808,-10.929 -20.404,-19.817 -34.875,-26.537c-14.429,-6.684 -29.604,-10.067 -45.566,-10.067c-26.221,-0 -48.825,8.454 -67.659,25.321c-13.8,12.266 -24.216,30.741 -31.254,55.316l199.404,0Zm0,72.063l29.013,15.216c-9.554,18.713 -20.521,33.809 -32.984,45.251c-12.462,11.52 -26.537,20.208 -42.108,26.22c-15.608,5.938 -33.179,8.925 -52.916,8.925c-43.638,0 -77.763,-14.308 -102.376,-42.85c-24.612,-28.621 -36.879,-60.941 -36.879,-97.029c0,-33.929 10.421,-64.204 31.217,-90.741c26.421,-33.73 61.762,-50.675 106.071,-50.675c45.646,-0.001 82.012,17.337 109.258,51.895c19.379,24.454 29.208,54.921 29.563,91.484l-240.725,-0c0.629,31.062 10.575,56.537 29.762,76.429c19.225,19.854 42.934,29.8 71.159,29.8c13.604,-0 26.891,-2.358 39.787,-7.075c12.896,-4.758 23.788,-11.05 32.829,-18.913c9.079,-7.82 18.792,-20.441 29.329,-37.937" style="fill:#403f41;fill-rule:nonzero;"/><rect x="8440.58" y="8364.12" width="34.442" height="370.817" style="fill:#403f41;"/><path d="M9040.54,8433.92l-28.029,26.537c-20.171,-19.816 -42.267,-34.833 -66.288,-45.096c-24.021,-10.258 -47.412,-15.371 -70.175,-15.371c-28.387,0 -55.396,7.001 -81.067,20.917c-25.596,13.954 -45.529,32.825 -59.604,56.692c-14.112,23.825 -21.15,49.025 -21.15,75.562c0,27.246 7.313,53.075 21.9,77.609c14.546,24.491 34.713,43.796 60.504,57.791c25.713,14.038 53.9,20.996 84.567,20.996c37.192,0 68.642,-10.458 94.433,-31.454c25.713,-20.954 40.967,-48.2 45.725,-81.654l-115.312,-0l-0,-34.913l155.883,0c-0.354,55.905 -16.904,100.292 -49.812,133.159c-32.867,32.866 -76.821,49.3 -131.9,49.3c-66.875,-0 -119.834,-22.763 -158.834,-68.367c-29.996,-35.071 -45.012,-75.642 -45.012,-121.721c-0,-34.204 8.608,-66.125 25.829,-95.65c17.217,-29.487 40.808,-52.566 70.804,-69.196c29.996,-16.67 63.925,-24.966 101.825,-24.966c30.629,-0 59.484,5.546 86.533,16.633c27.051,11.046 53.43,28.817 79.18,53.192" style="fill:#403f41;fill-rule:nonzero;"/><path d="M9120.71,8467.38l34.442,0l0,124.904c0,30.508 1.613,51.5 4.913,62.942c4.916,16.433 14.312,29.367 28.149,38.883c13.88,9.513 30.471,14.229 49.655,14.229c19.225,0 35.504,-4.6 48.87,-13.837c13.367,-9.317 22.605,-21.467 27.717,-36.563c3.458,-10.341 5.188,-32.2 5.188,-65.654l-0,-124.904l35.15,0l-0,131.313c-0,36.875 -4.325,64.67 -12.938,83.345c-8.608,18.675 -21.542,33.338 -38.842,43.913c-17.258,10.579 -38.962,15.846 -65.025,15.846c-26.066,-0 -47.85,-5.267 -65.304,-15.846c-17.454,-10.575 -30.471,-25.317 -39.079,-44.267c-8.608,-18.908 -12.896,-47.412 -12.896,-85.471l0,-128.833Z" style="fill:#403f41;fill-rule:nonzero;"/><path d="M9560.21,8493.67c-19.146,-0 -36.837,4.716 -52.996,14.112c-16.237,9.438 -29.133,22.688 -38.725,39.671c-9.591,17.025 -14.35,35.067 -14.35,54.058c0.001,18.829 4.796,36.838 14.467,54.017c9.675,17.183 22.646,30.588 38.925,40.179c16.275,9.596 33.809,14.35 52.446,14.35c18.829,0 36.679,-4.717 53.546,-14.229c16.867,-9.517 29.842,-22.371 38.962,-38.608c9.042,-16.159 13.6,-34.4 13.6,-54.725c0,-30.942 -10.22,-56.85 -30.587,-77.609c-20.404,-20.795 -45.488,-31.216 -75.288,-31.216m137.605,-26.3l-0,267.537l-33.93,0l0,-46c-14.466,17.575 -30.625,30.746 -48.591,39.592c-17.967,8.846 -37.588,13.287 -58.854,13.287c-37.863,0 -70.259,-13.721 -97.03,-41.162c-26.812,-27.521 -40.183,-60.9 -40.183,-100.254c0,-38.488 13.525,-71.434 40.575,-98.838c27.05,-27.325 59.563,-41.046 97.617,-41.046c21.937,0 41.833,4.642 59.604,14c17.808,9.354 33.379,23.35 46.862,42.067l0,-49.183l33.93,-0Z" style="fill:#403f41;fill-rule:nonzero;"/><path d="M9746.5,8467.38l36.404,0l91.917,206.008l89.287,-206.008l36.642,0l-159.579,365.392l-36.408,-0l51.541,-118.142l-109.804,-247.25Z" style="fill:#403f41;fill-rule:nonzero;"/><path d="M10174.2,8493.67c-19.145,-0 -36.837,4.716 -52.996,14.112c-16.237,9.438 -29.133,22.688 -38.725,39.671c-9.591,17.025 -14.35,35.067 -14.35,54.058c0.001,18.829 4.796,36.838 14.467,54.017c9.675,17.183 22.646,30.588 38.925,40.179c16.275,9.596 33.809,14.35 52.446,14.35c18.829,0 36.679,-4.717 53.546,-14.229c16.867,-9.517 29.842,-22.371 38.962,-38.608c9.042,-16.159 13.6,-34.4 13.6,-54.725c0,-30.942 -10.22,-56.85 -30.587,-77.609c-20.404,-20.795 -45.488,-31.216 -75.288,-31.216m137.605,-26.3l-0,267.537l-33.93,0l0,-46c-14.466,17.575 -30.625,30.746 -48.591,39.592c-17.971,8.846 -37.588,13.287 -58.854,13.287c-37.9,0 -70.259,-13.721 -97.03,-41.162c-26.812,-27.521 -40.183,-60.9 -40.183,-100.254c0,-38.488 13.525,-71.434 40.575,-98.838c27.05,-27.325 59.563,-41.046 97.617,-41.046c21.937,0 41.833,4.642 59.604,14c17.808,9.354 33.375,23.35 46.862,42.067l0,-49.183l33.93,-0Z" style="fill:#403f41;fill-rule:nonzero;"/><path d="M10523.8,8496.62l-22.133,22.879c-18.442,-17.846 -36.446,-26.812 -53.979,-26.812c-11.167,-0 -20.759,3.695 -28.742,11.05c-7.979,7.387 -11.95,16 -11.95,25.829c-0,8.687 3.3,16.983 9.829,24.846c6.604,8.058 20.363,17.454 41.438,28.266c25.591,13.288 43.008,26.067 52.208,38.371c9.042,12.463 13.562,26.5 13.562,42.029c0,21.975 -7.704,40.571 -23.154,55.825c-15.45,15.255 -34.716,22.884 -57.871,22.884c-15.45,-0 -30.154,-3.342 -44.229,-10.104c-13.996,-6.684 -25.596,-15.963 -34.796,-27.796l21.625,-24.571c17.571,19.854 36.209,29.762 55.905,29.762c13.837,0 25.595,-4.445 35.266,-13.291c9.709,-8.846 14.546,-19.225 14.546,-31.217c0,-9.825 -3.183,-18.596 -9.633,-26.3c-6.367,-7.55 -20.838,-17.025 -43.363,-28.542c-24.141,-12.425 -40.575,-24.729 -49.262,-36.879c-8.729,-12.108 -13.054,-25.987 -13.054,-41.554c-0,-20.325 6.92,-37.192 20.8,-50.679c13.879,-13.404 31.37,-20.129 52.562,-20.129c24.65,-0 49.458,12.033 74.425,36.133" style="fill:#403f41;fill-rule:nonzero;"/><path d="M3347.34,7574.42l-227.867,141.65c-196.733,-261.404 -465.329,-392.084 -805.758,-392.084c-272.017,0 -498.159,87.555 -677.788,262.425c-179.629,175.146 -269.621,387.646 -269.621,637.767c0,162.488 41.4,315.775 124.196,459.471c82.442,143.379 196.063,254.917 340.113,333.942c144.362,79.375 305.871,119.083 485.146,119.083c328.12,-0 596.012,-130.683 803.712,-392.088l227.867,149.829c-106.738,160.838 -250.121,285.388 -430.063,374.001c-179.983,88.616 -384.933,133.083 -614.846,133.083c-353.125,-0 -645.979,-112.246 -878.646,-336.692c-232.666,-224.45 -348.995,-497.45 -348.995,-819.087c-0,-216.229 54.408,-417.092 163.196,-602.538c108.82,-185.45 258.337,-330.166 448.579,-434.191c190.204,-103.988 403.058,-156.005 638.433,-156.005c147.825,0 290.5,22.567 428.021,67.742c137.562,45.171 254.208,104.025 350.021,176.563c95.808,72.533 177.229,164.887 244.3,277.129" style="fill:#d1d3d4;fill-rule:nonzero;"/><path d="M1916.01,7947.25c-47.217,0 -90.934,11.637 -130.959,34.912c-39.983,23.155 -71.829,55.825 -95.375,97.892c-23.671,41.95 -35.504,86.454 -35.504,133.279c0,46.55 11.912,90.934 35.779,133.396c23.784,42.379 55.825,75.483 96.004,99.033c40.259,23.667 83.309,35.501 129.467,35.501c46.392,-0.001 90.5,-11.713 132.175,-35.184c41.554,-23.396 73.638,-55.121 95.967,-95.067c22.45,-40.058 33.691,-85.195 33.691,-135.241c0,-76.35 -25.2,-140.159 -75.441,-191.542c-50.363,-51.304 -112.284,-76.979 -185.804,-76.979m339.525,-64.946l-0,660.25l-83.742,0l-0,-113.462c-35.621,43.287 -75.563,75.841 -119.871,97.7c-44.271,21.816 -92.746,32.75 -145.308,32.75c-93.45,-0 -173.263,-33.892 -239.388,-101.63c-66.166,-67.779 -99.229,-150.225 -99.229,-247.291c0,-95.063 33.375,-176.404 100.133,-243.95c66.755,-67.579 147.038,-101.354 240.884,-101.354c54.212,-0 103.279,11.562 147.191,34.6c43.875,23.075 82.405,57.633 115.588,103.75l-0,-121.363l83.742,0Z" style="fill:#ed1c24;fill-rule:nonzero;"/><path d="M2291.32,7873.46l84.958,0l0,660.213l-84.958,-0l-0,-660.213Zm42.146,-271.862c19.341,-0 35.816,6.879 49.575,20.637c13.641,13.721 20.52,30.313 20.52,49.734c0,19.029 -6.879,35.425 -20.52,49.145c-13.759,13.759 -30.234,20.638 -49.575,20.638c-18.913,0 -35.267,-6.879 -48.95,-20.638c-13.642,-13.72 -20.521,-30.116 -20.521,-49.145c-0,-19.421 6.879,-36.013 20.521,-49.734c13.683,-13.758 30.037,-20.637 48.95,-20.637" style="fill:#ed1c24;fill-rule:nonzero;"/><path d="M2618.25,7975.12c-39.904,22.604 -70.767,53.308 -92.508,92.233c-21.78,38.921 -32.671,83.15 -32.671,132.725c-0,76.192 23.666,137.68 71.041,184.425c47.375,46.788 109.967,70.138 187.771,70.138c77.017,-0 139.684,-23.55 188.079,-70.725c48.359,-47.179 72.538,-106.821 72.538,-179c-0,-47.571 -11.679,-91.842 -35.071,-132.729c-23.35,-40.925 -55.629,-72.967 -96.754,-96.163c-41.121,-23.158 -85.667,-34.796 -133.629,-34.796c-45.959,0 -88.892,11.325 -128.796,33.892m-120.933,15.725c39.55,-46.783 80.595,-80.321 123.175,-100.683c42.579,-20.367 88.458,-30.509 137.72,-30.509c59.284,0 115.7,15.292 169.171,45.959c53.467,30.625 95.338,72.221 125.609,124.862c30.275,52.563 45.412,109.334 45.412,170.234c0,60.858 -14.55,116.687 -43.604,167.479c-29.05,50.758 -70.213,91.212 -123.488,121.25c-53.27,30.033 -110.158,45.054 -170.704,45.054c-51.658,-0 -100.45,-10.771 -146.446,-32.358c-46.037,-21.542 -85,-52.484 -116.845,-92.821l-0,33.85c-0,72.537 8.454,125.062 25.4,157.612c16.983,32.513 45.329,59.563 85.075,81.067c39.75,21.467 88.5,32.237 146.212,32.237c58.542,0 107.567,-10.495 147.154,-31.45c39.513,-20.954 71.829,-53.191 96.834,-96.754l91.916,0c-23.783,51.779 -49.771,91.054 -78,117.946c-28.225,26.892 -64.791,48.317 -109.766,64.317c-44.938,15.962 -95.613,23.946 -152.071,23.946c-76.975,-0 -142.909,-16.359 -197.713,-48.988c-54.846,-32.633 -93.333,-79.179 -115.546,-139.687c-16.079,-42.734 -24.137,-110.238 -24.137,-202.55l-0,-524.3l84.642,-0l-0,114.287Z" style="fill:#ed1c24;fill-rule:nonzero;"/></g><g><path d="M8026.83,3453.98l199.65,0l0,1041.67l190.975,0l0,-1041.67l199.65,0l0,-173.612l-590.275,-0l0,173.612Z" style="fill:#fff;fill-rule:nonzero;"/><path d="M8891.42,3453.98l329.858,0l0,-173.612l-520.833,-0l-0,1215.28l520.833,0l0,-173.612l-329.858,-0l-0,-355.9l262.15,-0l-0,-173.613l-262.15,0l-0,-338.542Z" style="fill:#fff;fill-rule:nonzero;"/><path d="M9315,3572.04c0,347.225 373.267,394.1 373.267,644.1c-0,86.804 -38.196,118.054 -98.959,118.054c-60.766,-0 -98.958,-31.25 -98.958,-118.054l0,-86.809l-180.558,0l-0,74.654c-0,194.446 97.225,305.555 284.725,305.555c187.5,-0 284.721,-111.109 284.721,-305.555c-0,-347.22 -373.263,-394.095 -373.263,-644.095c0,-86.809 34.721,-119.792 95.483,-119.792c60.767,-0 95.488,32.983 95.488,119.792l-0,50.345l180.554,0l0,-38.195c0,-194.442 -95.483,-305.555 -281.25,-305.555c-185.762,0 -281.25,111.113 -281.25,305.555Z" style="fill:#fff;fill-rule:nonzero;"/><path d="M9933.08,3453.98l199.65,0l0,1041.67l190.975,0l0,-1041.67l199.65,0l0,-173.612l-590.275,-0l0,173.612Z" style="fill:#fff;fill-rule:nonzero;"/><rect x="10606.7" y="3280.37" width="190.971" height="1215.28" style="fill:#fff;"/><path d="M11200.4,3280.37l-265.625,-0l-0,1215.28l166.666,0l0,-859.375l142.363,859.375l180.554,0l131.946,-871.529l-0,871.529l180.554,0l0,-1215.28l-265.625,-0l-130.208,862.85l-140.625,-862.85Z" style="fill:#fff;fill-rule:nonzero;"/><path d="M12051.1,3559.89c0,-86.809 38.196,-119.792 98.958,-119.792c60.763,-0 98.959,32.983 98.959,119.792l-0,656.25c-0,86.804 -38.196,119.791 -98.959,119.791c-60.762,0 -98.958,-32.987 -98.958,-119.791l0,-656.25Zm-190.971,644.095c0,194.446 102.429,305.555 289.929,305.555c187.5,-0.001 289.93,-111.109 289.93,-305.555l-0.001,-631.945c0.001,-194.442 -102.429,-305.555 -289.929,-305.555c-187.5,0 -289.929,111.113 -289.929,305.555l0,631.945Z" style="fill:#fff;fill-rule:nonzero;"/><path d="M12971.2,4495.67l196.183,-0l0,-1215.28l-170.141,-0l-0,727.433l-196.18,-727.433l-239.583,-0l0,1215.28l171.875,-0l0,-880.209l237.846,880.209Z" style="fill:#fff;fill-rule:nonzero;"/><rect x="13304.6" y="3280.37" width="190.971" height="1215.28" style="fill:#fff;"/><path d="M13809.8,3559.89c-0,-86.809 38.196,-119.792 98.958,-119.792c60.767,-0 98.958,32.983 98.958,119.792l0,656.25c0,86.804 -38.191,119.791 -98.958,119.791c-60.762,0 -98.958,-32.987 -98.958,-119.791l-0,-656.25Zm-190.971,644.095c-0,194.446 102.429,305.555 289.929,305.555c187.5,-0.001 289.933,-111.109 289.933,-305.555l0,-631.945c0,-194.442 -102.433,-305.555 -289.933,-305.555c-187.5,0 -289.929,111.113 -289.929,305.555l-0,631.945Z" style="fill:#fff;fill-rule:nonzero;"/><path d="M14782,3974.82l217.012,-0l0,520.833l194.446,0l0,-1215.28l-194.446,-0l0,520.833l-217.012,0l-0,-520.833l-190.975,-0l-0,1215.28l190.975,0l-0,-520.833Z" style="fill:#fff;fill-rule:nonzero;"/><rect x="15332.4" y="3280.37" width="190.971" height="1215.28" style="fill:#fff;"/><path d="M15637.9,3572.04c-0,347.225 373.266,394.1 373.266,644.1c0,86.804 -38.195,118.054 -98.958,118.054c-60.767,-0 -98.958,-31.25 -98.958,-118.054l-0,-86.809l-180.559,0l0,74.654c0,194.446 97.225,305.555 284.725,305.555c187.5,-0 284.721,-111.109 284.721,-305.555c0,-347.22 -373.262,-394.095 -373.262,-644.095c-0,-86.809 34.721,-119.792 95.483,-119.792c60.767,-0 95.488,32.983 95.488,119.792l-0,50.345l180.554,0l-0,-38.195c-0,-194.442 -95.484,-305.555 -281.25,-305.555c-185.763,0 -281.25,111.113 -281.25,305.555Z" style="fill:#fff;fill-rule:nonzero;"/><path d="M16256,3453.98l199.65,0l0,1041.67l190.975,0l0,-1041.67l199.65,0l0,-173.612l-590.275,-0l0,173.612Z" style="fill:#fff;fill-rule:nonzero;"/><path d="M17105,3559.89c0,-86.809 38.192,-119.792 98.959,-119.792c60.762,-0 98.958,32.983 98.958,119.792l0,656.25c0,86.804 -38.196,119.791 -98.958,119.791c-60.767,0 -98.959,-32.987 -98.959,-119.791l0,-656.25Zm-190.975,644.095c0,194.446 102.434,305.555 289.934,305.555c187.5,-0.001 289.929,-111.109 289.929,-305.555l-0,-631.945c-0,-194.442 -102.429,-305.555 -289.929,-305.555c-187.5,0 -289.934,111.113 -289.934,305.555l0,631.945Zm307.292,-1180.55l-118.054,192.709l128.471,-0l177.083,-192.709l-187.5,0Z" style="fill:#fff;fill-rule:nonzero;"/><path d="M18210.8,4495.67c-19.095,-45.138 -20.833,-88.542 -20.833,-147.571l0,-187.5c0,-126.733 -31.25,-218.75 -126.733,-258.679c85.066,-39.929 125,-121.529 125,-246.529l-0,-95.484c-0,-187.5 -85.071,-279.516 -282.988,-279.516l-288.196,-0l0,1215.28l190.975,-0l0,-494.792l65.971,0c86.804,0 125,41.667 125,154.513l0,190.974c0,98.959 6.946,118.055 17.363,149.305l194.441,-0Zm-310.762,-1041.67c67.708,-0 97.221,38.196 97.221,125l-0,119.792c-0,97.22 -43.4,128.47 -114.584,128.47l-74.65,0l0,-373.262l92.013,-0Z" style="fill:#fff;fill-rule:nonzero;"/><rect x="18315" y="3280.37" width="190.971" height="1215.28" style="fill:#fff;"/><path d="M19018.1,4042.53l0,173.613c0,86.804 -38.192,118.054 -98.958,118.054c-60.763,-0 -98.959,-31.25 -98.959,-118.054l0,-656.25c0,-86.809 38.196,-119.792 98.959,-119.792c60.766,-0 98.958,32.983 98.958,119.792l0,130.208l180.558,-0l0,-118.058c0,-194.442 -97.225,-305.555 -284.725,-305.555c-187.5,0 -284.72,111.113 -284.72,305.555l-0,631.945c-0,194.446 97.22,305.555 284.72,305.555c187.5,-0 284.725,-111.109 284.725,-305.555l0,-161.458l-180.558,0Z" style="fill:#fff;fill-rule:nonzero;"/><path d="M19490.4,3559.89c0,-86.809 38.192,-119.792 98.958,-119.792c60.763,-0 98.959,32.983 98.959,119.792l-0,656.25c-0,86.804 -38.196,119.791 -98.959,119.791c-60.766,0 -98.958,-32.987 -98.958,-119.791l0,-656.25Zm-190.975,644.095c0,194.446 102.433,305.555 289.933,305.555c187.5,-0.001 289.929,-111.109 289.929,-305.555l0,-631.945c0,-194.442 -102.429,-305.555 -289.929,-305.555c-187.5,0 -289.933,111.113 -289.933,305.555l0,631.945Z" style="fill:#fff;fill-rule:nonzero;"/><path d="M7205.62,6231.75l302.083,0c190.975,0 284.725,-105.904 284.725,-300.35l0,-614.583c0,-194.442 -93.75,-300.346 -284.725,-300.346l-302.083,-0l0,1215.28Zm298.613,-1041.67c60.762,0 97.22,31.25 97.22,118.054l0,631.946c0,86.805 -36.458,118.055 -97.221,118.055l-107.637,-0.001l-0,-868.054l107.637,0Z" style="fill:#fff;fill-rule:nonzero;"/><path d="M8104.96,5190.08l329.859,0l-0,-173.612l-520.834,-0l0,1215.28l520.834,0l-0,-173.612l-329.859,-0l0,-355.905l262.15,0l0,-173.608l-262.15,0l0,-338.542Z" style="fill:#fff;fill-rule:nonzero;"/><path d="M8552.88,6231.75l505.208,0l0,-173.612l-314.237,-0l-0,-1041.67l-190.971,-0l-0,1215.28Z" style="fill:#fff;fill-rule:nonzero;"/><path d="M9834.12,5016.5l-279.517,0l-194.441,1215.28l175.346,0l32.987,-220.487l234.375,-0l32.983,220.487l192.709,0l-194.442,-1215.28Zm-149.308,215.279l92.016,614.583l-184.029,0.001l92.013,-614.584Z" style="fill:#fff;fill-rule:nonzero;"/><path d="M10710.8,6231.75c-19.096,-45.142 -20.833,-88.542 -20.833,-147.571l0,-187.5c0,-126.737 -31.25,-218.75 -126.733,-258.679c85.066,-39.933 125,-121.529 125,-246.529l-0,-95.488c-0,-187.5 -85.071,-279.512 -282.988,-279.512l-288.196,-0l0,1215.28l190.975,0l0,-494.792l65.971,0c86.804,0 125,41.667 125,154.513l0,190.971c0,98.958 6.946,118.058 17.363,149.308l194.441,0Zm-310.762,-1041.67c67.708,0 97.221,38.192 97.221,125l-0,119.792c-0,97.221 -43.4,128.471 -114.584,128.471l-74.65,-0l0,-373.263l92.013,0Z" style="fill:#fff;fill-rule:nonzero;"/><path d="M10759.5,5190.08l199.655,0l-0.001,1041.67l190.971,0l0,-1041.67l199.655,0l-0.001,-173.612l-590.279,-0l0,173.612Z" style="fill:#fff;fill-rule:nonzero;"/><path d="M11624,5190.08l329.862,0l0,-173.612l-520.833,-0l-0,1215.28l520.833,0l0,-173.612l-329.862,-0l-0,-355.905l262.154,0l-0,-173.608l-262.154,0l-0,-338.542Z" style="fill:#fff;fill-rule:nonzero;"/><path d="M12627.5,5728.29l86.808,-0l0,223.958c0,86.808 -38.196,118.058 -98.958,118.058c-60.767,0 -98.958,-31.25 -98.958,-118.058l-0,-656.25c-0,-86.804 38.191,-119.792 98.958,-119.792c60.762,0 98.958,32.988 98.958,119.792l0,130.208l180.555,0l-0.001,-118.054c0.001,-194.446 -97.22,-305.554 -284.72,-305.554c-187.5,0 -284.725,111.108 -284.725,305.554l-0,631.946c-0,194.442 97.225,305.554 284.725,305.554c187.5,0 284.72,-111.112 284.72,-305.554l0.001,-385.417l-267.363,0l-0,173.609Z" style="fill:#fff;fill-rule:nonzero;"/><path d="M13009.5,5016.5l0,925.346c0,194.446 97.221,305.558 284.721,305.558c187.5,0 284.725,-111.112 284.725,-305.558l0,-925.346l-180.558,0l-0,937.5c-0,86.804 -38.192,118.054 -98.959,118.054c-60.762,0 -98.958,-31.25 -98.958,-118.054l0,-937.5l-190.971,0Z" style="fill:#fff;fill-rule:nonzero;"/><path d="M14132.7,5016.5l-279.512,0l-194.446,1215.28l175.35,0l32.983,-220.487l234.375,-0l32.988,220.487l192.708,0l-194.446,-1215.28Zm-149.304,215.279l92.013,614.583l-184.025,0.001l92.012,-614.584Z" style="fill:#fff;fill-rule:nonzero;"/><path d="M14509.5,6231.75l190.971,0l0,-402.779l241.321,-812.5l-182.292,-0l-145.833,553.821l-145.833,-553.821l-199.654,-0l241.32,812.5l0,402.779Z" style="fill:#fff;fill-rule:nonzero;"/><path d="M15356.7,5016.5l-279.513,0l-194.446,1215.28l175.35,0l32.984,-220.487l234.375,-0l32.987,220.487l192.709,0l-194.446,-1215.28Zm-149.304,215.279l92.012,614.583l-184.025,0.001l92.013,-614.584Z" style="fill:#fff;fill-rule:nonzero;"/><path d="M15622.3,5940.08c-0,194.442 102.433,305.555 289.933,305.555c50.346,-0.001 95.483,-8.68 133.679,-22.571c26.042,52.083 79.863,83.333 164.929,83.333l26.042,0l0,-170.137l-17.358,-0.001c-31.25,0.001 -45.142,-3.47 -53.821,-26.041c24.304,-45.138 36.458,-102.429 36.458,-170.138l0,-631.946c0,-194.445 -102.429,-305.554 -289.929,-305.554c-187.5,0 -289.933,111.109 -289.933,305.554l-0,631.946Zm190.975,-644.1c-0,-86.804 38.191,-119.791 98.958,-119.791c60.763,-0 98.958,32.987 98.958,119.791l0,656.25c0,86.809 -38.195,119.792 -98.958,119.792c-60.767,-0 -98.958,-32.983 -98.958,-119.792l-0,-656.25Z" style="fill:#fff;fill-rule:nonzero;"/><path d="M16316.8,5016.5l0,925.346c0,194.446 97.221,305.558 284.721,305.558c187.5,0 284.725,-111.112 284.725,-305.558l-0,-925.346l-180.558,0l-0,937.5c-0,86.804 -38.192,118.054 -98.959,118.054c-60.762,0 -98.958,-31.25 -98.958,-118.054l-0,-937.5l-190.971,0Z" style="fill:#fff;fill-rule:nonzero;"/><rect x="17016.4" y="5016.5" width="190.971" height="1215.28" style="fill:#fff;"/><path d="M17346.2,6231.75l505.208,0l0,-173.612l-314.233,-0l0,-1041.67l-190.975,-0l0,1215.28Z" style="fill:#fff;fill-rule:nonzero;"/><path d="M18125.8,5190.08l329.858,0l0,-173.612l-520.833,-0l-0,1215.28l520.833,0l0,-173.612l-329.858,-0l-0,-355.905l262.15,0l-0,-173.608l-262.15,0l-0,-338.542Z" style="fill:#fff;fill-rule:nonzero;"/><path d="M18981.7,6231.75l196.183,0l0,-1215.28l-170.142,-0l0,727.429l-196.179,-727.429l-239.583,-0l-0,1215.28l171.875,0l-0,-880.208l237.846,880.208Zm-38.192,-1411.46c-52.083,-0 -83.333,-43.404 -156.25,-43.404c-60.767,-0 -114.583,29.512 -147.571,118.054l92.013,64.237c20.833,-43.404 43.404,-50.346 74.654,-50.346c52.083,0 83.333,43.4 156.25,43.4c60.762,0 114.583,-29.512 147.571,-118.054l-92.017,-64.237c-20.833,43.404 -43.4,50.35 -74.65,50.35Z" style="fill:#fff;fill-rule:nonzero;"/><path d="M19490.4,5296c0,-86.804 38.192,-119.792 98.958,-119.792c60.763,0 98.959,32.988 98.959,119.792l-0,656.25c-0,86.808 -38.196,119.792 -98.959,119.792c-60.766,-0 -98.958,-32.984 -98.958,-119.792l0,-656.25Zm-190.975,644.1c0,194.442 102.433,305.554 289.933,305.554c187.5,0 289.929,-111.112 289.929,-305.554l0,-631.946c0,-194.446 -102.429,-305.554 -289.929,-305.554c-187.5,0 -289.933,111.108 -289.933,305.554l0,631.946Z" style="fill:#fff;fill-rule:nonzero;"/></g></svg>