<?xml version="1.0" encoding="UTF-8" standalone="no"?><!DOCTYPE svg PUBLIC "-//W3C//DTD SVG 1.1//EN" "http://www.w3.org/Graphics/SVG/1.1/DTD/svg11.dtd"><svg width="100%" height="100%" viewBox="0 0 2813 646" version="1.1" xmlns="http://www.w3.org/2000/svg" xmlns:xlink="http://www.w3.org/1999/xlink" xml:space="preserve" xmlns:serif="http://www.serif.com/" style="fill-rule:evenodd;clip-rule:evenodd;stroke-linejoin:round;stroke-miterlimit:2;"><g><path d="M1295.48,496.967l12.354,-0l-0.354,-7.592c-0.262,-5.646 -0.529,-11.029 -0.704,-17.121l-0.35,0c-2.475,5.913 -4.683,11.384 -7.416,17.121l-3.53,7.592Zm5.913,-33.984l14.475,0l5.733,57.555l-12.617,-0l-0.704,-14.48l-17.129,0l-6.792,14.48l-13.329,-0l30.363,-57.555Z" style="fill:#08c2f1;fill-rule:nonzero;"/><path d="M1324.61,513.033c0,-1.587 0.18,-3.175 0.617,-5.383l9.796,-48.988l12.096,0l-9.975,49.513c-0.175,0.883 -0.175,1.237 -0.175,1.683c-0,1.496 0.791,2.025 1.675,2.025c0.529,0 0.796,0 1.591,-0.175l-0.354,8.917c-1.504,0.529 -3.621,0.971 -6.446,0.971c-6.262,-0 -8.825,-3.271 -8.825,-8.563" style="fill:#08c2f1;fill-rule:nonzero;"/><path d="M1344.65,503.588c-0,-15.184 11.383,-27.892 25.771,-27.892c5.471,-0 9.529,2.65 11.741,5.387l-6.708,7.146c-1.767,-1.854 -3.354,-2.825 -5.825,-2.825c-6.975,0 -12.625,8.125 -12.625,17.917c0,5.296 2.471,8.562 7.413,8.562c3.004,0 5.12,-1.408 6.975,-2.825l5.033,7.413c-3.267,2.475 -7.771,5.121 -14.654,5.121c-9.709,-0 -17.121,-6.617 -17.121,-18.004" style="fill:#08c2f1;fill-rule:nonzero;"/><path d="M1406.08,505.263l3.088,-15.534c-1.409,-2.908 -3.792,-4.146 -5.825,-4.146c-6.092,0 -11.738,7.946 -11.738,18.446c0,5.3 1.942,7.675 5.121,7.675c2.912,0 6.529,-1.491 9.354,-6.442m-27.013,0.267c0,-16.683 11.305,-29.833 23.392,-29.833c3.971,-0 7.858,2.208 9.538,5.737l0.17,0l1.946,-4.675l9.617,0l-8.733,43.779l-9.8,0l0.179,-5.737l-0.267,0c-3.971,4.146 -9.092,6.796 -13.683,6.796c-7.675,-0 -12.359,-5.738 -12.359,-16.067" style="fill:#08c2f1;fill-rule:nonzero;"/><path d="M1424.79,513.033c-0,-1.587 0.175,-3.175 0.616,-5.383l9.796,-48.988l12.096,0l-9.975,49.513c-0.179,0.883 -0.179,1.237 -0.179,1.683c-0,1.496 0.796,2.025 1.679,2.025c0.533,0 0.792,0 1.587,-0.175l-0.35,8.917c-1.504,0.529 -3.62,0.971 -6.446,0.971c-6.266,-0 -8.825,-3.271 -8.825,-8.563" style="fill:#08c2f1;fill-rule:nonzero;"/><path d="M1472.01,505.263l3.088,-15.534c-1.413,-2.908 -3.796,-4.146 -5.821,-4.146c-6.092,0 -11.746,7.946 -11.746,18.446c0,5.3 1.942,7.675 5.125,7.675c2.913,0 6.35,-1.491 9.354,-6.442m6.617,-32.566l2.65,-14.033l12.092,-0l-12.446,61.875l-9.796,-0l0.175,-5.738l-0.267,0c-3.971,4.146 -9.087,6.796 -13.675,6.796c-7.683,-0 -12.358,-5.738 -12.358,-16.067c-0,-16.683 11.296,-29.833 23.392,-29.833c3.97,-0 7.233,2.121 8.912,5.3l0.263,-0l1.058,-8.3Z" style="fill:#08c2f1;fill-rule:nonzero;"/><path d="M1496.98,462.633l16.33,-14.65l7.237,9.18l-18.271,12.358l-5.296,-6.888Zm0,14.125l12.005,0l-8.738,43.779l-12.087,0l8.82,-43.779Z" style="fill:#08c2f1;fill-rule:nonzero;"/><path d="M1536.53,505.263l3.088,-15.534c-1.413,-2.908 -3.792,-4.146 -5.825,-4.146c-6.092,0 -11.742,7.946 -11.742,18.446c0,5.3 1.946,7.675 5.121,7.675c2.916,0 6.537,-1.491 9.358,-6.442m-27.008,0.267c-0,-16.683 11.296,-29.833 23.387,-29.833c3.975,-0 7.859,2.208 9.534,5.737l0.179,0l1.937,-4.675l9.621,0l-8.737,43.779l-9.796,0l0.179,-5.737l-0.267,0c-3.971,4.146 -9.091,6.796 -13.679,6.796c-7.683,-0 -12.358,-5.738 -12.358,-16.067" style="fill:#08c2f1;fill-rule:nonzero;"/><path d="M1570.86,497.5c-0,-19.862 13.416,-35.571 31.508,-35.571c7.417,0 12.796,3.442 16.067,9.179l-8.213,6.355c-2.204,-3.355 -4.767,-5.034 -8.471,-5.034c-10.679,0 -18.446,11.475 -18.446,24.275c0,8.825 3.442,14.563 12.446,14.563c2.379,-0 4.675,-0.796 6.263,-1.938l2.471,-11.304l-9.442,0l1.854,-9.883l20.033,-0l-5.291,27.45c-4.417,3.441 -10.771,6.004 -18.005,6.004c-14.212,-0 -22.774,-8.913 -22.774,-24.096" style="fill:#08c2f1;fill-rule:nonzero;"/><path d="M1654.36,520.538l-9.795,-0l0.179,-5.917l-0.359,-0c-3.97,3.704 -9,6.975 -14.3,6.975c-7.233,-0 -10.325,-3.975 -10.325,-11.3c0,-1.938 0.267,-3.971 0.709,-6.175l5.475,-27.363l12,0l-5.121,25.863c-0.442,1.758 -0.704,3 -0.704,4.146c-0,3 1.587,4.5 4.416,4.5c2.555,-0 5.292,-1.767 8.734,-5.646l5.65,-28.863l12.096,0l-8.655,43.78Z" style="fill:#08c2f1;fill-rule:nonzero;"/><path d="M1690.64,505.263l3.087,-15.534c-1.413,-2.908 -3.796,-4.146 -5.829,-4.146c-6.084,0 -11.738,7.946 -11.738,18.446c0,5.3 1.942,7.675 5.125,7.675c2.909,0 6.529,-1.491 9.354,-6.442m-27.008,0.267c0,-16.683 11.296,-29.833 23.392,-29.833c3.971,-0 7.85,2.208 9.529,5.737l0.179,0l1.938,-4.675l9.616,0l-8.733,43.779l-9.796,0l0.175,-5.737l-0.267,0c-3.97,4.146 -9.091,6.796 -13.679,6.796c-7.679,-0 -12.354,-5.738 -12.354,-16.067" style="fill:#08c2f1;fill-rule:nonzero;"/><path d="M1702.99,535.892l3.704,-8.65c0.883,0.529 2.121,0.883 3.271,0.883c3.179,0 6.354,-2.467 8.296,-6.35l1.058,-2.208l-7.588,-42.809l12,0l2.034,19.771c0.437,3.792 0.704,9 0.787,13.15l0.359,0c1.854,-4.058 3.97,-9.179 5.825,-13.15l9.179,-19.771l11.741,0l-23.658,44.746c-6.087,10.504 -11.737,16.154 -20.742,16.154c-1.591,0 -4.5,-0.796 -6.266,-1.766" style="fill:#08c2f1;fill-rule:nonzero;"/><path d="M1775.63,505.263l3.092,-15.534c-1.417,-2.908 -3.8,-4.146 -5.825,-4.146c-6.092,0 -11.742,7.946 -11.742,18.446c0,5.3 1.938,7.675 5.121,7.675c2.908,0 6.529,-1.491 9.354,-6.442m-27.008,0.267c-0,-16.683 11.296,-29.833 23.392,-29.833c3.97,-0 7.854,2.208 9.529,5.737l0.179,0l1.942,-4.675l9.62,0l-8.741,43.779l-9.792,0l0.171,-5.737l-0.267,0c-3.971,4.146 -9.083,6.796 -13.679,6.796c-7.679,-0 -12.354,-5.738 -12.354,-16.067" style="fill:#08c2f1;fill-rule:nonzero;"/><path d="M1820.82,505.263l3.087,-15.534c-1.408,-2.908 -3.791,-4.146 -5.825,-4.146c-6.087,0 -11.733,7.946 -11.733,18.446c0,5.3 1.938,7.675 5.121,7.675c2.733,0 6.354,-1.491 9.35,-6.442m-0.704,9.538l-0.179,0c-3.971,4.146 -9.18,6.796 -13.767,6.796c-7.679,-0 -12.354,-5.738 -12.354,-16.067c-0,-16.683 11.296,-29.833 23.391,-29.833c3.971,-0 7.85,2.208 9.53,5.737l0.175,0l1.941,-4.675l9.621,0l-12.004,60.017l-12.092,0l2.471,-11.829l3.267,-10.146Z" style="fill:#08c2f1;fill-rule:nonzero;"/><path d="M1874.31,520.538l-9.795,-0l0.179,-5.917l-0.354,-0c-3.971,3.704 -9.005,6.975 -14.3,6.975c-7.238,-0 -10.325,-3.975 -10.325,-11.3c-0,-1.938 0.266,-3.971 0.704,-6.175l5.475,-27.363l12.004,0l-5.121,25.863c-0.446,1.758 -0.708,3 -0.708,4.146c-0,3 1.591,4.5 4.416,4.5c2.555,-0 5.292,-1.767 8.738,-5.646l5.646,-28.863l12.096,0l-8.655,43.78Z" style="fill:#08c2f1;fill-rule:nonzero;"/><path d="M1892.67,464.4c-0,-3.888 3.354,-7.154 7.504,-7.154c3.354,-0 6.533,2.033 6.533,5.829c0,4.146 -3.266,7.15 -7.504,7.15c-3.267,0 -6.533,-1.942 -6.533,-5.825m-1.763,12.358l12.004,0l-8.741,43.779l-12.088,0l8.825,-43.779Z" style="fill:#08c2f1;fill-rule:nonzero;"/><path d="M1903.97,513.033c-0,-1.587 0.179,-3.175 0.616,-5.383l9.796,-48.988l12.096,0l-9.975,49.513c-0.175,0.883 -0.175,1.237 -0.175,1.683c0,1.496 0.792,2.025 1.675,2.025c0.533,0 0.796,0 1.588,-0.175l-0.351,8.917c-1.504,0.529 -3.62,0.971 -6.445,0.971c-6.267,-0 -8.825,-3.271 -8.825,-8.563" style="fill:#08c2f1;fill-rule:nonzero;"/><path d="M1553.21,219.996l-102.633,21.5l69.429,42.7l-81.908,145.6l132.987,-104.242l118.271,85.934l-15.775,-55.492c0.867,-7.604 4.992,-13.871 11.571,-17.754c12,-7.075 27.325,-6.096 40.621,-4.559c11.446,1.325 22.796,3.8 34.5,3.938c16.571,0.2 33.175,-2.429 48.866,-7.754c21.242,-7.209 37.209,-20.559 55.096,-33.492c-0.254,0.183 -32.091,22.983 -90.633,9.325c-19.163,-4.471 -38.95,-9.704 -58.621,-11.392c-24.15,-2.066 -48.2,2.8 -60.171,25.771c-3.533,6.775 -5.696,14.25 -6.779,21.796c-0.15,1.004 -1.754,9.15 -0.737,9.842c-0.05,-0.034 -73.992,-50.517 -73.992,-50.517l-80.971,68.225l48.704,-95.187l-47.595,-29.888l69.733,-12.179l38.646,-75.142l1.2,-2.333l16.087,66.054l89.854,-17.758c0,-0 -50.9,42.104 -47.133,40.071c3.763,-2.03 49.783,-40.605 116.95,-26.384c28.417,6.017 57.725,11.196 86.846,7.963c26.65,-2.954 52.591,-14.171 75.054,-28.492c18.904,-12.05 35.358,-26.771 53.062,-40.346c-35.704,27.379 -65.983,30.134 -65.983,30.134c-55.742,8.87 -47.446,4.187 -113.875,-6.188c-66.429,-10.371 -105.837,6.621 -105.837,6.621l-74.55,19.992l-27.159,-88.196l-53.125,101.829Zm311.025,76.379l0,-0.004l0,0.004Z" style="fill:url(#_Linear1);fill-rule:nonzero;"/><path d="M1943.59,218.513c-10.213,7.174 -21.334,13.004 -32.98,17.458c-37.541,14.412 -80.333,12.483 -119.579,7.746c-47.746,-5.767 -111.841,-18.288 -145.041,27.041c-1.58,2.154 -8.363,10.342 -7.588,13.438c0.004,0.021 6.642,26.562 6.642,26.562c-0.592,-2.358 8.633,-10.758 10.329,-12.441c25.458,-25.146 65.233,-30.417 99.146,-24.567c42.354,7.304 84.133,10.267 124.604,-7.242c20.3,-8.783 39.183,-21.308 55.358,-36.116c4.25,-3.888 8.338,-7.967 12.146,-12.3l3.913,-4.734c-2.271,1.775 -4.588,3.5 -6.95,5.154Zm-243.984,39.913l-7.208,-3.45l8.65,-1.654l2.329,-8.254l3.017,7.237l8.642,-1.654l-6.784,6.125l3.017,7.233l-7.204,-3.45l-6.788,6.125l2.329,-8.258Zm65.905,-13l3.024,8.921l9.463,1.237l-7.592,4.275l3.025,8.917l-7.712,-6.279l-7.592,4.271l2.821,-8.155l-7.717,-6.27l9.463,1.237l2.817,-8.154Zm54.666,6.746l3.004,7.579l7.617,0.704l-5.754,3.979l3,7.579l-6.563,-5.12l-5.758,3.979l1.704,-7.138l-6.558,-5.121l7.608,0.709l1.7,-7.15Z" style="fill:url(#_Linear2);fill-rule:nonzero;"/><path d="M1446.28,250.204l46.438,41.038l-60.834,131.304l70.909,-132.184l1.279,-2.129l-57.792,-38.029Z" style="fill:#3bc2f0;fill-rule:nonzero;"/><path d="M1570.46,341.329l104.845,72.8l-114.87,-64.937l10.024,-7.863Z" style="fill:#08c2f2;fill-rule:nonzero;"/><path d="M1531.96,216.342l60.155,-94.492l-47.1,91.771l-13.055,2.721Z" style="fill:#3bc2f0;fill-rule:nonzero;"/><path d="M1445.17,263.508l31.341,31.942l-29.866,69.675l34.891,-69.633l0.892,-1.488l-37.258,-30.496Z" style="fill:#3bc2f0;fill-rule:nonzero;"/><path d="M1553.55,354.079l80.217,47.85l-85.113,-44.216l4.896,-3.634Z" style="fill:#3bc2f0;fill-rule:nonzero;"/><path d="M1518.78,218.654l55.271,-83.158l-49.604,81.996l-5.667,1.162Z" style="fill:#3bc2f0;fill-rule:nonzero;"/></g><g><path d="M590.767,199.4l15.379,0l10.741,28.85l3.851,11.225l0.395,0l3.842,-11.225l10.446,-28.85l15.383,0l0,64.204l-13.608,0l-0,-23.537c-0,-6.3 1.187,-15.655 1.875,-21.863l-0.392,0l-5.225,14.871l-9.958,24.917l-5.817,-0l-9.858,-24.917l-5.125,-14.871l-0.392,0c0.692,6.208 1.871,15.563 1.871,21.863l0,23.537l-13.408,0l-0,-64.204Z" style="fill:#231f20;fill-rule:nonzero;"/><path d="M661.542,199.4l14.496,0l-0,35.942c-0,12.604 3.937,16.937 11.137,16.937c7.196,0 11.433,-4.333 11.433,-16.937l0,-35.942l13.996,0l0,34.463c0,21.566 -8.771,30.92 -25.429,30.92c-16.658,0 -25.633,-9.354 -25.633,-30.92l-0,-34.463Z" style="fill:#231f20;fill-rule:nonzero;"/><path d="M732.521,240.758l-19.325,-41.358l15.479,-0l5.813,14.771c1.679,4.825 3.354,9.254 5.229,14.179l0.391,0c1.775,-4.925 3.646,-9.354 5.425,-14.179l5.713,-14.771l15.183,0l-19.421,41.358l0,22.842l-14.487,0l-0,-22.842Z" style="fill:#231f20;fill-rule:nonzero;"/><rect x="802.304" y="199.396" width="14.588" height="64.204" style="fill:#231f20;"/><path d="M827.933,199.4l14.592,0l0,51.992l25.333,-0l0,12.212l-39.925,0l0,-64.204Z" style="fill:#231f20;fill-rule:nonzero;"/><path d="M870.913,199.4l14.491,0l0,35.942c0,12.604 3.942,16.937 11.138,16.937c7.196,0 11.433,-4.333 11.433,-16.937l0,-35.942l14,0l0,34.463c0,21.566 -8.775,30.92 -25.433,30.92c-16.663,0 -25.629,-9.354 -25.629,-30.92l-0,-34.463Z" style="fill:#231f20;fill-rule:nonzero;"/><path d="M935.875,245.583c4.533,3.942 10.45,6.696 15.771,6.696c6.012,0 8.971,-2.362 8.971,-6.204c-0,-4.037 -3.65,-5.317 -9.267,-7.679l-8.279,-3.546c-6.704,-2.662 -13.013,-8.175 -13.013,-17.529c0,-10.633 9.563,-19.104 22.867,-19.104c7.396,-0 15.183,2.954 20.704,8.471l-7.296,9.154c-4.237,-3.25 -8.279,-5.117 -13.408,-5.117c-4.925,0 -8.179,2.163 -8.179,5.808c-0,3.938 4.242,5.317 9.854,7.58l8.183,3.35c7.788,3.15 12.717,8.37 12.717,17.429c0,10.637 -8.867,19.896 -24.15,19.896c-8.379,-0 -17.25,-3.155 -23.854,-9.259l8.379,-9.946Z" style="fill:#231f20;fill-rule:nonzero;"/><path d="M992.946,211.608l-17.742,0l0,-12.208l49.884,0l-0,12.208l-17.65,0l-0,51.996l-14.492,0l-0,-51.996Z" style="fill:#231f20;fill-rule:nonzero;"/><path d="M1045.68,228.942l7.392,-0c7.592,-0 11.729,-3.25 11.729,-9.554c0,-6.3 -4.137,-8.471 -11.729,-8.471l-7.392,-0l0,18.025Zm20.209,34.662l-12.321,-23.141l-7.888,-0l0,23.141l-14.587,0l-0,-64.208l23.166,-0c13.605,-0 24.838,4.729 24.838,19.992c-0,9.454 -4.633,15.462 -11.433,18.512l14.491,25.704l-16.266,0Z" style="fill:#231f20;fill-rule:nonzero;"/><path d="M1087.78,199.4l40.317,0l-0,12.208l-25.73,0l0,12.9l21.888,0l-0,12.113l-21.888,-0l0,14.771l26.713,-0l-0,12.212l-41.3,0l-0,-64.204Z" style="fill:#231f20;fill-rule:nonzero;"/><path d="M590.767,277.404l15.379,0l10.741,28.854l3.851,11.225l0.395,0l3.842,-11.225l10.446,-28.854l15.383,0l0,64.209l-13.608,-0l-0,-23.538c-0,-6.3 1.187,-15.658 1.875,-21.858l-0.392,-0l-5.225,14.866l-9.958,24.917l-5.817,0l-9.858,-24.917l-5.125,-14.866l-0.392,-0c0.692,6.2 1.871,15.558 1.871,21.858l0,23.538l-13.408,-0l-0,-64.209Z" style="fill:#231f20;fill-rule:nonzero;"/><path d="M661.542,277.404l14.496,0l-0,35.942c-0,12.608 3.937,16.942 11.137,16.942c7.196,-0 11.433,-4.334 11.433,-16.942l0,-35.942l13.996,0l0,34.471c0,21.563 -8.771,30.921 -25.429,30.921c-16.658,-0 -25.633,-9.358 -25.633,-30.921l-0,-34.471Z" style="fill:#231f20;fill-rule:nonzero;"/><path d="M723.25,277.404l14.883,0l16.763,31.904l6.404,14.184l0.392,-0c-0.684,-6.796 -1.871,-15.855 -1.871,-23.438l-0,-22.65l13.804,0l-0,64.208l-14.888,0l-16.758,-32.004l-6.308,-13.983l-0.396,0c0.692,7.087 1.875,15.658 1.875,23.242l-0,22.745l-13.9,0l-0,-64.208Z" style="fill:#231f20;fill-rule:nonzero;"/><rect x="784.758" y="277.404" width="14.587" height="64.204" style="fill:#231f20;"/><path d="M837.988,276.225c7.987,0 14.687,3.937 19.029,8.371l-7.988,8.958c-3.254,-2.954 -6.308,-4.825 -10.841,-4.825c-8.971,0 -15.971,7.779 -15.971,20.679c-0,13.2 6.208,20.879 15.579,20.879c5.321,0 9.062,-2.266 12.221,-5.712l7.983,8.762c-5.325,6.209 -12.421,9.459 -20.404,9.459c-16.658,-0 -30.263,-11.329 -30.263,-32.896c0,-21.267 14.096,-33.675 30.655,-33.675" style="fill:#231f20;fill-rule:nonzero;"/><rect x="863.617" y="277.404" width="14.588" height="64.204" style="fill:#231f20;"/><path d="M911.817,308.325c7.987,0 11.829,-3.546 11.829,-10.237c-0,-6.7 -4.138,-9.163 -11.829,-9.163l-7.984,0l0,19.4l7.984,0Zm-22.571,-30.921l23.458,0c14.004,0 25.138,5.125 25.138,20.684c-0,15.066 -11.529,21.758 -25.138,21.758l-8.871,-0l0,21.767l-14.587,-0l-0,-64.209Z" style="fill:#231f20;fill-rule:nonzero;"/><path d="M967.317,315.025l-1.575,-5.913c-1.775,-6.399 -3.45,-13.979 -5.229,-20.679l-0.396,0c-1.475,6.796 -3.246,14.28 -5.025,20.68l-1.575,5.912l13.8,0Zm2.958,11.325l-19.717,0l-3.941,15.263l-14.788,-0l20.209,-64.209l17.35,0l20.208,64.209l-15.379,-0l-3.942,-15.263Z" style="fill:#231f20;fill-rule:nonzero;"/><path d="M992.354,277.404l14.592,0l-0,51.996l25.333,0l0,12.213l-39.925,-0l0,-64.209Z" style="fill:#231f20;fill-rule:nonzero;"/><rect x="1039.27" y="277.404" width="14.588" height="64.204" style="fill:#231f20;"/><path d="M1082.25,329.892c10.842,-0 18.233,-5.317 18.233,-20.679c0,-15.363 -7.391,-20.088 -18.233,-20.088l-2.762,0l-0,40.767l2.762,-0Zm-17.35,-52.488l18.138,0c19.712,0 32.333,9.75 32.333,31.809c-0,22.062 -12.621,32.395 -31.446,32.395l-19.025,0l0,-64.204Z" style="fill:#231f20;fill-rule:nonzero;"/><path d="M1149.78,315.025l-1.579,-5.913c-1.775,-6.399 -3.45,-13.979 -5.225,-20.679l-0.396,0c-1.475,6.796 -3.25,14.28 -5.025,20.68l-1.579,5.912l13.804,0Zm2.958,11.325l-19.716,0l-3.942,15.263l-14.788,-0l20.209,-64.209l17.35,0l20.208,64.209l-15.379,-0l-3.942,-15.263Z" style="fill:#231f20;fill-rule:nonzero;"/><path d="M1192.16,329.892c10.841,-0 18.233,-5.317 18.233,-20.679c-0,-15.363 -7.392,-20.088 -18.233,-20.088l-2.763,0l0,40.767l2.763,-0Zm-17.35,-52.488l18.137,0c19.717,0 32.333,9.75 32.333,31.809c0,22.062 -12.616,32.395 -31.446,32.395l-19.024,0l-0,-64.204Z" style="fill:#231f20;fill-rule:nonzero;"/><path d="M608.121,407.9c10.842,0 18.233,-5.317 18.233,-20.679c0,-15.363 -7.391,-20.088 -18.233,-20.088l-2.763,0l0,40.767l2.763,0Zm-17.354,-52.487l18.141,-0c19.713,-0 32.334,9.75 32.334,31.808c-0,22.058 -12.621,32.396 -31.446,32.396l-19.029,-0l-0,-64.204Z" style="fill:#231f20;fill-rule:nonzero;"/><path d="M649.317,355.417l40.325,-0l-0,12.204l-25.734,-0l0,12.904l21.884,-0l-0,12.112l-21.884,0l0,14.771l26.717,0l0,12.209l-41.308,-0l-0,-64.2Z" style="fill:#231f20;fill-rule:nonzero;"/><path d="M744.346,354.229c9.071,0 15.671,4.038 20.012,8.371l-7.987,8.963c-3.254,-2.955 -6.308,-4.825 -11.829,-4.825c-9.859,-0 -16.954,7.779 -16.954,20.679c-0,13.195 6.012,20.875 18.137,20.875c2.563,-0 5.229,-0.684 6.804,-1.967l0,-11.029l-10.65,-0l0,-11.813l23.558,0l0,29.538c-4.633,4.037 -12.612,7.779 -21.583,7.779c-17.35,0 -31.15,-11.325 -31.15,-32.892c0,-21.271 14.196,-33.679 31.642,-33.679" style="fill:#231f20;fill-rule:nonzero;"/><path d="M774.208,355.417l14.496,-0l0,35.941c0,12.604 3.942,16.934 11.138,16.934c7.196,-0 11.433,-4.33 11.433,-16.934l0,-35.941l14,-0l0,34.462c0,21.567 -8.775,30.921 -25.433,30.921c-16.663,0 -25.634,-9.354 -25.634,-30.921l0,-34.462Z" style="fill:#231f20;fill-rule:nonzero;"/><path d="M862.042,393.033l-1.579,-5.912c-1.775,-6.4 -3.451,-13.979 -5.221,-20.679l-0.396,-0c-1.483,6.796 -3.254,14.279 -5.029,20.679l-1.579,5.912l13.804,0Zm2.954,11.325l-19.713,0l-3.941,15.263l-14.788,-0l20.204,-64.208l17.354,-0l20.209,64.208l-15.379,-0l-3.946,-15.263Z" style="fill:#231f20;fill-rule:nonzero;"/><path d="M896.346,396.775l-19.321,-41.358l15.479,-0l5.813,14.77c1.679,4.826 3.354,9.255 5.229,14.176l0.391,-0c1.775,-4.921 3.646,-9.35 5.421,-14.176l5.717,-14.77l15.183,-0l-19.42,41.358l-0,22.842l-14.492,-0l-0,-22.842Z" style="fill:#231f20;fill-rule:nonzero;"/><path d="M958.546,393.033l-1.575,-5.912c-1.775,-6.4 -3.45,-13.979 -5.225,-20.679l-0.396,-0c-1.479,6.796 -3.25,14.279 -5.029,20.679l-1.575,5.912l13.8,0Zm2.958,11.325l-19.712,0l-3.942,15.263l-14.787,-0l20.204,-64.208l17.35,-0l20.208,64.208l-15.379,-0l-3.942,-15.263Z" style="fill:#231f20;fill-rule:nonzero;"/><path d="M1008.43,408.292c8.771,-0 14.288,-8.171 14.288,-21.071c-0,-12.8 -5.517,-20.479 -14.288,-20.479c-8.775,-0 -14.296,7.679 -14.296,20.479c0,12.9 5.521,21.071 14.296,21.071m32.525,26.787c-2.366,1.184 -6.408,2.067 -11.333,2.067c-13.604,-0 -23.267,-6.988 -27.8,-17.034c-13.704,-2.854 -22.575,-14.77 -22.575,-32.891c-0,-20.975 11.829,-32.988 29.183,-32.988c17.346,0 29.175,12.109 29.175,32.988c0,17.233 -7.983,28.85 -20.404,32.396c2.958,4.433 8.675,6.008 14.096,6.008c2.758,0 5.225,-0.488 7.1,-1.179l2.558,10.633Z" style="fill:#231f20;fill-rule:nonzero;"/><path d="M1045.68,355.417l14.492,-0l0,35.941c0,12.604 3.942,16.934 11.138,16.934c7.195,-0 11.437,-4.33 11.437,-16.934l0,-35.941l13.996,-0l-0,34.462c-0,21.567 -8.771,30.921 -25.433,30.921c-16.655,0 -25.63,-9.354 -25.63,-30.921l0,-34.462Z" style="fill:#231f20;fill-rule:nonzero;"/><rect x="1107.39" y="355.413" width="14.588" height="64.204" style="fill:#231f20;"/><path d="M1133.02,355.417l14.592,-0l-0,51.991l25.333,0l-0,12.209l-39.925,-0l-0,-64.2Z" style="fill:#231f20;fill-rule:nonzero;"/><path d="M596.375,462.317c5.225,-0 8.096,-2.184 8.096,-6.409c-0,-3.041 -2.096,-4.362 -5.825,-4.362l-3.908,-0l-2.092,10.771l3.729,-0Zm-5.729,-14.679l8.912,-0c5.684,-0 9.775,2.137 9.775,7.587c0,7.771 -5.825,11 -13.37,11l-4.138,0l-2.183,11.129l-4.909,0l5.913,-29.716Z" style="fill:#08c2f1;fill-rule:nonzero;"/><path d="M623.571,463.725c-0,-3.363 -1.363,-5.271 -3.913,-5.271c-3.545,0 -6.862,4.496 -6.862,10.175c-0,3.363 1.362,5.321 3.954,5.321c3.55,0 6.821,-4.5 6.821,-10.225m-15.688,5.088c0,-8.542 6.188,-14.313 12.28,-14.313c5.045,0 8.366,3.496 8.366,9.088c0,8.5 -6.183,14.312 -12.321,14.312c-5.008,0 -8.325,-3.542 -8.325,-9.087" style="fill:#08c2f1;fill-rule:nonzero;"/><path d="M633.808,455.046l3.959,-0l-0.413,4.317l0.184,-0c1.775,-2.771 4.229,-4.863 6.912,-4.863c0.954,0 1.633,0.138 2.229,0.408l-1.637,4.275c-0.546,-0.275 -1.321,-0.362 -2.096,-0.362c-2.088,-0 -4.225,1.633 -6.046,5.037l-2.637,13.496l-4.913,0l4.458,-22.308Z" style="fill:#08c2f1;fill-rule:nonzero;"/><path d="M652.688,465.679c-0,-9.862 6.495,-18.583 16.05,-18.583c3.679,-0 6.275,1.817 7.866,4.542l-3.362,2.587c-1.142,-1.817 -2.596,-2.904 -4.775,-2.904c-6.463,-0 -10.784,7.083 -10.784,13.996c0,4.904 2.005,8.404 7.188,8.404c1.683,-0 3.137,-0.592 4.137,-1.408l1.455,-6.996l-5.505,-0l0.775,-4.004l9.871,-0l-2.683,13.541c-2.183,1.775 -5.275,3.046 -8.863,3.046c-7.233,0 -11.37,-4.679 -11.37,-12.221" style="fill:#08c2f1;fill-rule:nonzero;"/><path d="M694.438,477.354l-3.959,0l0.184,-3.179l-0.184,0c-2.225,2 -4.771,3.725 -7.454,3.725c-3.729,0 -5.321,-2.092 -5.321,-5.633c0,-1.046 0.138,-2 0.367,-3.134l2.821,-14.091l4.858,-0l-2.683,13.454c-0.225,1.041 -0.363,1.679 -0.363,2.362c0,1.904 0.913,2.863 2.775,2.863c1.5,-0 3.275,-1.092 5.504,-3.454l3,-15.225l4.867,-0l-4.412,22.312Z" style="fill:#08c2f1;fill-rule:nonzero;"/><path d="M713.996,470.133l1.821,-8.908c-1.004,-1.908 -2.413,-2.725 -3.775,-2.725c-3.775,0 -7.23,4.858 -7.23,10.583c0,3.271 1.271,4.821 3.317,4.821c1.909,0 4.05,-1.092 5.867,-3.771m-14.234,-0.366c0,-8.542 5.821,-15.267 12.005,-15.267c2.183,-0 4.137,1.229 5.141,3.137l0.088,0l0.958,-2.591l3.904,-0l-4.454,22.308l-4,0l0.229,-3.087l-0.137,-0c-2.092,2.179 -4.821,3.633 -7.367,3.633c-3.908,0 -6.366,-2.908 -6.366,-8.133" style="fill:#08c2f1;fill-rule:nonzero;"/><path d="M718.913,485.717l1.55,-3.546c0.45,0.275 1.041,0.454 1.633,0.454c1.908,0 3.775,-1.637 5.004,-4.137l0.683,-1.363l-3.866,-22.079l4.862,-0l1.409,11.267c0.229,2 0.458,4.591 0.549,6.679l0.18,-0c1,-2.088 2.091,-4.588 3.137,-6.679l5.55,-11.267l4.729,-0l-12.55,23.492c-2.775,4.862 -5.55,7.995 -10.004,7.995c-0.729,0 -2.004,-0.316 -2.866,-0.816" style="fill:#08c2f1;fill-rule:nonzero;"/><path d="M756.388,470.133l1.82,-8.908c-1,-1.908 -2.412,-2.725 -3.771,-2.725c-3.779,0 -7.233,4.858 -7.233,10.583c0,3.271 1.271,4.821 3.321,4.821c1.908,0 4.046,-1.092 5.862,-3.771m-14.233,-0.366c0,-8.542 5.825,-15.267 12.004,-15.267c2.184,-0 4.142,1.229 5.142,3.137l0.092,0l0.958,-2.591l3.904,-0l-4.454,22.308l-4.004,0l0.229,-3.087l-0.133,-0c-2.096,2.179 -4.825,3.633 -7.371,3.633c-3.909,0 -6.367,-2.908 -6.367,-8.133" style="fill:#08c2f1;fill-rule:nonzero;"/><path d="M779.317,470.133l1.816,-8.908c-1,-1.908 -2.408,-2.725 -3.77,-2.725c-3.775,0 -7.234,4.858 -7.234,10.583c0,3.271 1.271,4.821 3.321,4.821c1.725,0 4,-1.092 5.867,-3.771m-0.367,4.088l-0.087,-0c-2.096,2.179 -4.871,3.679 -7.413,3.679c-3.912,-0 -6.371,-2.908 -6.371,-8.133c0,-8.542 5.821,-15.267 12.009,-15.267c2.179,-0 4.137,1.229 5.137,3.137l0.087,0l0.959,-2.591l3.908,-0l-6.229,31.125l-4.908,-0l1.362,-6.634l1.546,-5.316Z" style="fill:#08c2f1;fill-rule:nonzero;"/><path d="M805.283,477.354l-3.958,0l0.183,-3.179l-0.183,0c-2.225,2 -4.771,3.725 -7.454,3.725c-3.729,0 -5.321,-2.092 -5.321,-5.633c0,-1.046 0.138,-2 0.363,-3.134l2.82,-14.091l4.867,-0l-2.683,13.454c-0.23,1.041 -0.363,1.679 -0.363,2.362c0,1.904 0.913,2.863 2.775,2.863c1.496,-0 3.271,-1.092 5.5,-3.454l3.004,-15.225l4.863,-0l-4.413,22.312Z" style="fill:#08c2f1;fill-rule:nonzero;"/><path d="M815.338,448.546c-0,-1.721 1.454,-3.179 3.279,-3.179c1.408,-0 2.771,0.908 2.771,2.546c-0,1.816 -1.455,3.179 -3.275,3.179c-1.409,-0 -2.775,-0.909 -2.775,-2.546m-0.817,6.496l4.862,-0l-4.454,22.312l-4.908,0l4.5,-22.312Z" style="fill:#08c2f1;fill-rule:nonzero;"/><path d="M820.433,474.267c0,-0.684 0.092,-1.413 0.317,-2.363l5.321,-26.625l4.871,0l-5.367,26.846c-0.092,0.458 -0.092,0.683 -0.092,0.867c0,0.683 0.317,0.958 0.775,0.958c0.271,0 0.404,0 0.813,-0.137l-0.088,3.633c-0.683,0.275 -1.546,0.454 -2.775,0.454c-2.591,0 -3.775,-1.363 -3.775,-3.633" style="fill:#08c2f1;fill-rule:nonzero;"/><path d="M843.129,447.638l4.913,-0l-5.913,29.716l-4.912,0l5.912,-29.716Z" style="fill:#08c2f1;fill-rule:nonzero;"/><path d="M851.821,455.046l3.954,-0l-0.229,3.133l0.183,0c2.367,-2 4.867,-3.679 7.688,-3.679c3.725,0 5.271,2.046 5.271,5.637c-0,1.042 -0.092,1.955 -0.363,3.134l-2.821,14.083l-4.862,0l2.725,-13.45c0.183,-1.046 0.366,-1.679 0.366,-2.362c0,-1.909 -0.908,-2.863 -2.816,-2.863c-1.55,0 -3.275,1.046 -5.642,3.454l-3.004,15.221l-4.908,0l4.458,-22.308Z" style="fill:#08c2f1;fill-rule:nonzero;"/><path d="M884.883,470.133l1.821,-8.908c-1,-1.908 -2.412,-2.725 -3.775,-2.725c-3.775,0 -7.229,4.858 -7.229,10.583c0,3.271 1.271,4.821 3.321,4.821c1.904,0 4,-1.092 5.862,-3.771m3.455,-16.95l1.545,-7.904l4.871,0l-6.462,32.075l-4,0l0.229,-3.087l-0.133,-0c-2.096,2.179 -4.825,3.633 -7.371,3.633c-3.909,0 -6.367,-2.908 -6.367,-8.133c0,-8.542 5.821,-15.267 12.004,-15.267c2.184,-0 3.959,1.183 4.917,2.954l0.133,0l0.634,-4.271Z" style="fill:#08c2f1;fill-rule:nonzero;"/><path d="M908.308,464.363c0.138,-0.596 0.225,-1.23 0.225,-1.955c0,-2.183 -0.908,-4.137 -3.637,-4.137c-2.679,-0 -5.363,2.271 -6.454,6.092l9.866,-0Zm-2.821,-9.863c5.188,0 7.096,3.588 7.096,8.225c0,1.954 -0.637,3.996 -0.954,4.725l-13.596,0c-0.5,4.725 2.138,6.725 5.5,6.725c1.592,0 3.321,-0.862 4.55,-1.771l1.813,3.134c-1.813,1.274 -4.454,2.362 -7.638,2.362c-5.316,-0 -8.954,-3.454 -8.954,-9.45c0,-8.313 6.321,-13.95 12.183,-13.95" style="fill:#08c2f1;fill-rule:nonzero;"/><path d="M921.229,461.725l-1.912,9.542c0.958,1.862 2.275,2.633 3.683,2.633c3.775,0 7.275,-4.858 7.275,-10.629c0,-3.229 -1.317,-4.771 -3.362,-4.771c-1.73,0 -4,1.042 -5.684,3.225m-3.683,17.813l-1.275,6.629l-4.867,-0l6.275,-31.121l3.958,-0l-0.091,2.725l0.137,-0c2.138,-1.863 4.684,-3.271 7.23,-3.271c3.954,0 6.366,2.908 6.366,8.133c0,8.542 -5.816,15.267 -11.962,15.267c-2.088,0 -3.863,-1.179 -4.955,-2.908l-0.091,-0l-0.725,4.546Z" style="fill:#08c2f1;fill-rule:nonzero;"/><path d="M951.613,464.363c0.133,-0.596 0.225,-1.23 0.225,-1.955c-0,-2.183 -0.909,-4.137 -3.638,-4.137c-2.683,-0 -5.367,2.271 -6.458,6.092l9.87,-0Zm-2.82,-9.863c5.183,0 7.091,3.588 7.091,8.225c0,1.954 -0.633,3.996 -0.95,4.725l-13.6,0c-0.495,4.725 2.138,6.725 5.505,6.725c1.591,0 3.316,-0.862 4.545,-1.771l1.817,3.134c-1.817,1.274 -4.454,2.362 -7.637,2.362c-5.317,-0 -8.959,-3.454 -8.959,-9.45c0,-8.313 6.321,-13.95 12.188,-13.95" style="fill:#08c2f1;fill-rule:nonzero;"/><path d="M960.938,455.046l3.958,-0l-0.229,3.133l0.183,0c2.363,-2 4.867,-3.679 7.683,-3.679c3.73,0 5.275,2.046 5.275,5.637c0,1.042 -0.091,1.955 -0.362,3.134l-2.821,14.083l-4.867,0l2.73,-13.45c0.183,-1.046 0.366,-1.679 0.366,-2.362c0,-1.909 -0.912,-2.863 -2.821,-2.863c-1.545,0 -3.27,1.046 -5.637,3.454l-3.004,15.221l-4.909,0l4.455,-22.308Z" style="fill:#08c2f1;fill-rule:nonzero;"/><path d="M994.004,470.133l1.817,-8.908c-1,-1.908 -2.408,-2.725 -3.771,-2.725c-3.775,0 -7.229,4.858 -7.229,10.583c-0,3.271 1.271,4.821 3.317,4.821c1.908,0 4.004,-1.092 5.866,-3.771m3.454,-16.95l1.546,-7.904l4.871,0l-6.462,32.075l-4,0l0.229,-3.087l-0.138,-0c-2.091,2.179 -4.821,3.633 -7.366,3.633c-3.909,0 -6.367,-2.908 -6.367,-8.133c-0,-8.542 5.821,-15.267 12.004,-15.267c2.179,-0 3.958,1.183 4.913,2.954l0.137,0l0.633,-4.271Z" style="fill:#08c2f1;fill-rule:nonzero;"/><path d="M1007.24,448.546c-0,-1.721 1.45,-3.179 3.275,-3.179c1.408,-0 2.77,0.908 2.77,2.546c0,1.816 -1.454,3.179 -3.27,3.179c-1.413,-0 -2.775,-0.909 -2.775,-2.546m-0.821,6.496l4.867,-0l-4.455,22.312l-4.912,0l4.5,-22.312Z" style="fill:#08c2f1;fill-rule:nonzero;"/><path d="M1027.02,464.363c0.137,-0.596 0.229,-1.23 0.229,-1.955c0,-2.183 -0.908,-4.137 -3.637,-4.137c-2.684,-0 -5.367,2.271 -6.455,6.092l9.863,-0Zm-2.821,-9.863c5.188,0 7.1,3.588 7.1,8.225c0,1.954 -0.637,3.996 -0.954,4.725l-13.596,0c-0.504,4.725 2.138,6.725 5.496,6.725c1.592,0 3.325,-0.862 4.55,-1.771l1.817,3.134c-1.817,1.274 -4.455,2.362 -7.638,2.362c-5.321,-0 -8.958,-3.454 -8.958,-9.45c-0,-8.313 6.321,-13.95 12.183,-13.95" style="fill:#08c2f1;fill-rule:nonzero;"/><path d="M1036.35,455.046l3.954,-0l-0.229,3.133l0.184,0c2.362,-2 4.862,-3.679 7.683,-3.679c3.729,0 5.275,2.046 5.275,5.637c-0,1.042 -0.088,1.955 -0.363,3.134l-2.82,14.083l-4.863,0l2.725,-13.45c0.183,-1.046 0.363,-1.679 0.363,-2.362c-0,-1.909 -0.905,-2.863 -2.817,-2.863c-1.546,0 -3.275,1.046 -5.638,3.454l-3.004,15.221l-4.908,0l4.458,-22.308Z" style="fill:#08c2f1;fill-rule:nonzero;"/><path d="M1056.59,472.446c-0,-0.909 0.137,-1.725 0.275,-2.634l2.275,-10.904l-3.138,0l0.725,-3.633l3.413,-0.233l1.77,-5.996l4.092,-0l-1.179,5.996l5.362,-0l-0.77,3.866l-5.459,0l-2.271,11.088c-0.091,0.546 -0.137,1.046 -0.137,1.587c-0,1.638 0.729,2.454 2.592,2.454c0.775,0 1.454,-0.27 2.091,-0.587l0.909,3.45c-1.088,0.454 -2.684,1 -4.725,1c-4.188,-0 -5.825,-2.363 -5.825,-5.454" style="fill:#08c2f1;fill-rule:nonzero;"/><path d="M1083.47,464.363c0.137,-0.596 0.225,-1.23 0.225,-1.955c-0,-2.183 -0.909,-4.137 -3.633,-4.137c-2.688,-0 -5.367,2.271 -6.459,6.092l9.867,-0Zm-2.821,-9.863c5.188,0 7.096,3.588 7.096,8.225c-0,1.954 -0.638,3.996 -0.954,4.725l-13.596,0c-0.5,4.725 2.137,6.725 5.5,6.725c1.592,0 3.321,-0.862 4.55,-1.771l1.812,3.134c-1.812,1.274 -4.454,2.362 -7.637,2.362c-5.317,-0 -8.954,-3.454 -8.954,-9.45c-0,-8.313 6.321,-13.95 12.183,-13.95" style="fill:#08c2f1;fill-rule:nonzero;"/><path d="M407.942,375.979l-72.305,-52.533l-72.308,52.533l27.621,-85l-72.308,-52.533l89.375,-0l27.621,-85.004l27.616,85.004l89.371,-0l-72.304,52.533l27.621,85Zm-72.304,-230.229c-72.321,0 -130.946,58.625 -130.946,130.942c-0,72.32 58.625,130.946 130.946,130.946c72.316,-0 130.941,-58.625 130.941,-130.946c0,-72.317 -58.625,-130.942 -130.941,-130.942" style="fill:#08c2f1;fill-rule:nonzero;"/><path d="M335.638,418.85c-78.388,0 -142.159,-63.771 -142.159,-142.158c0,-78.384 63.771,-142.159 142.158,-142.159c78.388,0 142.159,63.775 142.159,142.159c-0,78.387 -63.771,142.158 -142.159,142.158m0,-288.188c-80.52,0 -146.029,65.513 -146.029,146.03c0,80.52 65.509,146.029 146.029,146.029c80.517,-0 146.025,-65.509 146.025,-146.029c0,-80.517 -65.508,-146.03 -146.025,-146.03" style="fill:#08c2f1;fill-rule:nonzero;"/><path d="M363.254,238.446l-27.621,-85.004l-27.616,85.004l-89.375,-0l72.308,52.533l-27.621,85l72.304,-52.533l72.309,52.533l-27.621,-85l72.308,-52.533l-89.375,-0Z" style="fill:#fff;fill-rule:nonzero;"/><path d="M179.158,171.383c-4.095,9.73 -3.316,14.409 -2.508,16.317c-1.954,4.1 -3.75,8.254 -5.4,12.454c0.129,-2.746 -0.033,-6.25 -0.904,-10.425c-0.792,-3.737 -4.917,-12.121 -6.179,-12.092c-2.084,0.038 -2.988,10.271 -2.329,13.563c2.116,10.458 5.395,13.95 7.133,15.1c-1.679,4.75 -3.175,9.55 -4.467,14.396c-0.175,-2.779 -0.729,-6.334 -2.116,-10.5c-1.209,-3.633 -6.275,-11.513 -7.517,-11.35c-2.063,0.283 -1.783,10.562 -0.746,13.771c3.329,10.258 7.021,13.325 8.854,14.245c-1.129,4.909 -2.071,9.85 -2.808,14.817c-0.496,-2.746 -1.454,-6.225 -3.313,-10.221c-1.62,-3.479 -7.546,-10.754 -8.762,-10.446c-2.013,0.517 -0.554,10.717 0.85,13.792c4.454,9.783 8.454,12.442 10.396,13.171c-0.567,4.937 -0.938,9.896 -1.117,14.862c-0.813,-2.641 -2.158,-5.92 -4.4,-9.587c-2.004,-3.279 -8.717,-9.846 -9.892,-9.404c-1.933,0.733 0.692,10.721 2.434,13.625c5.454,9.079 9.679,11.358 11.725,11.916c-0.004,4.863 0.183,9.726 0.55,14.584c-1.113,-2.471 -2.788,-5.45 -5.309,-8.692c-2.366,-3.033 -9.787,-8.821 -10.891,-8.246c-1.838,0.954 1.921,10.6 3.975,13.292c6.316,8.233 10.712,10.133 12.866,10.512c0.525,4.717 1.238,9.417 2.125,14.092c-1.379,-2.25 -3.312,-4.879 -6.033,-7.666c-2.692,-2.755 -10.713,-7.675 -11.75,-6.98c-1.708,1.159 3.129,10.334 5.479,12.779c7.038,7.309 11.563,8.809 13.8,9c1.038,4.517 2.242,9 3.613,13.446c-1.596,-2.004 -3.734,-4.271 -6.58,-6.591c-2.987,-2.442 -11.508,-6.434 -12.454,-5.625c-1.562,1.346 4.288,9.937 6.909,12.104c7.637,6.325 12.254,7.412 14.554,7.4c1.516,4.279 3.187,8.512 5.021,12.696c-1.775,-1.738 -4.075,-3.654 -7.005,-5.538c-3.245,-2.091 -12.158,-5.104 -13,-4.196c-1.395,1.517 5.396,9.405 8.242,11.271c8.146,5.334 12.834,5.971 15.163,5.738c1.975,4.025 4.091,8 6.375,11.908c-1.938,-1.483 -4.371,-3.075 -7.396,-4.579c-3.458,-1.713 -12.642,-3.7 -13.375,-2.704c-1.208,1.662 6.437,8.754 9.471,10.287c8.596,4.342 13.316,4.496 15.625,4.025c2.412,3.742 4.954,7.438 7.666,11.05c-2.075,-1.241 -4.641,-2.529 -7.758,-3.658c-3.629,-1.321 -12.962,-2.267 -13.571,-1.183c-1.012,1.787 7.388,7.979 10.575,9.166c8.975,3.334 13.671,2.971 15.925,2.246c1.384,1.692 2.792,3.371 4.238,5.025c1.529,1.738 3.083,3.433 4.654,5.104c-2.2,-1.004 -4.879,-1.987 -8.1,-2.766c-3.75,-0.9 -13.117,-0.792 -13.6,0.354c-0.792,1.896 8.25,7.112 11.55,7.933c9.233,2.292 13.85,1.429 16.012,0.458c3.209,3.138 6.492,6.146 9.842,9.005c-2.262,-0.73 -4.975,-1.384 -8.175,-1.784c-3.817,-0.475 -13.096,0.692 -13.442,1.879c-0.566,1.984 9,6.155 12.363,6.6c9.321,1.23 13.796,-0.108 15.867,-1.304c3.512,2.733 7.091,5.325 10.729,7.779c-2.3,-0.458 -5.017,-0.787 -8.171,-0.825c-3.85,-0.041 -12.913,2.163 -13.117,3.388c-0.333,2.033 9.629,5.108 13.017,5.171c9.221,0.171 13.517,-1.6 15.475,-3.017c0.137,0.067 0.275,0.129 0.417,0.196l13.812,9.025c0,-0 -10.192,-2.792 -20.408,2.937c-0,0 -3.467,1.242 4.783,3.679c0,0 11.354,3.938 23.279,-2.816l7.15,3.141l0.088,-0.108l0.966,-2.062c0,-0 0.192,0.058 0.513,0.162l0.012,-0.008l-10.904,-5.442c0,0 2.025,-15.341 -11.129,-25.4c0,0 -5.187,8.15 4.058,21.35l-10.595,-6.933l0.004,-0.009l-0.642,-0.408l-0.008,0.013c-1.059,-0.63 -2.121,-1.263 -3.171,-1.925c0.516,-2.621 0.15,-8.938 -0.759,-11.75c-3.237,-10.013 -8.741,-14.292 -8.741,-14.292c-0,-0 -4.559,3.146 0.012,16.854c0.363,1.096 1.367,2.85 2.584,4.608c-3.613,-2.516 -7.163,-5.162 -10.63,-7.95c0.838,-2.495 1.213,-8.891 0.625,-11.812c-2.075,-10.292 -7.062,-15.158 -7.062,-15.158c-0,-0 -4.896,2.612 -1.929,16.725c0.246,1.154 1.075,3.075 2.129,5.008c-3.346,-2.933 -6.583,-6.025 -9.746,-9.229c1.121,-2.384 2.229,-8.684 1.979,-11.65c-0.875,-10.442 -5.279,-15.829 -5.279,-15.829c0,-0 -5.175,2.037 -3.85,16.362c0.108,1.171 0.708,3.154 1.525,5.175c-0.65,-0.725 -1.325,-1.417 -1.971,-2.15c-2.316,-2.633 -4.512,-5.333 -6.654,-8.062c1.392,-2.23 3.225,-8.363 3.317,-11.33c0.333,-10.454 -3.429,-16.287 -3.429,-16.287c-0,-0 -5.392,1.433 -5.717,15.787c-0.029,1.171 0.342,3.205 0.921,5.3c-2.609,-3.633 -5.075,-7.341 -7.4,-11.108c1.641,-2.071 4.162,-7.925 4.596,-10.85c1.537,-10.325 -1.538,-16.537 -1.538,-16.537c0,-0 -5.521,0.812 -7.504,15.012c-0.163,1.146 -0.033,3.183 0.296,5.308c-2.167,-3.883 -4.184,-7.829 -6.054,-11.825c1.87,-1.883 5.033,-7.375 5.804,-10.22c2.721,-10.063 0.379,-16.567 0.379,-16.567c-0,-0 -5.6,0.179 -9.208,14.029c-0.292,1.117 -0.396,3.113 -0.317,5.233c-1.696,-4.07 -3.242,-8.191 -4.642,-12.35c2.084,-1.675 5.842,-6.741 6.929,-9.462c3.875,-9.671 2.292,-16.388 2.292,-16.388c0,0 -5.596,-0.458 -10.783,12.884c-0.413,1.062 -0.746,3.016 -0.913,5.116c-1.216,-4.22 -2.283,-8.47 -3.204,-12.741c2.267,-1.425 6.596,-6.021 7.996,-8.604c4.962,-9.159 4.162,-15.992 4.162,-15.992c0,-0 -5.508,-1.079 -12.212,11.55c-0.538,1.012 -1.1,2.929 -1.508,5c-0.738,-4.313 -1.33,-8.646 -1.763,-12.988c2.4,-1.129 7.296,-5.245 8.996,-7.658c6,-8.517 5.987,-15.392 5.987,-15.392c0,0 -5.358,-1.691 -13.487,10.084c-0.663,0.962 -1.463,2.854 -2.117,4.912c-0.254,-4.396 -0.354,-8.791 -0.3,-13.187c2.479,-0.788 7.929,-4.367 9.921,-6.6c6.954,-7.763 7.733,-14.579 7.733,-14.579c0,-0 -5.137,-2.284 -14.587,8.475c-0.813,0.92 -1.888,2.841 -2.804,4.925c0.241,-4.475 0.637,-8.938 1.196,-13.384c2.466,-0.395 8.504,-3.416 10.795,-5.446c7.809,-6.925 9.371,-13.595 9.371,-13.595c0,-0 -4.846,-2.842 -15.491,6.766c-0.988,0.884 -2.409,2.888 -3.621,5.021c0.754,-4.554 1.675,-9.087 2.766,-13.579c2.338,0.017 9.009,-2.387 11.596,-4.192c8.575,-5.983 10.896,-12.425 10.896,-12.425c0,0 -4.5,-3.358 -16.2,4.963c-1.179,0.837 -3.033,2.933 -4.575,5.121c1.308,-4.634 2.796,-9.221 4.467,-13.75c2.012,0.454 9.375,-1.242 12.275,-2.809c9.225,-4.958 12.275,-11.083 12.275,-11.083c-0,0 -4.092,-3.846 -16.696,3.088c-1.392,0.762 -3.767,2.933 -5.654,5.137c1.191,-2.912 2.437,-5.817 3.779,-8.675c1.025,-0.783 5.908,-4.854 9.604,-13.821c1.438,-3.504 2.696,-12.671 1.625,-13.341c-0.117,-0.071 -0.254,-0.105 -0.404,-0.105c-2.2,0 -7.975,7.1 -9.192,9.975Z" style="fill:url(#_Linear3);fill-rule:nonzero;"/><path d="M482.517,161.513c-1.071,0.67 0.183,9.837 1.621,13.341c3.7,8.967 8.583,13.038 9.608,13.821c1.346,2.858 2.587,5.762 3.779,8.675c-1.887,-2.204 -4.262,-4.375 -5.654,-5.138c-12.604,-6.933 -16.696,-3.087 -16.696,-3.087c0,0 3.054,6.125 12.275,11.083c2.9,1.567 10.262,3.263 12.275,2.809c1.675,4.529 3.158,9.116 4.463,13.75c-1.538,-2.188 -3.392,-4.284 -4.575,-5.121c-11.7,-8.321 -16.196,-4.963 -16.196,-4.963c-0,0 2.321,6.442 10.896,12.425c2.587,1.804 9.258,4.209 11.595,4.192c1.088,4.492 2.013,9.025 2.767,13.579c-1.212,-2.133 -2.633,-4.137 -3.621,-5.021c-10.646,-9.608 -15.496,-6.766 -15.496,-6.766c0,-0 1.563,6.67 9.38,13.595c2.287,2.03 8.325,5.05 10.791,5.446c0.559,4.446 0.959,8.909 1.196,13.384c-0.917,-2.084 -1.992,-4.005 -2.8,-4.925c-9.454,-10.759 -14.592,-8.475 -14.592,-8.475c0,-0 0.78,6.816 7.734,14.579c1.991,2.233 7.441,5.812 9.921,6.6c0.054,4.396 -0.046,8.791 -0.305,13.187c-0.65,-2.058 -1.454,-3.95 -2.116,-4.912c-8.125,-11.775 -13.488,-10.084 -13.488,-10.084c0,0 -0.008,6.875 5.992,15.392c1.696,2.413 6.592,6.529 9,7.658c-0.438,4.342 -1.029,8.675 -1.767,12.988c-0.408,-2.071 -0.971,-3.988 -1.508,-5c-6.704,-12.629 -12.213,-11.55 -12.213,-11.55c0,-0 -0.8,6.833 4.163,15.992c1.4,2.583 5.729,7.179 7.996,8.604c-0.921,4.271 -1.988,8.521 -3.204,12.741c-0.167,-2.1 -0.5,-4.054 -0.913,-5.116c-5.192,-13.342 -10.783,-12.884 -10.783,-12.884c-0,0 -1.584,6.717 2.291,16.388c1.088,2.721 4.85,7.787 6.93,9.462c-1.4,4.159 -2.946,8.28 -4.642,12.35c0.079,-2.12 -0.029,-4.116 -0.313,-5.233c-3.612,-13.85 -9.212,-14.029 -9.212,-14.029c-0,-0 -2.342,6.504 0.379,16.567c0.767,2.845 3.938,8.337 5.804,10.22c-1.875,3.996 -3.887,7.942 -6.054,11.825c0.325,-2.125 0.458,-4.162 0.296,-5.308c-1.983,-14.2 -7.509,-15.012 -7.509,-15.012c0,-0 -3.07,6.212 -1.537,16.537c0.438,2.925 2.962,8.779 4.6,10.85c-2.325,3.767 -4.792,7.475 -7.4,11.108c0.579,-2.095 0.95,-4.129 0.921,-5.3c-0.325,-14.354 -5.717,-15.787 -5.717,-15.787c0,-0 -3.762,5.833 -3.429,16.287c0.092,2.967 1.925,9.1 3.317,11.33c-2.142,2.729 -4.338,5.429 -6.655,8.062c-0.645,0.733 -1.32,1.425 -1.97,2.15c0.816,-2.021 1.412,-4.004 1.525,-5.175c1.325,-14.325 -3.85,-16.362 -3.85,-16.362c-0,-0 -4.404,5.387 -5.279,15.829c-0.25,2.966 0.862,9.266 1.979,11.65c-3.163,3.204 -6.405,6.296 -9.746,9.229c1.05,-1.933 1.883,-3.854 2.125,-5.008c2.971,-14.113 -1.925,-16.725 -1.925,-16.725c-0,-0 -4.988,4.866 -7.063,15.158c-0.587,2.921 -0.212,9.317 0.625,11.812c-3.466,2.788 -7.012,5.434 -10.633,7.95c1.225,-1.758 2.221,-3.512 2.587,-4.608c4.571,-13.708 0.009,-16.854 0.009,-16.854c-0,-0 -5.5,4.279 -8.738,14.292c-0.908,2.812 -1.279,9.129 -0.758,11.75c-1.05,0.662 -2.113,1.295 -3.171,1.925l-0.008,-0.013l-0.442,0.288c-0.067,0.037 -0.129,0.083 -0.2,0.12l0.004,0.009l-10.596,6.933c9.242,-13.2 4.055,-21.35 4.055,-21.35c-13.15,10.058 -11.125,25.4 -11.125,25.4l-10.905,5.442l1.575,2.016l7.155,-3.141c11.925,6.754 23.275,2.816 23.275,2.816c8.254,-2.437 4.787,-3.679 4.787,-3.679c-10.216,-5.729 -20.412,-2.937 -20.412,-2.937l13.816,-9.025c0.142,-0.067 0.279,-0.129 0.417,-0.196c1.962,1.417 6.25,3.187 15.471,3.017c3.391,-0.063 13.35,-3.138 13.021,-5.171c-0.205,-1.225 -9.267,-3.429 -13.113,-3.388c-3.158,0.038 -5.879,0.367 -8.175,0.825c3.638,-2.454 7.217,-5.046 10.729,-7.779c2.067,1.196 6.546,2.533 15.867,1.304c3.362,-0.446 12.929,-4.616 12.358,-6.6c-0.337,-1.187 -9.621,-2.354 -13.441,-1.879c-3.2,0.4 -5.913,1.054 -8.171,1.784c3.35,-2.859 6.629,-5.867 9.841,-9.005c2.159,0.971 6.784,1.834 16.017,-0.458c3.296,-0.821 12.333,-6.037 11.546,-7.933c-0.483,-1.146 -9.85,-1.255 -13.6,-0.354c-3.221,0.779 -5.904,1.762 -8.1,2.766c1.567,-1.671 3.121,-3.367 4.65,-5.104c1.454,-1.654 2.858,-3.333 4.246,-5.025c2.246,0.725 6.941,1.087 15.921,-2.246c3.187,-1.187 11.583,-7.379 10.575,-9.167c-0.609,-1.083 -9.942,-0.137 -13.571,1.184c-3.121,1.129 -5.679,2.416 -7.759,3.658c2.713,-3.612 5.25,-7.308 7.667,-11.05c2.313,0.471 7.034,0.317 15.621,-4.025c3.033,-1.533 10.679,-8.625 9.475,-10.287c-0.733,-0.996 -9.917,0.991 -13.375,2.704c-3.021,1.504 -5.463,3.096 -7.396,4.579c2.284,-3.908 4.4,-7.883 6.379,-11.908c2.325,0.233 7.013,-0.405 15.159,-5.738c2.846,-1.867 9.637,-9.754 8.241,-11.271c-0.846,-0.908 -9.754,2.104 -13,4.196c-2.929,1.883 -5.229,3.8 -7.008,5.538c1.837,-4.184 3.508,-8.417 5.021,-12.696c2.304,0.012 6.925,-1.075 14.558,-7.4c2.621,-2.167 8.471,-10.759 6.904,-12.104c-0.946,-0.809 -9.462,3.183 -12.45,5.625c-2.846,2.32 -4.987,4.587 -6.583,6.591c1.375,-4.446 2.579,-8.929 3.617,-13.446c2.237,-0.191 6.762,-1.691 13.8,-9c2.354,-2.445 7.187,-11.62 5.479,-12.779c-1.038,-0.696 -9.054,4.225 -11.754,6.979c-2.721,2.788 -4.65,5.417 -6.03,7.667c0.884,-4.675 1.596,-9.375 2.125,-14.092c2.15,-0.379 6.55,-2.279 12.867,-10.512c2.058,-2.692 5.813,-12.338 3.975,-13.292c-1.104,-0.575 -8.525,5.213 -10.892,8.246c-2.52,3.242 -4.195,6.221 -5.304,8.692c0.363,-4.859 0.55,-9.721 0.542,-14.584c2.054,-0.558 6.275,-2.837 11.729,-11.916c1.742,-2.904 4.367,-12.892 2.433,-13.625c-1.175,-0.442 -7.887,6.125 -9.887,9.404c-2.25,3.667 -3.588,6.946 -4.404,9.587c-0.179,-4.966 -0.55,-9.925 -1.117,-14.862c1.942,-0.729 5.938,-3.388 10.396,-13.171c1.404,-3.075 2.862,-13.275 0.85,-13.792c-1.217,-0.308 -7.142,6.967 -8.763,10.446c-1.858,3.996 -2.816,7.475 -3.308,10.221c-0.742,-4.967 -1.683,-9.908 -2.817,-14.817c1.838,-0.92 5.53,-3.987 8.859,-14.245c1.041,-3.209 1.316,-13.488 -0.75,-13.771c-1.242,-0.163 -6.309,7.716 -7.517,11.35c-1.387,4.166 -1.937,7.721 -2.117,10.5c-1.287,-4.846 -2.783,-9.646 -4.462,-14.396c1.737,-1.15 5.017,-4.642 7.129,-15.1c0.658,-3.292 -0.242,-13.525 -2.329,-13.563c-1.254,-0.029 -5.383,8.355 -6.175,12.092c-0.871,4.175 -1.033,7.679 -0.908,10.425c-1.646,-4.2 -3.442,-8.354 -5.4,-12.454c0.816,-1.908 1.591,-6.588 -2.505,-16.317c-1.216,-2.875 -6.991,-9.975 -9.191,-9.975c-0.154,0 -0.288,0.034 -0.404,0.104Z" style="fill:url(#_Linear4);fill-rule:nonzero;"/><path d="M357.979,454.571l-2.379,2.229c0,0 16.033,-1.2 34.417,-7.583l-0.892,-2.159c0,0 -26.396,7.105 -31.146,7.513Z" style="fill:url(#_Linear5);fill-rule:nonzero;"/><path d="M279.167,448.379l-0.025,0.05c18.075,7.225 40.233,10.534 40.233,10.534l-4.538,-2.542c-4.37,-0.583 -30.254,-8.7 -34.191,-9.942l-1.479,1.9Z" style="fill:url(#_Linear6);fill-rule:nonzero;"/><path d="M279.167,448.379l1.479,-1.9c-0.321,-0.104 -0.513,-0.162 -0.513,-0.162l-0.966,2.062Z" style="fill:url(#_Linear7);fill-rule:nonzero;"/><path d="M379.325,440.192l-2.562,0.408l-0.775,0.346c3.366,0.117 5.945,0.741 5.945,0.741c9.567,2.309 8.463,13.355 8.463,13.355c-0.946,9.462 -11.358,8.516 -11.358,8.516c-15.563,-2 -23.284,-6.75 -23.284,-6.75l-9.737,6.013c-0,-0 24.608,5.783 36.283,2.733c11.675,-3.046 14.038,-14.171 10.167,-20.683c-2.479,-4.159 -7.379,-4.871 -10.446,-4.871c-1.596,-0 -2.696,0.192 -2.696,0.192Z" style="fill:url(#_Radial8);fill-rule:nonzero;"/><path d="M360.354,445.221c-9.112,4.629 -18.508,11.925 -18.508,11.925l-0,7.008c2.662,4.35 17.671,-10.937 17.671,-10.937c15.141,-13.042 23.046,-13.209 23.046,-13.209c-12.459,0 -22.209,5.213 -22.209,5.213Z" style="fill:url(#_Linear9);fill-rule:nonzero;"/><path d="M275.238,449.763c-0.163,0.974 -0.213,1.983 -0.155,2.974c0.409,6.592 5.829,11.946 11.784,14.051c5.575,1.97 11.596,1.55 17.395,1.266c8.73,-0.416 21.142,-0.9 21.142,-0.9l3.108,-3.621l-5.212,-4.625c-6.5,-0.321 -12.446,0.567 -18.742,2.117c-6.196,1.521 -12.8,3.012 -19.016,0.721c-7.992,-2.942 -8.413,-9.571 -6.309,-13.25c2.104,-3.684 5.642,-4.142 5.642,-4.142l-3.45,-0.362l-0.2,-0c-4.929,-0 -5.988,5.77 -5.988,5.77Z" style="fill:url(#_Radial10);fill-rule:nonzero;"/><path d="M279.15,444.379c-0,0 8.075,-2.196 27.217,7.588c-0,-0 7.154,2.941 19.037,11.987l7.654,1.2l5.409,-2.871c-0,0 -21.054,-15.112 -35.046,-18.183c-5.396,-1.183 -9.683,-1.613 -13.133,-1.613c-5.488,0 -8.842,1.08 -11.138,1.892Z" style="fill:url(#_Linear11);fill-rule:nonzero;"/><path d="M320.338,467.329c-7.288,9.263 -14.875,21.154 -17.963,37.296c-0.292,1.492 -0.629,3.417 -0.917,5.738c-0.237,1.887 -0.441,3.979 -0.566,6.32l-0.042,0.142c-0,0 -0.058,1.963 -0.058,4.363c-0,0.537 -0,1.083 0.008,1.645c0.017,1.721 0.075,3.492 0.208,4.855l0,0.012l0.004,0l3.663,-1.262c-0.417,-2.471 -0.792,-4.951 -1.125,-7.421c-0.167,-1.25 -0.342,-2.505 -0.517,-3.755c0.009,-0.154 0.009,-0.304 0.004,-0.445c0.025,-7.117 1.963,-13.154 5.109,-19.121c3.621,-6.871 8.512,-12.95 14.05,-18.375c0.058,-0.058 0.116,-0.117 0.175,-0.175c4.012,-3.913 8.529,-7.421 12.287,-11.588c0.754,-0.841 1.475,-1.737 1.979,-2.75l2,-3.995c0,-0 -1.254,-0.55 -3.337,-0.55c-3.388,-0.005 -8.975,1.45 -14.963,9.066Z" style="fill:url(#_Linear12);fill-rule:nonzero;"/><path d="M373.533,489.429c0.854,3.396 1.525,9.858 0.009,21.571l-0.005,-0c-0.445,5.908 -1.254,12.9 -2.608,21.087l6.35,0.746c1.813,-18.62 1.8,-38.883 -4.729,-49.033c-0,-0 0.554,1.733 0.983,5.629Z" style="fill:url(#_Linear13);fill-rule:nonzero;"/><path d="M341.004,459.125l0,6.308c0,-0.166 6.671,1.505 7.029,1.63c5.271,1.791 10.246,4.525 14.579,8.012c3.6,2.896 7.1,6.113 9.534,10.992c0.004,-0 1.458,2.941 1.891,6.012l3.238,6.004c-0.475,-2.866 -1.192,-5.679 -1.892,-8.5c-0.241,-0.979 -0.537,-1.95 -0.866,-2.912c-0.488,-1.425 -1.055,-2.829 -1.688,-4.196c-0.8,-1.725 -1.712,-3.396 -2.725,-5c-1.183,-1.875 -2.504,-3.663 -3.967,-5.325c-1.641,-1.879 -3.458,-3.608 -5.42,-5.158c-2.2,-1.738 -4.58,-3.242 -7.084,-4.5c-2.854,-1.438 -5.866,-2.55 -8.958,-3.367l-3.671,-0Z" style="fill:url(#_Radial14);fill-rule:nonzero;"/><g><g><clipPath id="_clip15"><path d="M333.921,461.338c-0.158,2.166 -1.5,7.212 0.937,7.895c2.43,0.684 5.792,0.159 7.317,-1.995c1.525,-2.159 1.896,-3.996 1.896,-3.996l-3.263,-3.996l-5.496,-1.238c0,0 -1.233,1.159 -1.391,3.329Z"/></clipPath><g clip-path="url(#_clip15)"><rect x="332.425" y="458.008" width="11.646" height="11.913" style="fill:#e02428;"/><path d="M344.908,458.362l0,12.396l0.938,0.159c-2.821,0.87 -6.321,0.846 -9.838,-0.275c-3.512,-1.125 -6.383,-3.138 -8.17,-5.475l3.745,-0l0,-7.471l-5.47,-0c0.783,-2.45 2.916,-4.217 5.737,-5.084l0,4.555l9.833,-0l0,-4.28c3.517,1.121 6.384,3.134 8.171,5.475l-4.946,0Z" style="fill:#e02428;fill-rule:nonzero;"/><path d="M344.908,458.413l0,12.345l0.834,0.025c-2.779,0.855 -6.225,0.834 -9.692,-0.275c-3.467,-1.104 -6.287,-3.087 -8.05,-5.396l3.583,0l0,-7.358l-5.283,0c0.771,-2.417 2.875,-4.154 5.65,-5.008l0,4.421l9.688,-0l-0,-4.15c3.466,1.108 6.291,3.087 8.054,5.396l-4.784,-0Z" style="fill:#df2428;fill-rule:nonzero;"/><path d="M344.908,458.462l0,12.188l0.734,0c-2.738,0.846 -6.134,0.821 -9.546,-0.271c-3.413,-1.087 -6.2,-3.041 -7.933,-5.312l3.42,-0l0,-7.254l-5.095,-0c0.758,-2.38 2.829,-4.092 5.566,-4.938l0,4.292l9.546,-0l0,-4.021c3.413,1.092 6.192,3.046 7.933,5.317l-4.625,-0Z" style="fill:#dd2328;fill-rule:nonzero;"/><path d="M344.908,458.513l0,12l0.63,-0c-2.696,0.833 -6.042,0.812 -9.4,-0.263c-3.367,-1.075 -6.105,-2.996 -7.817,-5.233l3.262,-0l0,-7.142l-4.908,0c0.746,-2.346 2.788,-4.029 5.483,-4.863l0,4.155l9.4,-0l0,-3.892c3.359,1.075 6.1,3 7.813,5.238l-4.463,-0Z" style="fill:#db2328;fill-rule:nonzero;"/><path d="M344.908,458.563l0,11.816l0.525,0c-2.654,0.817 -5.945,0.796 -9.258,-0.262c-3.308,-1.054 -6.004,-2.95 -7.692,-5.154l3.1,-0l0,-7.03l-4.72,0c0.737,-2.308 2.745,-3.966 5.395,-4.787l0,4.021l9.259,-0l-0,-3.759c3.308,1.055 6.004,2.95 7.691,5.155l-4.3,-0Z" style="fill:#db2328;fill-rule:nonzero;"/><path d="M350.646,465.533c-1.454,4.542 -7.913,6.538 -14.429,4.454c-3.255,-1.041 -5.913,-2.904 -7.571,-5.075l2.937,0l0,-6.92l-4.533,-0c1.45,-4.538 7.908,-6.534 14.421,-4.455c3.258,1.042 5.912,2.905 7.575,5.075l-4.138,0l0,6.921l5.738,0Z" style="fill:#d82229;fill-rule:nonzero;"/><path d="M350.458,465.471c-1.429,4.471 -7.787,6.433 -14.2,4.387c-6.408,-2.05 -10.45,-7.333 -9.021,-11.804c1.43,-4.471 7.784,-6.433 14.196,-4.387c3.204,1.029 5.817,2.862 7.45,4.995l-3.975,0l0,6.809l5.55,-0Z" style="fill:#d62428;fill-rule:nonzero;"/><path d="M350.271,465.413c-1.404,4.399 -7.658,6.329 -13.967,4.312c-6.308,-2.013 -10.283,-7.212 -8.879,-11.613c1.404,-4.4 7.658,-6.329 13.967,-4.312c3.15,1.008 5.725,2.813 7.333,4.913l-3.817,-0l0,6.7l5.363,-0Z" style="fill:#d52428;fill-rule:nonzero;"/><path d="M350.083,465.354c-1.383,4.325 -7.537,6.225 -13.737,4.242c-6.208,-1.979 -10.117,-7.096 -8.733,-11.421c1.383,-4.329 7.529,-6.229 13.737,-4.242c3.1,0.988 5.629,2.763 7.208,4.83l-3.65,-0l0,6.591l5.175,0Z" style="fill:#d32228;fill-rule:nonzero;"/><path d="M349.896,465.292c-1.358,4.254 -7.409,6.12 -13.513,4.175c-6.1,-1.95 -9.946,-6.98 -8.583,-11.234c1.358,-4.254 7.404,-6.12 13.504,-4.171c3.054,0.975 5.542,2.717 7.092,4.75l-3.488,0l0,6.48l4.988,-0Z" style="fill:#d22329;fill-rule:nonzero;"/><path d="M349.708,465.233c-1.337,4.184 -7.283,6.021 -13.279,4.1c-6,-1.912 -9.779,-6.858 -8.446,-11.037c1.342,-4.184 7.284,-6.021 13.284,-4.104c3,0.958 5.441,2.675 6.971,4.675l-3.33,-0l0,6.366l4.8,0Z" style="fill:#d12028;fill-rule:nonzero;"/><path d="M349.521,465.175c-1.313,4.108 -7.159,5.912 -13.054,4.029c-5.892,-1.883 -9.609,-6.741 -8.296,-10.85c1.317,-4.108 7.158,-5.916 13.05,-4.033c2.95,0.946 5.35,2.629 6.854,4.592l-3.167,-0l0,6.262l4.613,0Z" style="fill:#d02329;fill-rule:nonzero;"/><path d="M349.333,465.113c-1.291,4.037 -7.029,5.812 -12.82,3.962c-5.796,-1.85 -9.442,-6.625 -8.155,-10.662c1.292,-4.038 7.034,-5.809 12.825,-3.959c5.792,1.85 9.438,6.621 8.15,10.658" style="fill:#cd2028;fill-rule:nonzero;"/><path d="M349.146,465.054c-1.267,3.963 -6.909,5.709 -12.592,3.888c-5.692,-1.817 -9.275,-6.504 -8.008,-10.467c1.271,-3.967 6.904,-5.708 12.596,-3.892c5.683,1.817 9.27,6.505 8.004,10.471" style="fill:#cc2027;fill-rule:nonzero;"/><path d="M348.958,464.996c-1.246,3.892 -6.779,5.6 -12.362,3.817c-5.588,-1.788 -9.104,-6.388 -7.863,-10.28c1.246,-3.896 6.779,-5.604 12.363,-3.816c5.587,1.783 9.108,6.383 7.862,10.279" style="fill:#cb2327;fill-rule:nonzero;"/><path d="M348.771,464.933c-1.221,3.821 -6.654,5.5 -12.138,3.75c-5.479,-1.754 -8.933,-6.266 -7.712,-10.091c1.225,-3.821 6.654,-5.5 12.133,-3.746c5.484,1.75 8.938,6.267 7.717,10.087" style="fill:#c92327;fill-rule:nonzero;"/><path d="M348.583,464.875c-1.2,3.75 -6.529,5.396 -11.908,3.675c-5.379,-1.717 -8.767,-6.15 -7.567,-9.896c1.2,-3.754 6.529,-5.4 11.909,-3.679c5.375,1.717 8.762,6.15 7.566,9.9" style="fill:#c72326;fill-rule:nonzero;"/><path d="M348.396,464.817c-1.175,3.675 -6.404,5.287 -11.679,3.604c-5.271,-1.688 -8.596,-6.029 -7.421,-9.708c1.175,-3.675 6.4,-5.292 11.679,-3.609c5.275,1.688 8.596,6.034 7.421,9.713" style="fill:#c62326;fill-rule:nonzero;"/><path d="M348.208,464.754c-1.15,3.604 -6.279,5.188 -11.446,3.538c-5.17,-1.655 -8.433,-5.913 -7.279,-9.521c1.154,-3.604 6.28,-5.188 11.446,-3.533c5.171,1.65 8.429,5.912 7.279,9.516" style="fill:#c52326;fill-rule:nonzero;"/><path d="M348.021,464.696c-1.129,3.533 -6.15,5.083 -11.217,3.462c-5.071,-1.616 -8.262,-5.796 -7.133,-9.329c1.129,-3.529 6.15,-5.079 11.216,-3.462c5.071,1.62 8.263,5.796 7.134,9.329" style="fill:#c32326;fill-rule:nonzero;"/><path d="M347.833,464.633c-1.104,3.463 -6.025,4.98 -10.991,3.396c-4.963,-1.587 -8.092,-5.679 -6.984,-9.137c1.104,-3.463 6.025,-4.979 10.992,-3.396c4.962,1.587 8.092,5.679 6.983,9.137" style="fill:#c22026;fill-rule:nonzero;"/><path d="M347.646,464.575c-1.084,3.388 -5.9,4.879 -10.758,3.325c-4.863,-1.554 -7.925,-5.558 -6.842,-8.946c1.083,-3.391 5.9,-4.883 10.762,-3.325c4.859,1.55 7.921,5.554 6.838,8.946" style="fill:#c12026;fill-rule:nonzero;"/><path d="M347.458,464.517c-1.058,3.312 -5.775,4.775 -10.533,3.25c-4.754,-1.517 -7.754,-5.442 -6.692,-8.759c1.059,-3.312 5.775,-4.77 10.534,-3.25c4.754,1.521 7.754,5.442 6.691,8.759" style="fill:#be2026;fill-rule:nonzero;"/><path d="M347.275,464.454c-1.037,3.246 -5.654,4.671 -10.304,3.183c-4.654,-1.483 -7.588,-5.32 -6.55,-8.566c1.037,-3.242 5.65,-4.671 10.3,-3.179c4.654,1.483 7.587,5.32 6.554,8.562" style="fill:#bd2026;fill-rule:nonzero;"/><path d="M347.088,464.396c-1.017,3.171 -5.53,4.567 -10.076,3.112c-4.549,-1.454 -7.416,-5.204 -6.404,-8.379c1.013,-3.171 5.525,-4.562 10.071,-3.112c4.554,1.458 7.417,5.204 6.408,8.379" style="fill:#bb2025;fill-rule:nonzero;"/><path d="M346.9,464.338c-0.992,3.1 -5.4,4.462 -9.846,3.037c-4.45,-1.417 -7.25,-5.083 -6.262,-8.188c0.991,-3.095 5.4,-4.458 9.846,-3.037c4.45,1.421 7.249,5.088 6.262,8.188" style="fill:#ba2025;fill-rule:nonzero;"/><path d="M346.713,464.275c-0.967,3.029 -5.276,4.358 -9.621,2.971c-4.342,-1.388 -7.079,-4.967 -6.113,-7.996c0.971,-3.029 5.275,-4.354 9.621,-2.971c4.342,1.392 7.079,4.967 6.113,7.996" style="fill:#ba2025;fill-rule:nonzero;"/><path d="M346.525,464.217c-0.946,2.954 -5.15,4.254 -9.392,2.9c-4.237,-1.354 -6.908,-4.85 -5.962,-7.809c0.941,-2.954 5.146,-4.25 9.387,-2.895c4.238,1.354 6.909,4.845 5.967,7.804" style="fill:#b82026;fill-rule:nonzero;"/><path d="M346.337,464.158c-0.92,2.884 -5.024,4.15 -9.158,2.829c-4.137,-1.325 -6.746,-4.733 -5.821,-7.616c0.917,-2.883 5.017,-4.15 9.155,-2.829c4.137,1.32 6.745,4.733 5.825,7.616" style="fill:#b52226;fill-rule:nonzero;"/><path d="M346.15,464.096c-0.896,2.812 -4.9,4.046 -8.929,2.758c-4.034,-1.291 -6.575,-4.612 -5.679,-7.425c0.9,-2.812 4.9,-4.046 8.929,-2.754c4.037,1.283 6.575,4.608 5.679,7.421" style="fill:#b52226;fill-rule:nonzero;"/><path d="M345.963,464.038c-0.875,2.737 -4.771,3.941 -8.7,2.687c-3.934,-1.258 -6.405,-4.496 -5.534,-7.233c0.875,-2.742 4.771,-3.946 8.7,-2.692c3.934,1.258 6.409,4.496 5.534,7.237" style="fill:#b32226;fill-rule:nonzero;"/><path d="M345.775,463.979c-0.85,2.667 -4.646,3.838 -8.471,2.613c-3.825,-1.221 -6.237,-4.375 -5.387,-7.042c0.85,-2.671 4.645,-3.837 8.475,-2.617c3.825,1.221 6.233,4.38 5.383,7.046" style="fill:#b32125;fill-rule:nonzero;"/><path d="M345.588,463.917c-0.83,2.596 -4.521,3.737 -8.242,2.546c-3.725,-1.192 -6.071,-4.259 -5.242,-6.855c0.829,-2.595 4.521,-3.733 8.246,-2.545c3.721,1.191 6.067,4.258 5.238,6.854" style="fill:#b22125;fill-rule:nonzero;"/><path d="M345.4,463.858c-0.804,2.521 -4.392,3.634 -8.012,2.471c-3.621,-1.15 -5.901,-4.137 -5.096,-6.658c0.804,-2.525 4.391,-3.633 8.012,-2.479c3.621,1.158 5.904,4.141 5.096,6.666" style="fill:#b11f25;fill-rule:nonzero;"/><path d="M345.213,463.796c-0.784,2.454 -4.271,3.529 -7.784,2.404c-3.516,-1.121 -5.733,-4.017 -4.95,-6.471c0.784,-2.45 4.271,-3.525 7.783,-2.408c3.517,1.129 5.734,4.025 4.95,6.475" style="fill:#b01f24;fill-rule:nonzero;"/><path d="M345.025,463.738c-0.758,2.379 -4.142,3.425 -7.554,2.333c-3.413,-1.088 -5.563,-3.904 -4.804,-6.284c0.758,-2.379 4.141,-3.425 7.558,-2.333c3.412,1.092 5.558,3.904 4.8,6.284" style="fill:#af1f24;fill-rule:nonzero;"/><path d="M344.838,463.679c-0.738,2.304 -4.017,3.321 -7.325,2.263c-3.309,-1.059 -5.396,-3.788 -4.659,-6.092c0.733,-2.308 4.017,-3.325 7.329,-2.262c3.309,1.054 5.392,3.783 4.655,6.091" style="fill:#ad1e24;fill-rule:nonzero;"/><path d="M344.65,463.617c-0.713,2.233 -3.892,3.216 -7.1,2.191c-3.204,-1.02 -5.225,-3.666 -4.508,-5.9c0.712,-2.233 3.891,-3.216 7.096,-2.191c3.204,1.025 5.225,3.666 4.512,5.9" style="fill:#ab1e23;fill-rule:nonzero;"/><path d="M344.463,463.558c-0.692,2.163 -3.763,3.113 -6.867,2.125c-3.104,-0.995 -5.058,-3.554 -4.371,-5.716c0.692,-2.163 3.771,-3.113 6.871,-2.121c3.104,0.992 5.058,3.55 4.367,5.712" style="fill:#ab1e22;fill-rule:nonzero;"/><path d="M344.275,463.5c-0.667,2.088 -3.642,3.008 -6.637,2.05c-3,-0.958 -4.892,-3.433 -4.226,-5.521c0.671,-2.091 3.642,-3.012 6.642,-2.05c3,0.954 4.892,3.429 4.221,5.521" style="fill:#aa1e22;fill-rule:nonzero;"/><path d="M344.088,463.438c-0.646,2.016 -3.513,2.908 -6.409,1.983c-2.896,-0.929 -4.721,-3.313 -4.079,-5.329c0.646,-2.021 3.517,-2.909 6.413,-1.984c2.895,0.925 4.72,3.313 4.075,5.329" style="fill:#a81e22;fill-rule:nonzero;"/><path d="M343.904,463.379c-0.625,1.946 -3.391,2.8 -6.183,1.909c-2.792,-0.892 -4.55,-3.192 -3.933,-5.142c0.625,-1.942 3.391,-2.8 6.187,-1.908c2.792,0.891 4.55,3.191 3.929,5.141" style="fill:#a71e22;fill-rule:nonzero;"/><path d="M343.717,463.321c-0.6,1.875 -3.267,2.696 -5.954,1.833c-2.692,-0.854 -4.384,-3.071 -3.788,-4.946c0.6,-1.875 3.267,-2.7 5.954,-1.837c2.688,0.858 4.384,3.075 3.788,4.95" style="fill:#a62022;fill-rule:nonzero;"/><path d="M343.529,463.258c-0.579,1.805 -3.142,2.596 -5.729,1.767c-2.579,-0.825 -4.212,-2.954 -3.637,-4.758c0.575,-1.8 3.141,-2.596 5.724,-1.767c2.588,0.825 4.213,2.958 3.642,4.758" style="fill:#a52021;fill-rule:nonzero;"/><path d="M343.342,463.2c-0.554,1.729 -3.017,2.492 -5.496,1.696c-2.483,-0.792 -4.05,-2.838 -3.496,-4.571c0.554,-1.729 3.012,-2.487 5.496,-1.696c2.483,0.796 4.046,2.838 3.496,4.571" style="fill:#a41d21;fill-rule:nonzero;"/><path d="M343.154,463.138c-0.529,1.658 -2.887,2.387 -5.266,1.629c-2.38,-0.759 -3.88,-2.721 -3.35,-4.384c0.529,-1.654 2.891,-2.383 5.27,-1.62c2.375,0.758 3.875,2.72 3.346,4.375" style="fill:#a21d21;fill-rule:nonzero;"/><path d="M342.967,463.079c-0.509,1.588 -2.763,2.284 -5.038,1.554c-2.275,-0.725 -3.708,-2.6 -3.204,-4.187c0.508,-1.588 2.762,-2.279 5.038,-1.554c2.275,0.725 3.712,2.6 3.204,4.187" style="fill:#a11d21;fill-rule:nonzero;"/><path d="M342.779,463.021c-0.483,1.512 -2.637,2.175 -4.808,1.483c-2.175,-0.692 -3.542,-2.483 -3.054,-3.996c0.479,-1.512 2.633,-2.179 4.804,-1.487c2.171,0.696 3.541,2.487 3.058,4" style="fill:#a01d21;fill-rule:nonzero;"/><path d="M342.592,462.958c-0.463,1.446 -2.513,2.075 -4.584,1.417c-2.062,-0.658 -3.366,-2.367 -2.908,-3.808c0.463,-1.442 2.513,-2.075 4.579,-1.417c2.071,0.663 3.371,2.367 2.913,3.808" style="fill:#9f1f21;fill-rule:nonzero;"/><path d="M342.404,462.9c-0.437,1.371 -2.387,1.971 -4.35,1.342c-1.966,-0.625 -3.204,-2.246 -2.766,-3.613c0.437,-1.371 2.387,-1.975 4.35,-1.346c1.966,0.625 3.204,2.246 2.766,3.617" style="fill:#9d1c21;fill-rule:nonzero;"/><path d="M342.217,462.842c-0.413,1.296 -2.263,1.866 -4.121,1.271c-1.863,-0.592 -3.038,-2.13 -2.621,-3.425c0.417,-1.3 2.258,-1.871 4.121,-1.275c1.862,0.595 3.033,2.129 2.621,3.429" style="fill:#9d1c21;fill-rule:nonzero;"/><path d="M342.029,462.779c-0.391,1.225 -2.133,1.763 -3.891,1.204c-1.759,-0.562 -2.867,-2.012 -2.475,-3.237c0.391,-1.225 2.137,-1.763 3.891,-1.2c1.759,0.558 2.867,2.008 2.475,3.233" style="fill:#9c1c21;fill-rule:nonzero;"/><path d="M341.842,462.721c-0.367,1.154 -2.009,1.662 -3.663,1.133c-1.654,-0.529 -2.696,-1.896 -2.329,-3.046c0.371,-1.154 2.008,-1.662 3.663,-1.133c1.654,0.529 2.7,1.892 2.329,3.046" style="fill:#9b1c21;fill-rule:nonzero;"/><path d="M341.654,462.658c-0.341,1.084 -1.883,1.559 -3.433,1.067c-1.55,-0.5 -2.529,-1.779 -2.183,-2.858c0.345,-1.084 1.883,-1.559 3.433,-1.059c1.554,0.492 2.529,1.771 2.183,2.85" style="fill:#9a1c21;fill-rule:nonzero;"/><path d="M341.467,462.6c-0.321,1.008 -1.759,1.454 -3.204,0.992c-1.45,-0.467 -2.363,-1.659 -2.038,-2.667c0.325,-1.008 1.758,-1.454 3.204,-0.992c1.45,0.467 2.363,1.659 2.038,2.667" style="fill:#991b20;fill-rule:nonzero;"/><path d="M341.279,462.542c-0.296,0.937 -1.633,1.35 -2.975,0.921c-1.346,-0.434 -2.191,-1.542 -1.891,-2.475c0.3,-0.942 1.629,-1.35 2.979,-0.921c1.341,0.429 2.187,1.533 1.887,2.475" style="fill:#991b20;fill-rule:nonzero;"/><path d="M341.092,462.479c-0.275,0.867 -1.505,1.25 -2.746,0.85c-1.242,-0.396 -2.025,-1.421 -1.746,-2.283c0.279,-0.867 1.508,-1.246 2.746,-0.85c1.242,0.396 2.021,1.421 1.746,2.283" style="fill:#971b20;fill-rule:nonzero;"/><path d="M340.904,462.421c-0.25,0.796 -1.383,1.142 -2.517,0.775c-1.137,-0.363 -1.854,-1.296 -1.599,-2.092c0.254,-0.791 1.379,-1.141 2.516,-0.775c1.142,0.363 1.854,1.3 1.6,2.092" style="fill:#961a1f;fill-rule:nonzero;"/><path d="M340.717,462.363c-0.229,0.72 -1.254,1.037 -2.288,0.704c-1.033,-0.329 -1.683,-1.18 -1.454,-1.9c0.229,-0.725 1.254,-1.042 2.288,-0.709c1.033,0.329 1.687,1.179 1.454,1.904" style="fill:#941a1f;fill-rule:nonzero;"/><path d="M340.529,462.304c-0.208,0.646 -1.129,0.929 -2.058,0.634c-0.933,-0.296 -1.517,-1.063 -1.308,-1.713c0.208,-0.65 1.129,-0.933 2.058,-0.633c0.933,0.296 1.517,1.062 1.308,1.712" style="fill:#941a1e;fill-rule:nonzero;"/><path d="M340.346,462.242c-0.188,0.575 -1.008,0.829 -1.833,0.566c-0.825,-0.266 -1.35,-0.945 -1.163,-1.525c0.183,-0.575 1,-0.829 1.829,-0.562c0.829,0.262 1.35,0.946 1.167,1.521" style="fill:#941a1e;fill-rule:nonzero;"/><path d="M340.158,462.183c-0.162,0.505 -0.879,0.725 -1.604,0.496c-0.725,-0.233 -1.179,-0.829 -1.021,-1.333c0.167,-0.508 0.88,-0.729 1.605,-0.496c0.725,0.229 1.179,0.829 1.02,1.333" style="fill:#92191e;fill-rule:nonzero;"/><path d="M339.971,462.121c-0.142,0.433 -0.758,0.625 -1.375,0.429c-0.621,-0.2 -1.013,-0.712 -0.875,-1.146c0.142,-0.433 0.754,-0.621 1.375,-0.425c0.625,0.2 1.012,0.713 0.875,1.142" style="fill:#91191e;fill-rule:nonzero;"/><path d="M339.783,462.063c-0.116,0.362 -0.629,0.516 -1.146,0.354c-0.516,-0.167 -0.841,-0.592 -0.729,-0.954c0.117,-0.359 0.63,-0.517 1.146,-0.351c0.517,0.163 0.842,0.592 0.729,0.95" style="fill:#91191e;fill-rule:nonzero;"/><path d="M339.596,462.004c-0.092,0.288 -0.504,0.413 -0.917,0.284c-0.412,-0.134 -0.671,-0.476 -0.583,-0.767c0.096,-0.283 0.504,-0.413 0.917,-0.279c0.412,0.133 0.675,0.471 0.583,0.762" style="fill:#8f191d;fill-rule:nonzero;"/><path d="M339.408,461.942c-0.07,0.216 -0.379,0.312 -0.687,0.212c-0.308,-0.096 -0.504,-0.354 -0.438,-0.571c0.071,-0.216 0.379,-0.312 0.688,-0.212c0.308,0.1 0.508,0.358 0.437,0.571" style="fill:#8e181d;fill-rule:nonzero;"/><path d="M339.221,461.883c-0.046,0.146 -0.25,0.205 -0.459,0.142c-0.208,-0.067 -0.337,-0.237 -0.291,-0.383c0.046,-0.142 0.25,-0.204 0.458,-0.138c0.209,0.067 0.338,0.234 0.292,0.379" style="fill:#8e181d;fill-rule:nonzero;"/><path d="M339.033,461.821c-0.02,0.075 -0.125,0.108 -0.229,0.071c-0.104,-0.03 -0.167,-0.117 -0.146,-0.188c0.025,-0.071 0.125,-0.104 0.23,-0.071c0.104,0.034 0.17,0.117 0.145,0.188" style="fill:#8d181d;fill-rule:nonzero;"/></g></g></g><path d="M335.604,457.092c-1.733,1.941 -0.579,3.783 1.946,4.571c2.525,0.791 6.254,0.524 5.417,3.316c-0.492,1.625 -0.679,2.121 -0.75,2.254c0.325,-0.025 2.5,-0.279 2.696,-3.095c0.208,-3.05 0.47,-7.788 -4.263,-8.734c0,0 -0.15,-0.012 -0.4,-0.012c-0.938,-0 -3.283,0.162 -4.646,1.7Zm6.571,10.146c-0,-0 -0.008,0.091 0.042,-0.005c-0.025,0 -0.042,0.005 -0.042,0.005Z" style="fill:url(#_Radial16);fill-rule:nonzero;"/></g><g><g><path d="M2160.63,468.671l0,-5.762l21.017,-0.033l-0,18.223c-3.227,2.546 -6.554,4.461 -9.984,5.745c-3.429,1.284 -6.949,1.926 -10.559,1.926c-4.874,0 -9.301,-1.032 -13.284,-3.098c-3.982,-2.066 -6.988,-5.053 -9.019,-8.961c-2.031,-3.908 -3.046,-8.274 -3.046,-13.098c0,-4.779 1.01,-9.24 3.029,-13.383c2.019,-4.143 4.924,-7.219 8.715,-9.229c3.79,-2.01 8.156,-3.015 13.097,-3.015c3.588,0 6.831,0.575 9.73,1.725c2.9,1.151 5.173,2.753 6.82,4.807c1.647,2.055 2.899,4.735 3.756,8.04l-5.922,1.608c-0.745,-2.501 -1.67,-4.466 -2.775,-5.896c-1.106,-1.429 -2.685,-2.573 -4.739,-3.433c-2.053,-0.86 -4.331,-1.29 -6.836,-1.29c-3.001,-0 -5.595,0.452 -7.784,1.357c-2.188,0.904 -3.954,2.093 -5.296,3.567c-1.343,1.474 -2.386,3.093 -3.131,4.858c-1.263,3.037 -1.895,6.331 -1.895,9.882c-0,4.377 0.761,8.04 2.284,10.987c1.523,2.948 3.74,5.137 6.651,6.566c2.91,1.43 6.001,2.144 9.273,2.144c2.842,0 5.618,-0.541 8.325,-1.625c2.708,-1.083 4.761,-2.238 6.16,-3.467l-0,-9.145l-14.587,0Z" style="fill:#5baef6;fill-rule:nonzero;"/><path d="M2237.3,439.232l6.566,0l-0,28.374c-0,4.935 -0.565,8.855 -1.693,11.758c-1.128,2.903 -3.164,5.265 -6.108,7.085c-2.945,1.82 -6.809,2.73 -11.592,2.73c-4.648,0 -8.449,-0.793 -11.405,-2.378c-2.956,-1.586 -5.065,-3.88 -6.329,-6.884c-1.263,-3.004 -1.895,-7.108 -1.895,-12.311l0,-28.374l6.566,0l-0,28.34c-0,4.266 0.4,7.409 1.201,9.43c0.801,2.021 2.177,3.579 4.129,4.673c1.952,1.095 4.338,1.642 7.158,1.642c4.828,-0 8.269,-1.083 10.322,-3.249c2.053,-2.167 3.08,-6.332 3.08,-12.496l-0,-28.34Z" style="fill:#5baef6;fill-rule:nonzero;"/><path d="M2264.18,488.092l19.054,-49.11l7.073,0l20.306,49.11l-7.48,-0l-5.787,-14.874l-20.746,0l-5.449,14.874l-6.971,-0Zm14.315,-20.167l16.821,0l-5.178,-13.6c-1.58,-4.132 -2.753,-7.526 -3.52,-10.184c-0.632,3.149 -1.523,6.276 -2.674,9.38l-5.449,14.404Z" style="fill:#5baef6;fill-rule:nonzero;"/><path d="M2337.44,488.092l0,-20.803l-19.121,-28.307l7.987,0l9.78,14.807c1.805,2.769 3.486,5.538 5.043,8.308c1.489,-2.569 3.294,-5.461 5.415,-8.677l9.612,-14.438l7.648,0l-19.798,28.307l-0,20.803l-6.566,-0Z" style="fill:#5baef6;fill-rule:nonzero;"/><path d="M2370.75,488.092l19.053,-49.11l7.074,0l20.306,49.11l-7.48,-0l-5.787,-14.874l-20.746,0l-5.449,14.874l-6.971,-0Zm14.315,-20.167l16.821,0l-5.178,-13.6c-1.58,-4.132 -2.753,-7.526 -3.52,-10.184c-0.632,3.149 -1.523,6.276 -2.674,9.38l-5.449,14.404Z" style="fill:#5baef6;fill-rule:nonzero;"/><path d="M2473.75,482.832c3.046,2.077 5.855,3.596 8.427,4.556l-1.929,4.522c-3.565,-1.272 -7.119,-3.282 -10.661,-6.029c-3.678,2.032 -7.739,3.048 -12.184,3.048c-4.49,0 -8.562,-1.072 -12.217,-3.216c-3.655,-2.144 -6.47,-5.159 -8.444,-9.044c-1.974,-3.886 -2.961,-8.264 -2.961,-13.132c-0,-4.846 0.992,-9.257 2.978,-13.232c1.985,-3.975 4.811,-7.001 8.478,-9.078c3.666,-2.077 7.767,-3.116 12.302,-3.116c4.58,0 8.709,1.078 12.386,3.233c3.678,2.155 6.481,5.17 8.411,9.045c1.929,3.874 2.893,8.246 2.893,13.114c0,4.043 -0.62,7.677 -1.861,10.904c-1.241,3.227 -3.114,6.036 -5.618,8.425Zm-14.451,-8.307c3.79,1.049 6.915,2.613 9.374,4.689c3.858,-3.483 5.787,-8.72 5.787,-15.711c0,-3.975 -0.682,-7.447 -2.047,-10.418c-1.365,-2.97 -3.362,-5.276 -5.99,-6.917c-2.629,-1.642 -5.579,-2.462 -8.85,-2.462c-4.896,-0 -8.958,1.658 -12.184,4.974c-3.226,3.317 -4.84,8.269 -4.84,14.857c0,6.387 1.597,11.289 4.789,14.706c3.193,3.417 7.271,5.125 12.235,5.125c2.346,0 4.557,-0.435 6.633,-1.306c-2.053,-1.318 -4.219,-2.256 -6.498,-2.814l1.591,-4.723Z" style="fill:#5baef6;fill-rule:nonzero;"/><path d="M2540.74,438.982l6.565,0l0,28.374c0,4.935 -0.564,8.855 -1.692,11.758c-1.128,2.903 -3.164,5.265 -6.109,7.085c-2.944,1.82 -6.808,2.73 -11.591,2.73c-4.648,0 -8.45,-0.793 -11.405,-2.378c-2.956,-1.586 -5.066,-3.881 -6.329,-6.884c-1.264,-3.004 -1.895,-7.108 -1.895,-12.311l-0,-28.374l6.565,0l0,28.34c0,4.266 0.401,7.409 1.202,9.43c0.801,2.021 2.177,3.579 4.129,4.673c1.951,1.095 4.337,1.642 7.158,1.642c4.828,-0 8.269,-1.083 10.322,-3.25c2.053,-2.166 3.08,-6.331 3.08,-12.495l-0,-28.34Z" style="fill:#5baef6;fill-rule:nonzero;"/><rect x="2574.72" y="438.982" width="6.566" height="49.109" style="fill:#5baef6;fill-rule:nonzero;"/><path d="M2609.6,488.092l-0,-49.11l6.565,0l0,43.314l24.435,0l0,5.796l-31,-0Z" style="fill:#5baef6;fill-rule:nonzero;"/></g><g><path d="M2286.12,563.887l-5.8,-0l0,-20.103c-2.119,1.822 -4.616,3.17 -7.492,4.043l0,-4.84c1.514,-0.456 3.158,-1.32 4.933,-2.591c1.775,-1.272 2.993,-2.756 3.653,-4.452l4.706,0l-0,27.943Z" style="fill:#0551be;fill-rule:nonzero;"/><path d="M2299.76,548.871c-1.5,-0.582 -2.59,-1.382 -3.271,-2.401c-0.681,-1.019 -1.022,-2.136 -1.022,-3.35c0,-2.076 0.788,-3.791 2.363,-5.145c1.576,-1.354 3.815,-2.031 6.718,-2.031c2.876,0 5.108,0.677 6.698,2.031c1.589,1.354 2.383,3.069 2.383,5.145c0,1.29 -0.364,2.439 -1.093,3.445c-0.73,1.006 -1.755,1.775 -3.076,2.306c1.679,0.62 2.955,1.525 3.829,2.715c0.874,1.189 1.31,2.562 1.31,4.119c0,2.569 -0.89,4.657 -2.672,6.264c-1.782,1.608 -4.152,2.411 -7.11,2.411c-2.752,0 -5.043,-0.664 -6.873,-1.993c-2.16,-1.569 -3.241,-3.721 -3.241,-6.454c0,-1.506 0.406,-2.889 1.218,-4.148c0.812,-1.259 2.092,-2.23 3.839,-2.914Zm1.197,-5.372c0,1.063 0.327,1.892 0.98,2.487c0.654,0.595 1.524,0.892 2.611,0.892c1.101,0 1.982,-0.3 2.642,-0.902c0.661,-0.601 0.991,-1.433 0.991,-2.496c-0,-1 -0.327,-1.8 -0.981,-2.401c-0.653,-0.601 -1.517,-0.902 -2.59,-0.902c-1.114,0 -2.002,0.304 -2.662,0.911c-0.661,0.608 -0.991,1.411 -0.991,2.411Zm-0.537,11.921c0,1.468 0.41,2.614 1.228,3.436c0.819,0.823 1.841,1.234 3.065,1.234c1.197,0 2.188,-0.395 2.972,-1.186c0.785,-0.791 1.177,-1.933 1.177,-3.427c-0,-1.303 -0.399,-2.35 -1.197,-3.141c-0.798,-0.791 -1.81,-1.187 -3.034,-1.187c-1.417,0 -2.473,0.449 -3.168,1.348c-0.695,0.898 -1.043,1.873 -1.043,2.923Z" style="fill:#0551be;fill-rule:nonzero;"/><path d="M2337.88,558.932l0,4.955l-20.329,-0c0.22,-1.873 0.88,-3.648 1.981,-5.325c1.101,-1.677 3.275,-3.901 6.522,-6.672c2.614,-2.24 4.217,-3.759 4.809,-4.556c0.798,-1.101 1.197,-2.19 1.197,-3.265c0,-1.19 -0.347,-2.104 -1.042,-2.743c-0.695,-0.639 -1.655,-0.959 -2.879,-0.959c-1.211,0 -2.174,0.335 -2.89,1.006c-0.715,0.671 -1.128,1.784 -1.238,3.341l-5.779,-0.531c0.344,-2.936 1.424,-5.044 3.24,-6.322c1.816,-1.278 4.087,-1.917 6.811,-1.917c2.986,0 5.332,0.74 7.038,2.221c1.706,1.481 2.559,3.322 2.559,5.524c0,1.253 -0.244,2.446 -0.732,3.578c-0.489,1.133 -1.263,2.319 -2.322,3.559c-0.702,0.823 -1.968,2.006 -3.798,3.55c-1.83,1.544 -2.989,2.569 -3.478,3.075c-0.488,0.507 -0.884,1 -1.186,1.481l11.516,0Z" style="fill:#0551be;fill-rule:nonzero;"/><path d="M2351.6,535.944c2.931,0 5.222,0.962 6.873,2.885c1.968,2.278 2.951,6.056 2.951,11.333c0,5.265 -0.99,9.049 -2.972,11.352c-1.637,1.898 -3.921,2.847 -6.852,2.847c-2.944,0 -5.318,-1.041 -7.12,-3.123c-1.803,-2.081 -2.704,-5.792 -2.704,-11.133c-0,-5.239 0.991,-9.01 2.972,-11.314c1.637,-1.898 3.921,-2.847 6.852,-2.847Zm0,4.423c-0.702,0 -1.328,0.206 -1.878,0.617c-0.55,0.411 -0.977,1.148 -1.28,2.211c-0.399,1.38 -0.598,3.702 -0.598,6.967c-0,3.265 0.179,5.508 0.536,6.729c0.358,1.222 0.809,2.035 1.352,2.44c0.544,0.405 1.166,0.607 1.868,0.607c0.702,0 1.328,-0.205 1.878,-0.617c0.551,-0.411 0.977,-1.148 1.28,-2.211c0.399,-1.367 0.598,-3.683 0.598,-6.948c0,-3.265 -0.178,-5.508 -0.536,-6.729c-0.358,-1.221 -0.809,-2.038 -1.352,-2.449c-0.544,-0.411 -1.166,-0.617 -1.868,-0.617Z" style="fill:#0551be;fill-rule:nonzero;"/><rect x="2377.63" y="551.13" width="11.393" height="5.334" style="fill:#0551be;fill-rule:nonzero;"/><path d="M2422.46,558.932l-0,4.955l-20.33,-0c0.221,-1.873 0.881,-3.648 1.982,-5.325c1.1,-1.677 3.274,-3.901 6.522,-6.672c2.614,-2.24 4.217,-3.759 4.809,-4.556c0.798,-1.101 1.197,-2.19 1.197,-3.265c-0,-1.19 -0.348,-2.104 -1.043,-2.743c-0.695,-0.639 -1.654,-0.959 -2.879,-0.959c-1.211,0 -2.174,0.335 -2.889,1.006c-0.716,0.671 -1.129,1.784 -1.239,3.341l-5.779,-0.531c0.344,-2.936 1.425,-5.044 3.241,-6.322c1.816,-1.278 4.086,-1.917 6.811,-1.917c2.985,0 5.331,0.74 7.038,2.221c1.706,1.481 2.559,3.322 2.559,5.524c-0,1.253 -0.244,2.446 -0.733,3.578c-0.488,1.133 -1.262,2.319 -2.322,3.559c-0.702,0.823 -1.967,2.006 -3.797,3.55c-1.83,1.544 -2.99,2.569 -3.478,3.075c-0.489,0.507 -0.884,1 -1.187,1.481l11.517,0Z" style="fill:#0551be;fill-rule:nonzero;"/><path d="M2436.18,535.944c2.93,0 5.221,0.962 6.872,2.885c1.968,2.278 2.952,6.056 2.952,11.333c-0,5.265 -0.991,9.049 -2.972,11.352c-1.638,1.898 -3.922,2.847 -6.852,2.847c-2.945,0 -5.318,-1.041 -7.121,-3.123c-1.802,-2.081 -2.703,-5.792 -2.703,-11.133c-0,-5.239 0.99,-9.01 2.972,-11.314c1.637,-1.898 3.921,-2.847 6.852,-2.847Zm-0,4.423c-0.702,0 -1.328,0.206 -1.878,0.617c-0.551,0.411 -0.977,1.148 -1.28,2.211c-0.399,1.38 -0.599,3.702 -0.599,6.967c0,3.265 0.179,5.508 0.537,6.729c0.358,1.222 0.808,2.035 1.352,2.44c0.543,0.405 1.166,0.607 1.868,0.607c0.701,0 1.327,-0.205 1.878,-0.617c0.55,-0.411 0.977,-1.148 1.279,-2.211c0.399,-1.367 0.599,-3.683 0.599,-6.948c-0,-3.265 -0.179,-5.508 -0.537,-6.729c-0.357,-1.221 -0.808,-2.038 -1.351,-2.449c-0.544,-0.411 -1.167,-0.617 -1.868,-0.617Z" style="fill:#0551be;fill-rule:nonzero;"/><path d="M2469.47,558.932l0,4.955l-20.329,-0c0.22,-1.873 0.881,-3.648 1.981,-5.325c1.101,-1.677 3.275,-3.901 6.522,-6.672c2.614,-2.24 4.217,-3.759 4.809,-4.556c0.798,-1.101 1.197,-2.19 1.197,-3.265c0,-1.19 -0.347,-2.104 -1.042,-2.743c-0.695,-0.639 -1.655,-0.959 -2.879,-0.959c-1.211,0 -2.174,0.335 -2.89,1.006c-0.715,0.671 -1.128,1.784 -1.238,3.341l-5.779,-0.531c0.344,-2.936 1.424,-5.044 3.24,-6.322c1.817,-1.278 4.087,-1.917 6.811,-1.917c2.986,0 5.332,0.74 7.038,2.221c1.706,1.481 2.559,3.322 2.559,5.524c0,1.253 -0.244,2.446 -0.732,3.578c-0.489,1.133 -1.263,2.319 -2.322,3.559c-0.702,0.823 -1.968,2.006 -3.798,3.55c-1.83,1.544 -2.989,2.569 -3.477,3.075c-0.489,0.507 -0.884,1 -1.187,1.481l11.516,0Z" style="fill:#0551be;fill-rule:nonzero;"/><path d="M2483.2,535.944c2.931,0 5.222,0.962 6.873,2.885c1.968,2.278 2.951,6.056 2.951,11.333c0,5.265 -0.99,9.049 -2.972,11.352c-1.637,1.898 -3.921,2.847 -6.852,2.847c-2.944,0 -5.318,-1.041 -7.12,-3.123c-1.803,-2.081 -2.704,-5.792 -2.704,-11.133c0,-5.239 0.991,-9.01 2.972,-11.314c1.637,-1.898 3.922,-2.847 6.852,-2.847Zm0,4.423c-0.701,0 -1.327,0.206 -1.878,0.617c-0.55,0.411 -0.977,1.148 -1.279,2.211c-0.4,1.38 -0.599,3.702 -0.599,6.967c-0,3.265 0.179,5.508 0.537,6.729c0.357,1.222 0.808,2.035 1.351,2.44c0.544,0.405 1.167,0.607 1.868,0.607c0.702,0 1.328,-0.205 1.878,-0.617c0.551,-0.411 0.977,-1.148 1.28,-2.211c0.399,-1.367 0.599,-3.683 0.599,-6.948c-0,-3.265 -0.179,-5.508 -0.537,-6.729c-0.358,-1.221 -0.808,-2.038 -1.352,-2.449c-0.543,-0.411 -1.166,-0.617 -1.868,-0.617Z" style="fill:#0551be;fill-rule:nonzero;"/></g><g><rect x="2116.28" y="386.462" width="5.301" height="37.65" style="fill:#273c83;fill-rule:nonzero;"/><path d="M2133.07,424.113l-0,-37.651l5.438,0l21.042,29.561l0,-29.561l5.083,0l-0,37.651l-5.438,-0l-21.042,-29.587l-0,29.587l-5.083,-0Z" style="fill:#273c83;fill-rule:nonzero;"/><path d="M2175.48,424.187l0,-37.651l13.801,0c3.115,0 5.492,0.18 7.132,0.54c2.296,0.496 4.254,1.395 5.875,2.696c2.114,1.678 3.694,3.823 4.742,6.434c1.047,2.611 1.571,5.594 1.571,8.95c0,2.86 -0.355,5.394 -1.066,7.602c-0.71,2.209 -1.621,4.037 -2.732,5.483c-1.112,1.447 -2.328,2.586 -3.649,3.416c-1.32,0.831 -2.915,1.46 -4.782,1.888c-1.867,0.428 -4.012,0.642 -6.435,0.642l-14.457,-0Zm5.302,-4.443l8.553,-0c2.642,-0 4.714,-0.231 6.217,-0.694c1.503,-0.462 2.701,-1.112 3.594,-1.951c1.257,-1.182 2.236,-2.77 2.937,-4.765c0.702,-1.994 1.053,-4.413 1.053,-7.255c-0,-3.938 -0.688,-6.964 -2.064,-9.079c-1.375,-2.114 -3.047,-3.531 -5.014,-4.25c-1.421,-0.514 -3.708,-0.771 -6.859,-0.771l-8.417,0l-0,28.765Z" style="fill:#273c83;fill-rule:nonzero;"/><path d="M2219.64,424.113l-0,-37.651l21.433,0l0,4.443l-17.51,0l-0,11.532l16.398,-0l-0,4.417l-16.398,-0l-0,12.816l18.198,-0l-0,4.443l-22.121,-0Z" style="fill:#273c83;fill-rule:nonzero;"/><path d="M2249.09,424.113l0,-37.651l15.112,0c2.66,0 4.691,0.12 6.094,0.36c1.968,0.308 3.616,0.894 4.946,1.759c1.33,0.865 2.401,2.076 3.211,3.634c0.811,1.558 1.216,3.27 1.216,5.136c0,3.202 -1.084,5.912 -3.252,8.129c-2.167,2.217 -6.084,3.326 -11.75,3.326l-10.275,-0l-0,15.307l-5.302,-0Zm5.302,-19.75l10.357,-0c3.425,-0 5.857,-0.599 7.296,-1.798c1.439,-1.199 2.159,-2.885 2.159,-5.059c-0,-1.576 -0.424,-2.924 -1.271,-4.045c-0.847,-1.122 -1.963,-1.862 -3.347,-2.222c-0.893,-0.223 -2.542,-0.334 -4.947,-0.334l-10.247,0l-0,13.458Z" style="fill:#273c83;fill-rule:nonzero;"/><path d="M2286.53,424.113l-0,-37.651l21.757,0l-0,4.443l-17.775,0l-0,11.532l16.646,-0l-0,4.417l-16.646,-0l-0,12.816l18.473,-0l-0,4.443l-22.455,-0Z" style="fill:#273c83;fill-rule:nonzero;"/><path d="M2319.99,424.43l0,-37.651l5.438,0l21.042,29.561l0,-29.561l5.083,0l0,37.651l-5.438,-0l-21.042,-29.586l0,29.586l-5.083,-0Z" style="fill:#273c83;fill-rule:nonzero;"/><path d="M2364.16,424.113l0,-37.651l12.222,0c2.759,0 4.865,0.18 6.317,0.539c2.033,0.497 3.768,1.396 5.204,2.697c1.871,1.678 3.271,3.822 4.199,6.434c0.927,2.611 1.391,5.594 1.391,8.95c0,2.859 -0.314,5.393 -0.944,7.602c-0.629,2.209 -1.436,4.036 -2.42,5.483c-0.984,1.447 -2.061,2.585 -3.231,3.416c-1.17,0.83 -2.581,1.459 -4.235,1.888c-1.654,0.428 -3.554,0.642 -5.7,0.642l-12.803,-0Zm4.695,-4.443l7.576,-0c2.339,-0 4.175,-0.232 5.506,-0.694c1.331,-0.462 2.392,-1.113 3.182,-1.952c1.114,-1.181 1.981,-2.769 2.602,-4.764c0.621,-1.995 0.932,-4.413 0.932,-7.255c-0,-3.938 -0.609,-6.964 -1.827,-9.079c-1.219,-2.114 -2.699,-3.531 -4.442,-4.25c-1.258,-0.514 -3.283,-0.771 -6.074,-0.771l-7.455,0l0,28.765Z" style="fill:#273c83;fill-rule:nonzero;"/><path d="M2404.14,424.113l-0,-37.651l21.542,0l0,4.443l-17.6,0l0,11.532l16.483,-0l-0,4.417l-16.483,-0l0,12.816l18.291,-0l0,4.443l-22.233,-0Z" style="fill:#273c83;fill-rule:nonzero;"/><path d="M2435.27,424.113l0,-37.651l5.439,0l21.042,29.561l-0,-29.561l5.082,0l0,37.651l-5.438,-0l-21.042,-29.587l0,29.587l-5.083,-0Z" style="fill:#273c83;fill-rule:nonzero;"/><path d="M2508.17,410.912l5.302,1.258c-1.111,4.092 -3.111,7.213 -5.998,9.361c-2.888,2.149 -6.418,3.224 -10.59,3.224c-4.318,-0 -7.829,-0.826 -10.534,-2.479c-2.706,-1.652 -4.765,-4.045 -6.176,-7.178c-1.412,-3.133 -2.118,-6.498 -2.118,-10.093c-0,-3.921 0.797,-7.341 2.391,-10.26c1.594,-2.92 3.862,-5.137 6.804,-6.652c2.943,-1.515 6.181,-2.273 9.715,-2.273c4.008,0 7.379,0.959 10.111,2.876c2.733,1.918 4.637,4.615 5.712,8.09l-5.22,1.156c-0.929,-2.739 -2.277,-4.734 -4.044,-5.984c-1.767,-1.25 -3.99,-1.875 -6.668,-1.875c-3.079,0 -5.652,0.694 -7.72,2.081c-2.068,1.386 -3.521,3.248 -4.359,5.586c-0.838,2.337 -1.257,4.747 -1.257,7.229c0,3.202 0.497,5.997 1.49,8.385c0.992,2.389 2.536,4.174 4.631,5.355c2.096,1.182 4.364,1.772 6.805,1.772c2.97,0 5.484,-0.804 7.542,-2.414c2.059,-1.609 3.453,-3.998 4.181,-7.165Z" style="fill:#273c83;fill-rule:nonzero;"/><rect x="2521.45" y="386.462" width="5.301" height="37.65" style="fill:#273c83;fill-rule:nonzero;"/><path d="M2531.7,424.113l13.908,-37.651l5.163,0l14.822,37.651l-5.459,-0l-4.225,-11.403l-15.143,-0l-3.977,11.403l-5.089,-0Zm10.45,-15.461l12.277,-0l-3.779,-10.427c-1.153,-3.168 -2.01,-5.77 -2.569,-7.808c-0.462,2.414 -1.112,4.811 -1.952,7.191l-3.977,11.044Z" style="fill:#273c83;fill-rule:nonzero;"/><path d="M2587.83,424.113l0,-37.651l13.8,0c3.116,0 5.493,0.18 7.133,0.539c2.295,0.497 4.254,1.396 5.875,2.697c2.113,1.678 3.694,3.822 4.741,6.434c1.048,2.611 1.572,5.594 1.572,8.95c-0,2.859 -0.356,5.393 -1.066,7.602c-0.711,2.209 -1.621,4.036 -2.733,5.483c-1.111,1.447 -2.327,2.585 -3.648,3.416c-1.321,0.83 -2.915,1.459 -4.782,1.888c-1.868,0.428 -4.013,0.642 -6.436,0.642l-14.456,-0Zm5.302,-4.443l8.553,-0c2.642,-0 4.714,-0.232 6.217,-0.694c1.503,-0.462 2.701,-1.113 3.593,-1.952c1.258,-1.181 2.237,-2.769 2.938,-4.764c0.702,-1.995 1.052,-4.413 1.052,-7.255c0,-3.938 -0.687,-6.964 -2.063,-9.079c-1.375,-2.114 -3.047,-3.531 -5.015,-4.25c-1.421,-0.514 -3.707,-0.771 -6.859,-0.771l-8.416,0l-0,28.765Z" style="fill:#273c83;fill-rule:nonzero;"/><path d="M2631.1,424.113l-0,-37.651l20.786,0l0,4.443l-16.982,0l-0,11.532l15.904,-0l-0,4.417l-15.904,-0l-0,12.816l17.649,-0l-0,4.443l-21.453,-0Z" style="fill:#273c83;fill-rule:nonzero;"/></g><g><path d="M2111.93,314.239l18.861,-0c3.734,-0 6.518,0.183 8.353,0.551c1.834,0.367 3.476,1.134 4.924,2.3c1.449,1.166 2.656,2.718 3.621,4.657c0.966,1.939 1.449,4.112 1.449,6.52c-0,2.611 -0.596,5.006 -1.787,7.186c-1.19,2.179 -2.805,3.814 -4.844,4.904c2.876,0.988 5.086,2.674 6.631,5.056c1.545,2.383 2.317,5.183 2.317,8.402c0,2.535 -0.499,5 -1.496,7.395c-0.998,2.395 -2.361,4.308 -4.088,5.74c-1.728,1.433 -3.857,2.313 -6.389,2.643c-1.588,0.203 -5.418,0.329 -11.491,0.38l-16.061,-0l-0,-55.734Zm9.527,9.276l-0,12.888l6.244,0c3.712,0 6.019,-0.063 6.92,-0.19c1.631,-0.228 2.913,-0.893 3.847,-1.996c0.933,-1.102 1.4,-2.554 1.4,-4.353c-0,-1.724 -0.402,-3.124 -1.207,-4.201c-0.805,-1.077 -2.001,-1.73 -3.589,-1.958c-0.944,-0.127 -3.659,-0.19 -8.143,-0.19l-5.472,-0Zm-0,22.164l-0,14.903l8.819,0c3.433,0 5.611,-0.114 6.534,-0.342c1.416,-0.304 2.57,-1.045 3.46,-2.224c0.891,-1.178 1.336,-2.756 1.336,-4.733c0,-1.673 -0.343,-3.092 -1.03,-4.258c-0.687,-1.166 -1.679,-2.015 -2.977,-2.547c-1.298,-0.532 -4.115,-0.799 -8.449,-0.799l-7.693,0Z" style="fill:#273c83;fill-rule:nonzero;"/><rect x="2159.47" y="313.754" width="10.448" height="55.734" style="fill:#273c83;fill-rule:nonzero;"/><path d="M2215.73,349.54l10.131,3.459c-1.553,6.083 -4.136,10.601 -7.748,13.554c-3.612,2.953 -8.195,4.429 -13.749,4.429c-6.871,-0 -12.519,-2.528 -16.943,-7.585c-4.424,-5.056 -6.636,-11.969 -6.636,-20.738c-0,-9.277 2.224,-16.481 6.671,-21.614c4.448,-5.132 10.296,-7.698 17.543,-7.698c6.331,-0 11.472,2.015 15.426,6.045c2.353,2.382 4.118,5.804 5.295,10.264l-10.343,2.662c-0.612,-2.89 -1.888,-5.171 -3.83,-6.844c-1.941,-1.672 -4.3,-2.509 -7.077,-2.509c-3.836,0 -6.948,1.483 -9.336,4.448c-2.389,2.966 -3.583,7.769 -3.583,14.409c-0,7.046 1.176,12.065 3.53,15.055c2.353,2.991 5.412,4.486 9.177,4.486c2.777,0 5.166,-0.95 7.166,-2.851c2,-1.901 3.435,-4.892 4.306,-8.972Z" style="fill:#273c83;fill-rule:nonzero;"/><path d="M2237.45,370.426l-0,-55.734l33.581,-0l0,9.428l-24.437,0l0,12.356l22.738,-0l0,9.39l-22.738,0l0,15.17l25.302,-0l0,9.39l-34.446,0Z" style="fill:#273c83;fill-rule:nonzero;"/><path d="M2280.8,369.716l0,-55.735l11.281,0l23.5,37.22l-0,-37.22l10.771,0l-0,55.735l-11.633,-0l-23.148,-36.346l0,36.346l-10.771,-0Z" style="fill:#273c83;fill-rule:nonzero;"/><path d="M2350.25,369.551l0,-46.306l-16.964,0l0,-9.428l45.433,-0l0,9.428l-16.925,0l-0,46.306l-11.544,0Z" style="fill:#273c83;fill-rule:nonzero;"/><path d="M2382.09,369.583l0,-55.735l34.024,0l-0,9.429l-24.759,-0l0,12.356l23.037,-0l0,9.39l-23.037,0l0,15.169l25.635,0l-0,9.391l-34.9,-0Z" style="fill:#273c83;fill-rule:nonzero;"/><path d="M2426.07,369.711l-0,-55.734l11.387,0l23.724,37.22l-0,-37.22l10.873,0l-0,55.734l-11.743,0l-23.368,-36.345l-0,36.345l-10.873,0Z" style="fill:#273c83;fill-rule:nonzero;"/><path d="M2527.13,369.691l-11.366,0l-4.518,-12.66l-20.685,0l-4.271,12.66l-11.083,0l20.155,-55.734l11.048,0l20.72,55.734Zm-19.237,-22.05l-7.131,-20.682l-6.989,20.682l14.12,-0Z" style="fill:#273c83;fill-rule:nonzero;"/><path d="M2529.33,369.488l0,-55.734l21.991,0c5.53,0 9.548,0.501 12.054,1.502c2.506,1.001 4.513,2.781 6.019,5.341c1.506,2.56 2.259,5.488 2.259,8.782c-0,4.182 -1.142,7.636 -3.424,10.36c-2.283,2.725 -5.695,4.442 -10.237,5.152c2.259,1.419 4.124,2.978 5.595,4.676c1.471,1.698 3.453,4.714 5.948,9.048l6.318,10.873l-12.495,0l-7.554,-12.127c-2.683,-4.334 -4.518,-7.065 -5.507,-8.193c-0.988,-1.128 -2.035,-1.901 -3.141,-2.319c-1.106,-0.419 -2.859,-0.628 -5.26,-0.628l-2.118,0l0,23.267l-10.448,0Zm10.448,-32.163l7.731,0c5.012,0 8.142,-0.228 9.389,-0.684c1.247,-0.456 2.224,-1.242 2.93,-2.357c0.706,-1.115 1.059,-2.509 1.059,-4.182c-0,-1.876 -0.465,-3.39 -1.395,-4.543c-0.929,-1.154 -2.241,-1.882 -3.935,-2.186c-0.847,-0.127 -3.389,-0.19 -7.625,-0.19l-8.154,-0l0,14.142Z" style="fill:#273c83;fill-rule:nonzero;"/><rect x="2581.18" y="313.754" width="10.448" height="55.734" style="fill:#273c83;fill-rule:nonzero;"/><path d="M2603.4,342.462c0,-5.677 0.788,-10.442 2.365,-14.295c1.177,-2.838 2.783,-5.385 4.818,-7.641c2.036,-2.256 4.266,-3.929 6.689,-5.019c3.224,-1.47 6.942,-2.205 11.155,-2.205c7.624,0 13.725,2.548 18.302,7.642c4.577,5.094 6.865,12.178 6.865,21.252c0,8.998 -2.271,16.037 -6.812,21.119c-4.542,5.082 -10.613,7.623 -18.214,7.623c-7.695,-0 -13.814,-2.529 -18.355,-7.585c-4.542,-5.056 -6.813,-12.02 -6.813,-20.891Zm10.766,-0.38c0,6.311 1.353,11.095 4.059,14.352c2.707,3.257 6.142,4.885 10.307,4.885c4.166,0 7.584,-1.616 10.255,-4.847c2.671,-3.232 4.006,-8.079 4.006,-14.542c-0,-6.387 -1.3,-11.152 -3.901,-14.295c-2.6,-3.143 -6.053,-4.714 -10.36,-4.714c-4.306,-0 -7.777,1.59 -10.413,4.771c-2.635,3.181 -3.953,7.978 -3.953,14.39Z" style="fill:#273c83;fill-rule:nonzero;"/></g><g><g><ellipse cx="2483.07" cy="192.053" rx="72.706" ry="71.342" style="fill:#3da7d3;"/><ellipse cx="2389.48" cy="192.345" rx="72.706" ry="71.342" style="fill:#004abd;"/><path d="M2208.49,262.25l133.069,0l0,-76.117l-50.825,0l-82.244,76.117Z" style="fill:#3da7d3;"/><path d="M2342.41,186.332c-3.084,-37.281 -32.61,-65.885 -68.009,-65.885c-35.398,-0 -64.925,28.604 -68.009,65.885l136.018,0Z" style="fill:#004abd;"/></g><path d="M2328.94,150.951c8.562,4.797 12.591,35.155 12.591,35.155l-50.367,0c-0,0 37.71,-35.192 37.776,-35.155Z" style="fill:#0027bd;"/><path d="M2341.86,186.902l6.17,19.867l19.967,-0l-16.154,12.278l6.17,19.866l-16.153,-12.278l-16.154,12.278l6.17,-19.866l-16.153,-12.278l19.967,-0l6.17,-19.867Z" style="fill:#ebebeb;"/></g></g><defs><linearGradient id="_Linear1" x1="0" y1="0" x2="1" y2="0" gradientUnits="userSpaceOnUse" gradientTransform="matrix(-366.818,235.811,-235.811,-366.818,1943.4,74.8292)"><stop offset="0" style="stop-color:#43c3e8;stop-opacity:1"/><stop offset="0.37" style="stop-color:#43c3e8;stop-opacity:1"/><stop offset="1" style="stop-color:#273c83;stop-opacity:1"/><stop offset="1" style="stop-color:#273c83;stop-opacity:1"/></linearGradient><linearGradient id="_Linear2" x1="0" y1="0" x2="1" y2="0" gradientUnits="userSpaceOnUse" gradientTransform="matrix(-366.817,235.811,-235.811,-366.817,1978,128.655)"><stop offset="0" style="stop-color:#43c3e8;stop-opacity:1"/><stop offset="0.37" style="stop-color:#43c3e8;stop-opacity:1"/><stop offset="1" style="stop-color:#273c83;stop-opacity:1"/><stop offset="1" style="stop-color:#273c83;stop-opacity:1"/></linearGradient><linearGradient id="_Linear3" x1="0" y1="0" x2="1" y2="0" gradientUnits="userSpaceOnUse" gradientTransform="matrix(1.24324e-14,-203.037,203.037,1.24324e-14,211.303,433.154)"><stop offset="0" style="stop-color:#08694c;stop-opacity:1"/><stop offset="0.49" style="stop-color:#23b354;stop-opacity:1"/><stop offset="1" style="stop-color:#08694c;stop-opacity:1"/></linearGradient><linearGradient id="_Linear4" x1="0" y1="0" x2="1" y2="0" gradientUnits="userSpaceOnUse" gradientTransform="matrix(1.24324e-14,-203.037,203.037,1.24324e-14,459.967,433.154)"><stop offset="0" style="stop-color:#08694c;stop-opacity:1"/><stop offset="0.49" style="stop-color:#23b354;stop-opacity:1"/><stop offset="1" style="stop-color:#08694c;stop-opacity:1"/></linearGradient><linearGradient id="_Linear5" x1="0" y1="0" x2="1" y2="0" gradientUnits="userSpaceOnUse" gradientTransform="matrix(1.24324e-14,-203.037,203.037,1.24324e-14,372.809,433.154)"><stop offset="0" style="stop-color:#08694c;stop-opacity:1"/><stop offset="0.49" style="stop-color:#23b354;stop-opacity:1"/><stop offset="1" style="stop-color:#08694c;stop-opacity:1"/></linearGradient><linearGradient id="_Linear6" x1="0" y1="0" x2="1" y2="0" gradientUnits="userSpaceOnUse" gradientTransform="matrix(1.24324e-14,-203.037,203.037,1.24324e-14,299.258,433.154)"><stop offset="0" style="stop-color:#08694c;stop-opacity:1"/><stop offset="0.49" style="stop-color:#23b354;stop-opacity:1"/><stop offset="1" style="stop-color:#08694c;stop-opacity:1"/></linearGradient><linearGradient id="_Linear7" x1="0" y1="0" x2="1" y2="0" gradientUnits="userSpaceOnUse" gradientTransform="matrix(1.24324e-14,-203.037,203.037,1.24324e-14,279.907,433.154)"><stop offset="0" style="stop-color:#08694c;stop-opacity:1"/><stop offset="0.49" style="stop-color:#23b354;stop-opacity:1"/><stop offset="1" style="stop-color:#08694c;stop-opacity:1"/></linearGradient><radialGradient id="_Radial8" cx="0" cy="0" r="1" gradientUnits="userSpaceOnUse" gradientTransform="matrix(32.2982,0,0,32.2982,372.976,468.788)"><stop offset="0" style="stop-color:#e31b3f;stop-opacity:1"/><stop offset="0" style="stop-color:#e31b3f;stop-opacity:1"/><stop offset="0.72" style="stop-color:#8d181d;stop-opacity:1"/><stop offset="1" style="stop-color:#6c0c0e;stop-opacity:1"/></radialGradient><linearGradient id="_Linear9" x1="0" y1="0" x2="1" y2="0" gradientUnits="userSpaceOnUse" gradientTransform="matrix(37.98,-27.8893,27.8893,37.98,341.91,463.463)"><stop offset="0" style="stop-color:#8d181d;stop-opacity:1"/><stop offset="1" style="stop-color:#e31b3f;stop-opacity:1"/></linearGradient><radialGradient id="_Radial10" cx="0" cy="0" r="1" gradientUnits="userSpaceOnUse" gradientTransform="matrix(46.5121,0,0,46.5121,289.727,463.717)"><stop offset="0" style="stop-color:#e31b3f;stop-opacity:1"/><stop offset="0.63" style="stop-color:#8d181d;stop-opacity:1"/><stop offset="0.92" style="stop-color:#6c0c0e;stop-opacity:1"/><stop offset="1" style="stop-color:#6c0c0e;stop-opacity:1"/></radialGradient><linearGradient id="_Linear11" x1="0" y1="0" x2="1" y2="0" gradientUnits="userSpaceOnUse" gradientTransform="matrix(59.3154,0,0,59.3154,279.151,453.821)"><stop offset="0" style="stop-color:#e31c3e;stop-opacity:1"/><stop offset="1" style="stop-color:#8d181d;stop-opacity:1"/></linearGradient><linearGradient id="_Linear12" x1="0" y1="0" x2="1" y2="0" gradientUnits="userSpaceOnUse" gradientTransform="matrix(36.0643,-40.0468,40.0468,36.0643,307.115,502.808)"><stop offset="0" style="stop-color:#e31c3e;stop-opacity:1"/><stop offset="1" style="stop-color:#6c0c0e;stop-opacity:1"/></linearGradient><linearGradient id="_Linear13" x1="0" y1="0" x2="1" y2="0" gradientUnits="userSpaceOnUse" gradientTransform="matrix(10.0535,-56.7196,56.7196,10.0535,370.16,535.142)"><stop offset="0" style="stop-color:#e31c3e;stop-opacity:1"/><stop offset="0" style="stop-color:#e31c3e;stop-opacity:1"/><stop offset="1" style="stop-color:#6c0c0e;stop-opacity:1"/></linearGradient><radialGradient id="_Radial14" cx="0" cy="0" r="1" gradientUnits="userSpaceOnUse" gradientTransform="matrix(32.3587,0,0,32.3587,367.121,476.163)"><stop offset="0" style="stop-color:#e31c3e;stop-opacity:1"/><stop offset="1" style="stop-color:#6c0c0e;stop-opacity:1"/></radialGradient><radialGradient id="_Radial16" cx="0" cy="0" r="1" gradientUnits="userSpaceOnUse" gradientTransform="matrix(6.74383,0,0,6.74383,339.33,462.317)"><stop offset="0" style="stop-color:#e31b3f;stop-opacity:1"/><stop offset="1" style="stop-color:#8d181d;stop-opacity:1"/></radialGradient></defs></svg>