<?xml version="1.0" encoding="UTF-8" standalone="no"?><!DOCTYPE svg PUBLIC "-//W3C//DTD SVG 1.1//EN" "http://www.w3.org/Graphics/SVG/1.1/DTD/svg11.dtd"><svg width="100%" height="100%" viewBox="0 0 1367 642" version="1.1" xmlns="http://www.w3.org/2000/svg" xmlns:xlink="http://www.w3.org/1999/xlink" xml:space="preserve" xmlns:serif="http://www.serif.com/" style="fill-rule:evenodd;clip-rule:evenodd;stroke-linejoin:round;stroke-miterlimit:2;"><g><path d="M604.95,353.004l-0,-245.168l108.704,-0c21.852,-0 38.464,2.202 49.836,6.606c11.372,4.404 20.459,12.18 27.26,23.329c6.8,11.149 10.201,23.469 10.201,36.959c-0,17.393 -5.63,32.054 -16.891,43.984c-11.261,11.929 -28.653,19.511 -52.178,22.744c8.585,4.125 15.107,8.194 19.567,12.208c9.477,8.696 18.452,19.567 26.925,32.611l42.645,66.727l-40.805,0l-32.444,-51.007c-9.477,-14.716 -17.281,-25.977 -23.413,-33.781c-6.132,-7.805 -11.623,-13.268 -16.473,-16.39c-4.85,-3.121 -9.783,-5.295 -14.801,-6.522c-3.679,-0.78 -9.699,-1.17 -18.061,-1.17l-37.628,-0l-0,108.87l-32.444,0Zm32.444,-136.966l69.737,-0c14.829,-0 26.424,-1.533 34.785,-4.599c8.362,-3.066 14.717,-7.972 19.065,-14.717c4.349,-6.745 6.523,-14.076 6.523,-21.992c-0,-11.595 -4.209,-21.127 -12.627,-28.597c-8.417,-7.47 -21.713,-11.205 -39.886,-11.205l-77.597,0l-0,81.11Z" style="fill:#57b9e9;fill-rule:nonzero;"/><path d="M840.753,274.236l30.604,-2.676c1.45,12.264 4.822,22.326 10.118,30.186c5.296,7.861 13.518,14.216 24.668,19.065c11.149,4.85 23.691,7.275 37.628,7.275c12.375,0 23.301,-1.839 32.778,-5.519c9.477,-3.679 16.529,-8.724 21.155,-15.135c4.627,-6.41 6.941,-13.406 6.941,-20.988c-0,-7.693 -2.23,-14.41 -6.69,-20.152c-4.459,-5.741 -11.818,-10.563 -22.075,-14.466c-6.578,-2.564 -21.127,-6.55 -43.649,-11.957c-22.521,-5.407 -38.297,-10.508 -47.327,-15.302c-11.707,-6.132 -20.431,-13.741 -26.173,-22.828c-5.742,-9.086 -8.613,-19.26 -8.613,-30.52c0,-12.376 3.512,-23.943 10.536,-34.702c7.024,-10.759 17.281,-18.926 30.772,-24.5c13.49,-5.575 28.486,-8.362 44.986,-8.362c18.173,0 34.2,2.927 48.081,8.78c13.88,5.853 24.556,14.466 32.026,25.838c7.469,11.372 11.483,24.249 12.041,38.632l-31.106,2.341c-1.673,-15.497 -7.331,-27.204 -16.975,-35.12c-9.644,-7.916 -23.887,-11.874 -42.729,-11.874c-19.622,0 -33.921,3.596 -42.896,10.787c-8.975,7.191 -13.462,15.86 -13.462,26.005c-0,8.808 3.177,16.055 9.532,21.741c6.244,5.686 22.549,11.512 48.917,17.476c26.367,5.965 44.457,11.177 54.268,15.637c14.271,6.578 24.807,14.912 31.608,25.002c6.8,10.09 10.201,21.713 10.201,34.869c-0,13.044 -3.735,25.336 -11.205,36.875c-7.47,11.539 -18.201,20.514 -32.193,26.925c-13.992,6.411 -29.74,9.616 -47.244,9.616c-22.187,0 -40.778,-3.233 -55.773,-9.699c-14.996,-6.467 -26.758,-16.194 -35.287,-29.183c-8.529,-12.989 -13.017,-27.678 -13.463,-44.067Z" style="fill:#57b9e9;fill-rule:nonzero;"/><path d="M1069.2,274.236l30.604,-2.676c1.45,12.264 4.822,22.326 10.118,30.186c5.296,7.861 13.518,14.216 24.667,19.065c11.149,4.85 23.692,7.275 37.629,7.275c12.375,0 23.301,-1.839 32.778,-5.519c9.477,-3.679 16.528,-8.724 21.155,-15.135c4.627,-6.41 6.941,-13.406 6.941,-20.988c-0,-7.693 -2.23,-14.41 -6.69,-20.152c-4.46,-5.741 -11.818,-10.563 -22.075,-14.466c-6.578,-2.564 -21.128,-6.55 -43.649,-11.957c-22.521,-5.407 -38.297,-10.508 -47.328,-15.302c-11.706,-6.132 -20.43,-13.741 -26.172,-22.828c-5.742,-9.086 -8.613,-19.26 -8.613,-30.52c0,-12.376 3.512,-23.943 10.536,-34.702c7.024,-10.759 17.281,-18.926 30.772,-24.5c13.49,-5.575 28.486,-8.362 44.986,-8.362c18.173,0 34.2,2.927 48.081,8.78c13.88,5.853 24.555,14.466 32.025,25.838c7.47,11.372 11.484,24.249 12.041,38.632l-31.106,2.341c-1.672,-15.497 -7.33,-27.204 -16.974,-35.12c-9.644,-7.916 -23.887,-11.874 -42.729,-11.874c-19.622,0 -33.921,3.596 -42.896,10.787c-8.975,7.191 -13.463,15.86 -13.463,26.005c0,8.808 3.178,16.055 9.533,21.741c6.243,5.686 22.549,11.512 48.917,17.476c26.367,5.965 44.457,11.177 54.268,15.637c14.271,6.578 24.806,14.912 31.607,25.002c6.801,10.09 10.202,21.713 10.202,34.869c-0,13.044 -3.735,25.336 -11.205,36.875c-7.47,11.539 -18.201,20.514 -32.193,26.925c-13.992,6.411 -29.74,9.616 -47.244,9.616c-22.187,0 -40.778,-3.233 -55.774,-9.699c-14.995,-6.467 -26.757,-16.194 -35.286,-29.183c-8.53,-12.989 -13.017,-27.678 -13.463,-44.067Z" style="fill:#57b9e9;fill-rule:nonzero;"/></g><g><path d="M516.871,154.873c0,-28.094 -22.813,-50.902 -50.908,-50.902l-318.431,0c-28.095,0 -50.908,22.808 -50.908,50.902l-0,319.869c-0,28.095 22.813,50.902 50.908,50.902l318.431,0c28.095,0 50.908,-22.807 50.908,-50.902l0,-319.869Z" style="fill:#57b9e9;"/><ellipse cx="200.294" cy="421.79" rx="38.89" ry="40.405" style="fill:#184773;"/><path d="M161.404,164.48c0,0 -1.241,60.343 0,60.396c233.421,9.613 236.671,233.005 236.671,233.005l55.976,0c0,0 1.776,-272.049 -292.647,-293.401Z" style="fill:#184773;"/><path d="M161.214,262.578c0,-0 -0.808,57.841 0,57.924c139.637,14.508 138.823,137.379 138.823,137.379l52.774,0c-0,0 13.575,-176.875 -191.597,-195.303Z" style="fill:#184773;"/></g><g><path d="M607.647,522.449l0,-147.046l99.201,-0l0,17.353l-79.742,-0l0,45.538l69.01,-0l-0,17.352l-69.01,0l0,66.803l-19.459,-0Z" style="fill:#57b9e9;fill-rule:nonzero;"/><path d="M823.572,488.145l18.657,2.307c-2.942,10.9 -8.392,19.359 -16.35,25.377c-7.957,6.018 -18.121,9.027 -30.492,9.027c-15.581,0 -27.935,-4.798 -37.063,-14.394c-9.127,-9.595 -13.691,-23.053 -13.691,-40.372c-0,-17.921 4.614,-31.83 13.842,-41.727c9.228,-9.896 21.197,-14.845 35.909,-14.845c14.243,0 25.878,4.849 34.906,14.545c9.027,9.696 13.541,23.337 13.541,40.924c-0,1.07 -0.034,2.674 -0.101,4.814l-79.441,0c0.669,11.702 3.979,20.663 9.931,26.882c5.951,6.219 13.373,9.328 22.267,9.328c6.62,0 12.271,-1.738 16.952,-5.216c4.68,-3.477 8.392,-9.027 11.133,-16.65Zm-59.28,-29.189l59.481,0c-0.803,-8.96 -3.076,-15.681 -6.821,-20.161c-5.751,-6.954 -13.207,-10.432 -22.368,-10.432c-8.291,0 -15.263,2.776 -20.913,8.326c-5.651,5.55 -8.777,12.972 -9.379,22.267Z" style="fill:#57b9e9;fill-rule:nonzero;"/><path d="M958.652,488.145l18.657,2.307c-2.943,10.9 -8.392,19.359 -16.35,25.377c-7.957,6.018 -18.122,9.027 -30.492,9.027c-15.581,0 -27.935,-4.798 -37.063,-14.394c-9.127,-9.595 -13.691,-23.053 -13.691,-40.372c-0,-17.921 4.614,-31.83 13.842,-41.727c9.228,-9.896 21.197,-14.845 35.909,-14.845c14.243,0 25.878,4.849 34.905,14.545c9.028,9.696 13.541,23.337 13.541,40.924c0,1.07 -0.033,2.674 -0.1,4.814l-79.441,0c0.669,11.702 3.979,20.663 9.93,26.882c5.952,6.219 13.374,9.328 22.268,9.328c6.62,0 12.27,-1.738 16.951,-5.216c4.681,-3.477 8.392,-9.027 11.134,-16.65Zm-59.28,-29.189l59.481,0c-0.803,-8.96 -3.076,-15.681 -6.821,-20.161c-5.751,-6.954 -13.207,-10.432 -22.368,-10.432c-8.292,0 -15.263,2.776 -20.913,8.326c-5.651,5.55 -8.777,12.972 -9.379,22.267Z" style="fill:#57b9e9;fill-rule:nonzero;"/><path d="M1089.92,522.449l0,-13.441c-6.753,10.565 -16.684,15.848 -29.79,15.848c-8.492,0 -16.299,-2.34 -23.421,-7.021c-7.122,-4.681 -12.638,-11.218 -16.55,-19.61c-3.912,-8.392 -5.868,-18.038 -5.868,-28.937c-0,-10.633 1.772,-20.279 5.316,-28.938c3.544,-8.66 8.86,-15.297 15.948,-19.911c7.089,-4.614 15.013,-6.921 23.773,-6.921c6.419,0 12.136,1.355 17.152,4.063c5.015,2.708 9.094,6.235 12.237,10.582l-0,-52.76l17.954,-0l0,147.046l-16.751,-0Zm-57.073,-53.161c0,13.641 2.876,23.839 8.626,30.592c5.751,6.754 12.538,10.131 20.362,10.131c7.891,0 14.594,-3.226 20.111,-9.679c5.517,-6.453 8.275,-16.3 8.275,-29.54c0,-14.577 -2.808,-25.276 -8.425,-32.097c-5.617,-6.821 -12.538,-10.231 -20.763,-10.231c-8.025,-0 -14.728,3.276 -20.111,9.83c-5.383,6.553 -8.075,16.884 -8.075,30.994Z" style="fill:#57b9e9;fill-rule:nonzero;"/></g></svg>