<?xml version="1.0" encoding="UTF-8" standalone="no"?><!DOCTYPE svg PUBLIC "-//W3C//DTD SVG 1.1//EN" "http://www.w3.org/Graphics/SVG/1.1/DTD/svg11.dtd"><svg width="100%" height="100%" viewBox="0 0 2484 642" version="1.1" xmlns="http://www.w3.org/2000/svg" xmlns:xlink="http://www.w3.org/1999/xlink" xml:space="preserve" xmlns:serif="http://www.serif.com/" style="fill-rule:evenodd;clip-rule:evenodd;stroke-linejoin:round;stroke-miterlimit:2;"><g><path d="M791.471,245.317c-24.319,0 -35.646,6.607 -35.646,17.507c0,10.178 7.896,13.855 21.422,15.447l61.969,7.305c35.67,4.219 56.518,19.066 56.518,53.49c-0,47.243 -39.988,58.849 -101.743,58.849c-58.381,-0 -97.663,-12.09 -99.633,-64.685l56.403,-0c1.428,23.613 19.805,28.366 45.298,28.366c27.078,-0 41.244,-6.345 41.203,-19.165c-0.049,-12.427 -10.555,-16.358 -25.132,-18.197l-56.149,-7.108c-35.572,-4.456 -56.961,-18.13 -56.961,-51.339c-0,-43.123 39.873,-56.009 94.068,-56.009c53.679,-0 94.922,12.426 96.695,58.726l-56.387,-0c-1.182,-17.926 -18.188,-23.187 -41.925,-23.187Zm124.7,147.156l-0,-133.95l48.573,0l-0,133.95l-48.573,-0Zm-0.493,-151.186l0,-29.539l49.567,-0l-0,29.547l-49.575,0l0.008,-0.008Zm122.574,34.661l1.379,0c12.164,-14.749 33.701,-20.847 53.785,-20.847c21.701,-0 39.372,5.13 48.475,21.151c13.871,-15.201 35.892,-21.159 58.578,-21.159c30.615,-0 54.909,15.758 54.909,50.945l0,86.427l-48.589,-0l-0,-74.198c-0,-17.326 -10.621,-24.196 -26.897,-24.196c-14.667,-0 -32.609,6.837 -32.609,31.345l0,67.057l-48.59,-0l0,-74.214c0,-17.318 -10.62,-24.188 -26.88,-24.188c-14.691,-0 -32.617,6.837 -32.617,31.345l-0,67.057l-48.59,-0l0,-133.95l47.646,0l0,17.425Zm329.096,14.988c-25.313,-0 -39.094,13.649 -39.094,35.457c0,21.799 13.789,35.449 39.094,35.449c24.967,-0 38.124,-12.394 38.124,-35.457c0,-23.064 -13.157,-35.458 -38.124,-35.458l-0,0.009Zm-37.575,87.986l-0,59.038l-48.59,-0l0,-179.445l47.646,0l-0,17.163l1.379,-0c11.261,-12.821 28.587,-20.585 50.764,-20.585c45.331,-0 75.043,25.23 75.043,71.292c0,46.061 -29.712,71.292 -75.043,71.292c-22.177,-0 -38.756,-7.568 -49.82,-18.755l-1.379,0Zm146.77,13.543l-0,-179.724l48.589,-0l0,179.724l-48.589,-0Zm157.489,-107.061c-19.92,-0 -32.158,7.017 -36.491,22.144l72.991,-0c-4.334,-15.127 -16.572,-22.144 -36.492,-22.144l-0.008,-0Zm88.536,40.086c0,3.226 -0.254,8.61 -0.706,12.016l-125.561,0c2.684,19.239 15.414,28.079 38.043,28.079c25.255,-0 31.977,-10.441 33.553,-14.676l52.784,0c-1.839,22.539 -20.068,46.768 -86.337,46.768c-58.997,-0 -88.824,-26.716 -88.824,-72.187c0,-45.462 29.827,-72.17 88.52,-72.17c58.685,-0 88.512,26.708 88.512,72.17l0.016,-0Zm138.037,14.971l53.523,-0c-4.014,32.987 -26.807,57.207 -89.259,57.207c-57.618,0 -87.453,-26.707 -87.453,-72.129c0,-45.569 29.827,-72.227 87.453,-72.227c62.452,-0 84.753,24.179 88.947,56.468l-53.449,0c-1.74,-9.635 -9.931,-20.634 -35.498,-20.634c-23.991,0 -36.885,13.477 -36.885,36.393c-0,22.826 12.894,36.295 36.885,36.295c25.575,-0 33.996,-10.999 35.736,-21.373Zm184.444,-11.532c-2.914,1.986 -8.495,2.93 -13.24,3.611l-35.539,5.385c-10.85,1.682 -17.605,5.605 -17.605,15.479c-0,10.769 9.036,14.405 21.783,14.405c17.646,-0 44.601,-8.594 44.601,-33.627l-0,-5.253Zm52.299,62.05l-0,1.486l-47.654,-0c-2.216,-2.233 -3.71,-7.551 -3.71,-13.773l0,-4.703c-13.214,16.186 -35.884,23.688 -61.558,23.688c-28.152,-0 -56.304,-13.018 -56.304,-43.977c-0,-29.671 17.679,-40.201 44.026,-42.828l56.559,-5.655c9.71,-1.051 14.363,-3.398 14.363,-9.726c0,-6.435 -7.731,-10.875 -26.732,-10.875c-14.363,-0 -26.404,4.095 -27.389,14.018l-51.397,0c1.33,-34.579 36.91,-45.322 78.351,-45.322c45.389,-0 77.727,8.757 77.727,42.179l-0,75.379c-0,7.699 0.246,15.89 3.718,20.109Zm126.809,-92.788c-0.985,-11.023 -13.937,-14.527 -31.986,-14.527c-18.106,-0 -25.599,4.44 -25.599,10.481c-0,5.934 3.668,8.142 15.126,9.488l48.967,5.515c32.938,3.661 49.969,12.837 49.969,42.918c-0,35.95 -30.943,45.602 -84.942,45.602c-48.975,0 -83.693,-8.856 -85.261,-48.22l52.858,0c0.984,13.28 11.802,17.228 33.429,17.228c23.08,0 30.328,-4.941 30.328,-12.09c-0,-6.837 -4.613,-9.094 -16.128,-10.686l-45.471,-5.951c-31.944,-4.112 -50.748,-12.746 -50.748,-40.874c-0,-33.947 33.627,-43.763 78.072,-43.763c45.815,-0 81.346,10.743 82.684,44.887l-51.298,0l-0,-0.008Zm148.887,57.331c4.761,-0 12.394,-0.148 18.82,-0.804l0,37.755c-5.827,0.854 -18.91,2.232 -29.999,2.232c-40.825,0 -53.776,-10.916 -53.776,-41.547l-0,-64.537l-22.572,0l0,-30.098l22.572,0l-0,-36.401l48.581,0l-0,36.393l35.309,0l0,30.098l-35.309,-0l-0,55.311c-0,9.07 6.082,11.606 16.382,11.606l-0.008,-0.008Zm-2277.9,173.896l438.726,0l0,-434.999l-438.726,-0l0,434.999Zm29.244,-28.997l380.246,-0l0,-377.013l-380.246,0l0,377.013Z" style="fill:#57b9e9;"/><path d="M182.888,181.412l-0,261.005l263.253,-0l-263.253,-261.005Zm242.561,184.558l-165.442,-164.055l20.667,-20.503l165.467,164.056l-20.692,20.502Zm0,-82.027l-82.733,-82.028l20.7,-20.503l82.717,82.028l-20.684,20.503Z" style="fill:#57b9e9;"/></g></svg>