<?xml version="1.0" encoding="UTF-8" standalone="no"?><!DOCTYPE svg PUBLIC "-//W3C//DTD SVG 1.1//EN" "http://www.w3.org/Graphics/SVG/1.1/DTD/svg11.dtd"><svg width="100%" height="100%" viewBox="0 0 2580 642" version="1.1" xmlns="http://www.w3.org/2000/svg" xmlns:xlink="http://www.w3.org/1999/xlink" xml:space="preserve" xmlns:serif="http://www.serif.com/" style="fill-rule:evenodd;clip-rule:evenodd;stroke-linejoin:round;stroke-miterlimit:2;"><g><path d="M648.474,233.922l-60.713,0l0,-97.332l15.105,0l0,83.44l45.608,-0l0,13.892Z" style="fill:#57b9e9;fill-rule:nonzero;"/><path d="M665.979,138.741c0,-5.058 3.983,-8.903 9.368,-8.903c5.402,-0 9.393,3.845 9.393,8.903c0,4.989 -3.991,8.834 -9.393,8.834c-5.385,0 -9.368,-3.845 -9.368,-8.834Zm2.168,21.729l14.426,-0l-0,73.452l-14.426,0l0,-73.452Z" style="fill:#57b9e9;fill-rule:nonzero;"/><path d="M732.757,159.05c16.533,0 27.337,7.699 28.748,20.645l-13.893,0c-1.35,-5.393 -6.606,-8.834 -14.855,-8.834c-8.077,-0 -14.219,3.845 -14.219,9.574c-0,4.378 3.707,7.148 11.664,8.963l12.215,2.847c13.952,3.235 20.498,9.23 20.498,20.026c0,13.832 -12.885,23.062 -30.425,23.062c-17.471,-0 -28.868,-7.879 -30.141,-20.912l14.494,0c1.824,5.669 7.217,9.187 16,9.187c9.041,0 15.44,-4.051 15.44,-9.918c0,-4.387 -3.432,-7.225 -10.795,-8.963l-12.817,-2.968c-13.97,-3.311 -20.438,-9.591 -20.438,-20.524c-0,-13.015 11.931,-22.185 28.524,-22.185Z" style="fill:#57b9e9;fill-rule:nonzero;"/><path d="M801.478,142.19l0,18.607l15.914,-0l-0,12.214l-15.914,0l0,37.772c0,7.69 3.166,11.071 10.374,11.071c2.228,-0 3.519,-0.129 5.54,-0.336l-0,12.077c-2.366,0.405 -5.067,0.732 -7.897,0.732c-16.12,-0 -22.528,-5.661 -22.528,-19.828l-0,-41.488l-11.665,0l0,-12.214l11.665,-0l-0,-18.607l14.511,0Z" style="fill:#57b9e9;fill-rule:nonzero;"/><path d="M897.769,214.095c-3.312,13.152 -15.036,21.238 -31.836,21.238c-21.049,-0 -33.943,-14.426 -33.943,-37.892c-0,-23.483 13.161,-38.391 33.866,-38.391c20.438,0 32.791,13.961 32.791,37.041l-0,5.049l-51.879,-0l-0,0.817c0.473,12.877 7.957,21.041 19.561,21.041c8.774,-0 14.769,-3.174 17.471,-8.903l13.969,-0Zm-51.001,-23.673l37.109,-0c-0.344,-11.544 -7.363,-19.028 -18.082,-19.028c-10.726,0 -18.21,7.553 -19.027,19.028Z" style="fill:#57b9e9;fill-rule:nonzero;"/><path d="M918.027,160.47l13.97,-0l-0,11.664l1.083,-0c3.562,-8.163 10.848,-13.084 21.918,-13.084c16.387,0 25.428,9.85 25.428,27.32l-0,47.552l-14.503,0l-0,-43.913c-0,-11.802 -5.118,-17.677 -15.854,-17.677c-10.726,-0 -17.539,7.165 -17.539,18.623l-0,42.967l-14.503,0l-0,-73.452Z" style="fill:#57b9e9;fill-rule:nonzero;"/><path d="M1038.94,197.157c-0,-23.673 13.221,-38.107 34.674,-38.107c21.385,0 34.606,14.434 34.606,38.107c0,23.811 -13.161,38.176 -34.606,38.176c-21.522,-0 -34.674,-14.365 -34.674,-38.176Zm54.382,0c-0,-15.922 -7.157,-25.229 -19.699,-25.229c-12.628,-0 -19.707,9.307 -19.707,25.229c-0,16.06 7.079,25.307 19.707,25.307c12.542,0 19.699,-9.316 19.699,-25.307Z" style="fill:#57b9e9;fill-rule:nonzero;"/><path d="M1127.61,160.47l13.97,-0l-0,11.664l1.084,-0c3.561,-8.163 10.847,-13.084 21.918,-13.084c16.387,0 25.427,9.85 25.427,27.32l0,47.552l-14.503,0l0,-43.913c0,-11.802 -5.118,-17.677 -15.853,-17.677c-10.727,-0 -17.54,7.165 -17.54,18.623l0,42.967l-14.503,0l0,-73.452Z" style="fill:#57b9e9;fill-rule:nonzero;"/><path d="M705.368,440.758l-76.093,-0l-18.28,53.951l-32.223,0l72.068,-199.626l33.487,-0l72.077,199.626l-32.783,0l-18.253,-53.951Zm-68.214,-24.903l60.317,-0l-29.737,-87.569l-0.826,0l-29.754,87.569Z" style="fill:#57b9e9;fill-rule:nonzero;"/><path d="M912.057,421.945c0,45.229 -24.206,74.287 -60.739,74.287c-20.739,-0 -37.203,-9.273 -45.788,-25.462l-0.697,-0l0,72.093l-29.875,0l0,-193.7l28.92,0l0,24.215l0.551,-0c8.301,-15.621 26.012,-25.737 46.339,-25.737c36.937,-0 61.289,29.204 61.289,74.304Zm-30.709,-0c-0,-29.462 -15.226,-48.834 -38.46,-48.834c-22.829,0 -38.175,19.776 -38.175,48.834c-0,29.333 15.346,48.971 38.175,48.971c23.234,0 38.46,-19.234 38.46,-48.971Z" style="fill:#57b9e9;fill-rule:nonzero;"/><path d="M1072.25,421.945c0,45.229 -24.214,74.287 -60.738,74.287c-20.74,-0 -37.213,-9.273 -45.798,-25.462l-0.688,-0l0,72.093l-29.874,0l-0,-193.7l28.911,0l-0,24.215l0.55,-0c8.31,-15.621 26.013,-25.737 46.348,-25.737c36.937,-0 61.289,29.204 61.289,74.304Zm-30.709,-0c0,-29.462 -15.225,-48.834 -38.459,-48.834c-22.83,0 -38.185,19.776 -38.185,48.834c0,29.333 15.355,48.971 38.185,48.971c23.234,0 38.459,-19.234 38.459,-48.971Z" style="fill:#57b9e9;fill-rule:nonzero;"/><rect x="1096.44" y="295.083" width="29.892" height="199.627" style="fill:#57b9e9;"/><path d="M1281.88,451.966c-4.017,26.425 -29.746,44.55 -62.666,44.55c-42.339,-0 -68.618,-28.361 -68.618,-73.874c-0,-45.651 26.417,-75.259 67.362,-75.259c40.266,-0 65.591,27.655 65.591,71.783l-0,10.237l-102.803,-0l-0,1.806c-0,24.903 15.638,41.23 39.156,41.23c16.594,-0 29.608,-7.88 33.608,-20.473l28.37,-0Zm-100.988,-43.44l72.765,-0c-0.689,-22.279 -14.942,-36.937 -35.699,-36.937c-20.61,-0 -35.543,14.941 -37.066,36.937Z" style="fill:#57b9e9;fill-rule:nonzero;"/><path d="M1442.66,295.083c38.735,-0 65.72,26.709 65.72,65.581c-0,39.01 -27.535,65.84 -66.692,65.84l-42.889,0l-0,68.205l-30.985,0l0,-199.626l74.846,-0Zm-43.861,105.417l35.561,0c26.967,0 42.321,-14.537 42.321,-39.698c0,-25.178 -15.354,-39.578 -42.184,-39.578l-35.698,0l-0,79.276Z" style="fill:#57b9e9;fill-rule:nonzero;"/><path d="M1519.29,421.945c0,-45.789 26.976,-74.571 69.031,-74.571c42.202,0 69.04,28.782 69.04,74.571c0,45.926 -26.701,74.571 -69.04,74.571c-42.322,-0 -69.031,-28.645 -69.031,-74.571Zm107.637,-0c0,-31.406 -14.4,-49.952 -38.606,-49.952c-24.206,0 -38.606,18.684 -38.606,49.952c0,31.544 14.4,49.943 38.606,49.943c24.206,0 38.606,-18.399 38.606,-49.943Z" style="fill:#57b9e9;fill-rule:nonzero;"/><path d="M1678.34,421.945c0,-44.963 24.757,-74.304 60.86,-74.304c20.894,-0 37.367,9.686 45.65,25.737l0.568,-0l0,-78.295l30.021,-0l0,199.626l-29.057,0l-0,-24.756l-0.551,-0c-8.576,16.602 -25.187,26.288 -46.348,26.288c-36.386,-0.009 -61.143,-29.333 -61.143,-74.296Zm30.563,-0c0,29.875 15.226,48.971 38.46,48.971c22.967,0 38.322,-19.372 38.322,-48.971c-0,-29.342 -15.355,-48.834 -38.322,-48.834c-23.234,0 -38.46,19.226 -38.46,48.834Z" style="fill:#57b9e9;fill-rule:nonzero;"/><path d="M1942.57,399.244c-2.623,-15.346 -14.666,-26.821 -34.305,-26.821c-22.967,0 -38.192,19.226 -38.192,49.531c-0,30.984 15.371,49.65 38.459,49.65c18.537,0 30.727,-9.264 34.038,-26.133l28.774,0c-3.312,30.563 -27.802,51.053 -63.079,51.053c-41.504,0 -68.618,-28.369 -68.618,-74.57c0,-45.247 27.114,-74.571 68.335,-74.571c37.35,-0 60.601,23.518 63.095,51.87l-28.507,-0l0,-0.009Z" style="fill:#57b9e9;fill-rule:nonzero;"/><path d="M1989.65,453.342c0,-25.444 19.501,-40.816 54.081,-42.889l39.844,-2.211l0,-11.071c0,-16.18 -10.64,-25.316 -28.756,-25.316c-16.611,0 -28.232,7.897 -30.58,20.482l-27.948,-0c0.834,-26.297 25.307,-44.963 59.345,-44.963c34.726,0 57.694,18.95 57.694,47.586l-0,99.749l-28.636,0l-0,-23.939l-0.688,-0c-8.448,16.189 -26.847,26.434 -45.935,26.434c-28.499,0.009 -48.421,-17.703 -48.421,-43.862Zm93.925,-13.135l0,-11.208l-35.818,2.21c-17.858,1.119 -27.948,8.852 -27.948,21.307c-0,12.731 10.52,21.032 26.563,21.032c20.894,0 37.203,-14.391 37.203,-33.341Z" style="fill:#57b9e9;fill-rule:nonzero;"/><path d="M2196.72,347.52c32.249,0 55.336,17.832 56.033,43.561l-28.085,-0c-1.239,-12.851 -12.172,-20.731 -28.783,-20.731c-16.18,0 -26.967,7.458 -26.967,18.804c-0,8.714 7.191,14.52 22.279,18.254l24.49,5.685c29.324,7.054 40.395,17.832 40.395,39.157c0,26.279 -24.903,44.266 -60.463,44.266c-34.314,-0 -57.41,-17.583 -59.621,-44.146l29.591,0c2.09,13.97 13.282,21.445 31.415,21.445c17.849,0 29.057,-7.329 29.057,-18.95c0,-8.989 -5.54,-13.832 -20.757,-17.703l-26.012,-6.357c-26.296,-6.374 -39.578,-19.802 -39.578,-39.991c0.009,-25.728 23.114,-43.294 57.006,-43.294Z" style="fill:#57b9e9;fill-rule:nonzero;"/><path d="M2320.99,314.721l-0,34.451l27.681,-0l0,23.655l-27.681,0l-0,80.24c-0,12.464 5.54,18.271 17.711,18.271c3.046,-0 7.897,-0.422 9.824,-0.688l-0,23.517c-3.312,0.826 -9.953,1.377 -16.593,1.377c-29.462,-0 -40.955,-11.071 -40.955,-39.294l0,-83.423l-21.169,0l-0,-23.664l21.169,0l0,-34.442l30.013,-0Z" style="fill:#57b9e9;fill-rule:nonzero;"/><path d="M2429,347.52c32.249,0 55.345,17.832 56.033,43.561l-28.085,-0c-1.239,-12.851 -12.164,-20.731 -28.774,-20.731c-16.189,0 -26.976,7.458 -26.976,18.804c0,8.714 7.191,14.52 22.279,18.254l24.49,5.685c29.324,7.054 40.395,17.832 40.395,39.157c0,26.279 -24.903,44.266 -60.455,44.266c-34.322,-0 -57.41,-17.583 -59.629,-44.146l29.591,0c2.09,13.97 13.282,21.445 31.415,21.445c17.849,0 29.057,-7.329 29.057,-18.95c0,-8.989 -5.539,-13.832 -20.748,-17.703l-26.012,-6.357c-26.297,-6.374 -39.578,-19.802 -39.578,-39.991c-0,-25.728 23.105,-43.294 56.997,-43.294Z" style="fill:#57b9e9;fill-rule:nonzero;"/><path id="XMLID_1381_" d="M487.909,463.372c-3.931,9.987 -13.006,24.051 -25.875,33.952c-7.423,5.721 -16.292,11.192 -28.472,14.804c-12.989,3.846 -28.989,5.144 -48.894,5.144l-182.027,0c-19.905,0 -35.905,-1.298 -48.894,-5.144c-12.181,-3.612 -21.049,-9.083 -28.481,-14.804c-12.86,-9.901 -21.935,-23.965 -25.867,-33.952c-7.922,-20.128 -7.999,-42.958 -7.999,-57.341l-0,-182.027c-0,-14.382 0.077,-37.212 7.999,-57.341c3.932,-9.987 13.007,-24.051 25.875,-33.952c7.424,-5.72 16.292,-11.191 28.473,-14.804c12.989,-3.845 28.989,-5.144 48.894,-5.144l182.027,-0c19.905,-0 35.905,1.299 48.894,5.144c12.18,3.613 21.049,9.084 28.481,14.804c12.86,9.909 21.935,23.965 25.866,33.952c7.923,20.129 8,42.959 8,57.341l0,182.027c0,14.383 -0.077,37.213 -8,57.341Z" style="fill:#57b9e9;"/><path id="XMLID_1369_" d="M322.991,345.267c-6.073,-6.4 -16.73,-10.512 -29.315,-10.512c-12.594,-0 -23.251,4.112 -29.324,10.512c-3.166,3.346 -4.843,6.769 -5.368,11.647c-1.024,9.453 -0.447,17.591 0.662,30.606c1.05,12.395 3.054,28.928 5.669,45.762c1.858,11.983 3.372,18.452 4.748,23.088c2.228,7.501 10.572,14.064 23.613,14.064c13.032,0 21.376,-6.563 23.604,-14.064c1.376,-4.636 2.89,-11.105 4.748,-23.088c2.615,-16.834 4.619,-33.367 5.669,-45.762c1.109,-13.015 1.686,-21.153 0.662,-30.606c-0.525,-4.878 -2.202,-8.301 -5.368,-11.647Zm-62.39,-57.023c0,18.279 14.821,33.1 33.101,33.1c18.287,0 33.109,-14.821 33.109,-33.1c-0,-18.288 -14.822,-33.109 -33.109,-33.109c-18.28,-0 -33.101,14.821 -33.101,33.109Zm32.696,-130.647c-77.426,0.215 -140.875,63.027 -141.83,140.453c-0.774,62.709 39.26,116.36 95.156,136.024c1.359,0.481 2.735,-0.645 2.52,-2.073c-0.731,-4.869 -1.419,-9.764 -2.056,-14.572c-0.223,-1.703 -1.307,-3.166 -2.881,-3.854c-44.18,-19.303 -75.036,-63.62 -74.545,-114.948c0.653,-67.363 55.655,-122.287 123.026,-122.829c68.859,-0.559 125.064,55.303 125.064,124.041c0,50.821 -30.718,94.588 -74.562,113.736c-1.574,0.688 -2.649,2.159 -2.873,3.854c-0.637,4.817 -1.325,9.703 -2.056,14.572c-0.215,1.419 1.161,2.546 2.52,2.073c55.372,-19.475 95.173,-72.292 95.173,-134.235c0,-78.57 -64.033,-142.466 -142.656,-142.242Zm-2.572,65.263c43.888,-1.703 80.137,33.505 80.137,77.031c-0,22.133 -9.377,42.115 -24.361,56.188c-1.273,1.187 -1.953,2.882 -1.858,4.628c0.301,5.29 0.189,10.434 -0.164,16.241c-0.094,1.548 1.643,2.537 2.925,1.669c25.135,-17.179 41.66,-46.056 41.66,-78.726c-0,-53.797 -44.808,-97.332 -99.061,-95.224c-50.417,1.952 -90.872,43.526 -91.517,93.977c-0.422,33.186 16.206,62.579 41.66,79.973c1.281,0.877 3.01,-0.121 2.916,-1.661c-0.353,-5.815 -0.456,-10.959 -0.164,-16.249c0.103,-1.737 -0.585,-3.432 -1.849,-4.628c-15.458,-14.511 -24.946,-35.302 -24.344,-58.261c1.067,-40.395 33.634,-73.401 74.02,-74.958Z" style="fill:#184773;fill-rule:nonzero;"/></g></svg>