<?xml version="1.0" encoding="UTF-8" standalone="no"?><!DOCTYPE svg PUBLIC "-//W3C//DTD SVG 1.1//EN" "http://www.w3.org/Graphics/SVG/1.1/DTD/svg11.dtd"><svg width="100%" height="100%" viewBox="0 0 5000 2500" version="1.1" xmlns="http://www.w3.org/2000/svg" xmlns:xlink="http://www.w3.org/1999/xlink" xml:space="preserve" xmlns:serif="http://www.serif.com/" style="fill-rule:evenodd;clip-rule:evenodd;stroke-linejoin:round;stroke-miterlimit:2;"><g><path d="M1028.21,1864.45l-9.587,7.35c-5.284,-6.878 -11.634,-12.096 -19.041,-15.644c-7.407,-3.557 -15.54,-5.341 -24.41,-5.341c-9.699,0 -18.672,2.331 -26.938,6.992c-8.266,4.652 -14.663,10.908 -19.211,18.749c-4.538,7.85 -6.812,16.682 -6.812,26.476c-0,14.823 5.076,27.184 15.238,37.1c10.162,9.908 22.985,14.871 38.459,14.871c17.022,-0 31.26,-6.662 42.715,-19.994l9.587,7.265c-6.058,7.718 -13.625,13.682 -22.683,17.899c-9.058,4.209 -19.173,6.313 -30.355,6.313c-21.267,-0 -38.034,-7.067 -50.319,-21.24c-10.295,-11.936 -15.446,-26.372 -15.446,-43.29c-0,-17.786 6.237,-32.751 18.71,-44.894c12.474,-12.144 28.099,-18.22 46.886,-18.22c11.351,-0 21.598,2.236 30.731,6.737c9.143,4.482 16.635,10.775 22.476,18.871" style="fill:#403f41;fill-rule:nonzero;"/><path d="M1093.19,1882.55c-9.615,0 -17.881,3.558 -24.788,10.663c-6.916,7.105 -10.369,15.691 -10.369,25.768c-0,6.511 1.575,12.559 4.727,18.182c3.151,5.615 7.407,9.964 12.766,13.012c5.369,3.057 11.247,4.586 17.664,4.586c6.406,-0 12.294,-1.529 17.663,-4.586c5.359,-3.048 9.615,-7.397 12.766,-13.012c3.152,-5.623 4.727,-11.671 4.727,-18.182c0,-10.077 -3.472,-18.663 -10.407,-25.768c-6.935,-7.105 -15.191,-10.663 -24.749,-10.663m0.037,-11.322c13.852,-0 25.325,5.019 34.431,15.04c8.284,9.143 12.417,19.966 12.417,32.468c-0,12.558 -4.369,23.532 -13.116,32.93c-8.746,9.388 -19.993,14.078 -33.732,14.078c-13.794,-0 -25.06,-4.69 -33.807,-14.078c-8.747,-9.398 -13.116,-20.372 -13.116,-32.93c0,-12.436 4.133,-23.24 12.418,-32.383c9.095,-10.077 20.607,-15.125 34.505,-15.125" style="fill:#403f41;fill-rule:nonzero;"/><rect x="1159.75" y="1838.84" width="11.568" height="124.587" style="fill:#403f41;"/><path d="M1271.03,1909.4c-1.547,-6.161 -3.793,-11.096 -6.746,-14.785c-2.953,-3.69 -6.85,-6.662 -11.7,-8.926c-4.85,-2.256 -9.955,-3.388 -15.305,-3.388c-8.822,0 -16.408,2.84 -22.749,8.511c-4.633,4.133 -8.133,10.323 -10.502,18.588l67.002,0Zm0,24.212l9.747,5.114c-3.198,6.284 -6.888,11.36 -11.077,15.21c-4.19,3.859 -8.907,6.784 -14.144,8.803c-5.237,2.001 -11.162,3.01 -17.777,3.01c-14.672,0 -26.136,-4.802 -34.402,-14.417c-8.265,-9.615 -12.407,-20.475 -12.407,-32.6c-0,-11.398 3.5,-21.56 10.511,-30.486c8.869,-11.342 20.749,-17.013 35.638,-17.013c15.323,0 27.561,5.813 36.704,17.428c6.511,8.218 9.823,18.465 9.926,30.731l-80.881,0c0.217,10.455 3.557,19.004 10.011,25.684c6.454,6.671 14.427,10.011 23.91,10.011c4.566,0 9.02,-0.792 13.36,-2.387c4.322,-1.585 8.002,-3.699 11.04,-6.331c3.029,-2.633 6.312,-6.888 9.841,-12.757" style="fill:#403f41;fill-rule:nonzero;"/><path d="M1392.56,1892.21l-9.171,5.699c-7.917,-10.511 -18.73,-15.776 -32.43,-15.776c-10.955,-0 -20.041,3.529 -27.269,10.558c-7.237,7.049 -10.86,15.607 -10.86,25.675c-0,6.538 1.67,12.709 4.991,18.484c3.331,5.765 7.898,10.256 13.7,13.455c5.813,3.189 12.314,4.774 19.513,4.774c13.21,0 23.995,-5.246 32.355,-15.776l9.171,6.029c-4.293,6.473 -10.068,11.502 -17.305,15.059c-7.246,3.567 -15.493,5.35 -24.749,5.35c-14.21,0 -25.995,-4.51 -35.355,-13.549c-9.37,-9.03 -14.05,-20.022 -14.05,-32.968c0,-8.699 2.189,-16.776 6.567,-24.24c4.378,-7.473 10.398,-13.295 18.051,-17.484c7.661,-4.17 16.229,-6.275 25.693,-6.275c5.953,0 11.69,0.906 17.229,2.727c5.539,1.821 10.238,4.19 14.087,7.105c3.85,2.925 7.134,6.643 9.832,11.153" style="fill:#403f41;fill-rule:nonzero;"/><path d="M1424.87,1840.16l11.568,-0l-0,33.373l18.342,0l0,10.002l-18.342,0l-0,79.891l-11.568,-0l-0,-79.891l-15.777,0l0,-10.002l15.777,0l-0,-33.373Z" style="fill:#403f41;fill-rule:nonzero;"/><path d="M1470.39,1873.54l11.568,-0l0,89.892l-11.568,0l0,-89.892Zm5.737,-37.016c2.623,0 4.878,0.944 6.746,2.812c1.869,1.878 2.793,4.123 2.793,6.775c0,2.595 -0.924,4.821 -2.793,6.69c-1.868,1.877 -4.123,2.811 -6.746,2.811c-2.576,0 -4.793,-0.934 -6.661,-2.811c-1.869,-1.869 -2.793,-4.095 -2.793,-6.69c-0,-2.652 0.924,-4.897 2.793,-6.775c1.868,-1.868 4.085,-2.812 6.661,-2.812" style="fill:#403f41;fill-rule:nonzero;"/><path d="M1497.49,1873.54l12.314,0l30.165,65.53l29.817,-65.53l12.388,0l-41.148,89.893l-2.142,-0l-41.394,-89.893Z" style="fill:#403f41;fill-rule:nonzero;"/><path d="M1642.27,1882.55c-9.615,0 -17.88,3.558 -24.787,10.663c-6.916,7.105 -10.36,15.691 -10.36,25.768c-0,6.511 1.566,12.559 4.718,18.182c3.151,5.615 7.416,9.964 12.775,13.012c5.36,3.057 11.248,4.586 17.654,4.586c6.407,-0 12.295,-1.529 17.673,-4.586c5.35,-3.048 9.605,-7.397 12.757,-13.012c3.151,-5.623 4.727,-11.671 4.727,-18.182c0,-10.077 -3.463,-18.663 -10.407,-25.768c-6.935,-7.105 -15.192,-10.663 -24.75,-10.663m0.047,-11.322c13.842,-0 25.316,5.019 34.431,15.04c8.275,9.143 12.417,19.966 12.417,32.468c-0,12.558 -4.378,23.532 -13.125,32.93c-8.747,9.388 -19.984,14.078 -33.723,14.078c-13.794,-0 -25.07,-4.69 -33.817,-14.078c-8.746,-9.398 -13.106,-20.372 -13.106,-32.93c0,-12.436 4.124,-23.24 12.408,-32.383c9.105,-10.077 20.607,-15.125 34.515,-15.125" style="fill:#403f41;fill-rule:nonzero;"/><path d="M1800.9,1882.38c-6.435,0 -12.379,1.585 -17.824,4.746c-5.453,3.161 -9.784,7.615 -12.992,13.333c-3.227,5.718 -4.832,11.766 -4.832,18.154c0,6.331 1.623,12.379 4.869,18.154c3.246,5.774 7.615,10.285 13.078,13.493c5.473,3.217 11.351,4.821 17.616,4.821c6.331,0 12.323,-1.585 18.003,-4.774c5.661,-3.199 10.021,-7.52 13.078,-12.965c3.048,-5.435 4.576,-11.577 4.576,-18.399c0,-10.398 -3.425,-19.098 -10.275,-26.08c-6.85,-6.992 -15.276,-10.483 -25.297,-10.483m46.234,-43.535l0,124.587l-11.407,-0l-0,-15.456c-4.85,5.907 -10.285,10.332 -16.324,13.304c-6.029,2.973 -12.625,4.463 -19.777,4.463c-12.728,0 -23.598,-4.614 -32.6,-13.832c-9.001,-9.228 -13.502,-20.456 -13.502,-33.676c0,-12.936 4.548,-24.004 13.634,-33.213c9.087,-9.19 20.013,-13.795 32.798,-13.795c7.379,0 14.059,1.567 20.032,4.709c5.982,3.142 11.219,7.85 15.739,14.125l-0,-51.216l11.407,-0Z" style="fill:#403f41;fill-rule:nonzero;"/><path d="M1949,1909.4c-1.548,-6.161 -3.793,-11.096 -6.747,-14.785c-2.953,-3.69 -6.85,-6.662 -11.7,-8.926c-4.85,-2.256 -9.964,-3.388 -15.304,-3.388c-8.823,0 -16.409,2.84 -22.75,8.511c-4.642,4.133 -8.133,10.323 -10.501,18.588l67.002,0Zm-0,24.212l9.747,5.114c-3.199,6.284 -6.888,11.36 -11.078,15.21c-4.189,3.859 -8.907,6.784 -14.144,8.803c-5.236,2.001 -11.162,3.01 -17.786,3.01c-14.663,0 -26.127,-4.802 -34.392,-14.417c-8.275,-9.615 -12.408,-20.475 -12.408,-32.6c-0,-11.398 3.5,-21.56 10.511,-30.486c8.86,-11.342 20.749,-17.013 35.629,-17.013c15.333,0 27.57,5.813 36.714,17.428c6.51,8.218 9.813,18.465 9.926,30.731l-80.882,0c0.217,10.455 3.557,19.004 10.011,25.684c6.445,6.671 14.427,10.011 23.901,10.011c4.576,0 9.029,-0.792 13.36,-2.387c4.331,-1.585 8.011,-3.699 11.049,-6.331c3.029,-2.633 6.313,-6.888 9.842,-12.757" style="fill:#403f41;fill-rule:nonzero;"/><path d="M2080.15,1867.72l-20.834,43.989l41.564,-0l-20.73,-43.989Zm1.538,-25.825l56.67,121.53l-13.125,0l-19.107,-39.988l-52.358,0l-18.928,39.988l-13.549,0l57.415,-121.53l2.982,0Z" style="fill:#403f41;fill-rule:nonzero;"/><path d="M2150.92,1873.54l11.813,0l-0,13.134c3.519,-5.17 7.237,-9.039 11.153,-11.596c3.906,-2.566 7.982,-3.85 12.228,-3.85c3.189,0 6.614,1.029 10.247,3.058l-6.029,9.746c-2.435,-1.037 -4.463,-1.566 -6.114,-1.566c-3.86,0 -7.577,1.576 -11.153,4.756c-3.595,3.161 -6.322,8.086 -8.181,14.738c-1.443,5.124 -2.151,15.484 -2.151,31.062l-0,30.411l-11.813,-0l-0,-89.893Z" style="fill:#403f41;fill-rule:nonzero;"/><path d="M2216.27,1840.16l11.568,-0l0,33.373l18.343,0l-0,10.002l-18.343,0l0,79.891l-11.568,-0l0,-79.891l-15.776,0l-0,-10.002l15.776,0l0,-33.373Z" style="fill:#403f41;fill-rule:nonzero;"/><path d="M2261.79,1873.54l11.568,-0l0,89.892l-11.568,0l0,-89.892Zm5.737,-37.016c2.632,0 4.888,0.944 6.756,2.812c1.859,1.878 2.793,4.123 2.793,6.775c-0,2.595 -0.934,4.821 -2.793,6.69c-1.868,1.877 -4.124,2.811 -6.756,2.811c-2.566,0 -4.793,-0.934 -6.652,-2.811c-1.868,-1.869 -2.802,-4.095 -2.802,-6.69c-0,-2.652 0.934,-4.897 2.802,-6.775c1.859,-1.868 4.086,-2.812 6.652,-2.812" style="fill:#403f41;fill-rule:nonzero;"/><path d="M2342.59,1883.37l-7.435,7.681c-6.19,-5.992 -12.238,-9.002 -18.144,-9.002c-3.746,-0 -6.973,1.236 -9.653,3.718c-2.68,2.481 -4.01,5.368 -4.01,8.671c-0,2.934 1.094,5.699 3.302,8.35c2.208,2.699 6.851,5.86 13.918,9.502c8.605,4.454 14.455,8.756 17.55,12.889c3.029,4.189 4.557,8.898 4.557,14.125c0,7.388 -2.594,13.634 -7.784,18.758c-5.19,5.114 -11.672,7.68 -19.447,7.68c-5.18,0 -10.143,-1.122 -14.851,-3.387c-4.718,-2.255 -8.624,-5.369 -11.7,-9.341l7.265,-8.256c5.897,6.671 12.172,9.992 18.786,9.992c4.642,-0 8.596,-1.481 11.851,-4.463c3.265,-2.972 4.888,-6.463 4.888,-10.492c-0,-3.303 -1.076,-6.237 -3.237,-8.832c-2.141,-2.529 -7.01,-5.727 -14.559,-9.587c-8.124,-4.18 -13.643,-8.312 -16.559,-12.398c-2.925,-4.067 -4.388,-8.718 -4.388,-13.955c0,-6.822 2.322,-12.502 6.983,-17.022c4.661,-4.51 10.549,-6.775 17.673,-6.775c8.275,0 16.606,4.048 24.994,12.144" style="fill:#403f41;fill-rule:nonzero;"/><path d="M2373.16,1840.16l11.568,-0l-0,33.373l18.342,0l0,10.002l-18.342,0l-0,79.891l-11.568,-0l-0,-79.891l-15.777,0l0,-10.002l15.777,0l-0,-33.373Z" style="fill:#403f41;fill-rule:nonzero;"/><path d="M2463.75,1882.38c-6.435,0 -12.38,1.585 -17.824,4.746c-5.454,3.161 -9.785,7.615 -12.993,13.333c-3.227,5.718 -4.831,11.766 -4.831,18.154c0,6.331 1.623,12.379 4.869,18.154c3.246,5.774 7.614,10.285 13.078,13.493c5.472,3.217 11.351,4.821 17.616,4.821c6.331,0 12.323,-1.585 18.003,-4.774c5.661,-3.199 10.02,-7.52 13.078,-12.965c3.047,-5.435 4.576,-11.577 4.576,-18.399c-0,-10.398 -3.425,-19.098 -10.276,-26.08c-6.85,-6.992 -15.276,-10.483 -25.296,-10.483m46.234,-8.841l-0,89.893l-11.408,-0l0,-15.456c-4.849,5.907 -10.284,10.332 -16.323,13.304c-6.029,2.973 -12.625,4.463 -19.777,4.463c-12.729,0 -23.598,-4.614 -32.6,-13.832c-9.001,-9.228 -13.502,-20.456 -13.502,-33.676c-0,-12.936 4.548,-24.004 13.634,-33.213c9.087,-9.19 20.013,-13.795 32.798,-13.795c7.379,0 14.059,1.567 20.032,4.709c5.982,3.142 11.219,7.85 15.738,14.125l0,-16.522l11.408,0Z" style="fill:#403f41;fill-rule:nonzero;"/><path d="M2581.2,1883.37l-7.435,7.681c-6.19,-5.992 -12.238,-9.002 -18.145,-9.002c-3.746,-0 -6.973,1.236 -9.652,3.718c-2.68,2.481 -4.011,5.368 -4.011,8.671c0,2.934 1.095,5.699 3.303,8.35c2.208,2.699 6.85,5.86 13.917,9.502c8.606,4.454 14.456,8.756 17.55,12.889c3.029,4.189 4.558,8.898 4.558,14.125c-0,7.388 -2.595,13.634 -7.784,18.758c-5.19,5.114 -11.672,7.68 -19.447,7.68c-5.18,0 -10.143,-1.122 -14.852,-3.387c-4.718,-2.255 -8.624,-5.369 -11.7,-9.341l7.266,-8.256c5.897,6.671 12.171,9.992 18.786,9.992c4.642,-0 8.596,-1.481 11.851,-4.463c3.265,-2.972 4.887,-6.463 4.887,-10.492c0,-3.303 -1.075,-6.237 -3.236,-8.832c-2.142,-2.529 -7.011,-5.727 -14.559,-9.587c-8.124,-4.18 -13.644,-8.312 -16.559,-12.398c-2.925,-4.067 -4.388,-8.718 -4.388,-13.955c0,-6.822 2.321,-12.502 6.982,-17.022c4.661,-4.51 10.549,-6.775 17.673,-6.775c8.275,0 16.607,4.048 24.995,12.144" style="fill:#403f41;fill-rule:nonzero;"/><rect x="909.562" y="2009.57" width="8.671" height="86.807" style="fill:#403f41;"/><path d="M936.766,2032.17l8.266,-0l-0,11.511c3.302,-4.406 6.963,-7.699 10.973,-9.879c4.01,-2.189 8.379,-3.283 13.097,-3.283c4.803,-0 9.058,1.226 12.776,3.661c3.717,2.443 6.463,5.718 8.237,9.85c1.774,4.133 2.651,10.568 2.651,19.296l0,33.053l-8.256,-0l0,-30.628c0,-7.388 -0.311,-12.332 -0.925,-14.814c-0.953,-4.246 -2.793,-7.445 -5.501,-9.586c-2.717,-2.142 -6.255,-3.218 -10.624,-3.218c-5.001,0 -9.483,1.651 -13.436,4.954c-3.954,3.302 -6.558,7.397 -7.813,12.275c-0.783,3.19 -1.179,9.021 -1.179,17.466l-0,23.551l-8.266,-0l0,-64.209Z" style="fill:#403f41;fill-rule:nonzero;"/><path d="M1041.54,2038.48c-4.595,0 -8.841,1.132 -12.728,3.387c-3.897,2.265 -6.992,5.445 -9.285,9.521c-2.302,4.086 -3.453,8.416 -3.453,12.974c-0,4.519 1.16,8.841 3.481,12.964c2.312,4.124 5.435,7.341 9.342,9.643c3.906,2.303 8.105,3.444 12.587,3.444c4.519,0 8.803,-1.132 12.841,-3.415c4.048,-2.284 7.171,-5.369 9.351,-9.266c2.18,-3.878 3.274,-8.256 3.274,-13.134c0,-7.426 -2.453,-13.644 -7.35,-18.626c-4.888,-4.991 -10.908,-7.492 -18.06,-7.492m33.015,-31.1l0,88.997l-8.143,-0l0,-11.04c-3.462,4.218 -7.34,7.379 -11.653,9.502c-4.312,2.123 -9.02,3.189 -14.134,3.189c-9.086,-0 -16.852,-3.293 -23.278,-9.879c-6.435,-6.605 -9.652,-14.616 -9.652,-24.061c-0,-9.237 3.246,-17.144 9.737,-23.721c6.492,-6.558 14.305,-9.851 23.429,-9.851c5.274,0 10.049,1.114 14.314,3.36c4.264,2.245 8.01,5.604 11.237,10.096l0,-36.592l8.143,0Z" style="fill:#403f41;fill-rule:nonzero;"/><path d="M1147.33,2057.78c-1.104,-4.407 -2.708,-7.917 -4.812,-10.568c-2.113,-2.623 -4.897,-4.756 -8.369,-6.369c-3.463,-1.604 -7.105,-2.416 -10.927,-2.416c-6.302,0 -11.718,2.029 -16.248,6.077c-3.311,2.944 -5.812,7.378 -7.501,13.276l47.857,-0Zm0,17.295l6.964,3.652c-2.284,4.491 -4.926,8.114 -7.917,10.86c-2.991,2.765 -6.359,4.85 -10.096,6.293c-3.746,1.425 -7.973,2.142 -12.7,2.142c-10.483,0 -18.673,-3.434 -24.58,-10.284c-5.906,-6.869 -8.85,-14.626 -8.85,-23.287c-0,-8.143 2.5,-15.409 7.492,-21.778c6.34,-8.095 14.832,-12.162 25.466,-12.162c10.946,-0 19.683,4.161 26.222,12.455c4.642,5.869 7.01,13.181 7.086,21.956l-57.774,0c0.16,7.455 2.538,13.569 7.152,18.343c4.605,4.765 10.304,7.152 17.078,7.152c3.265,0 6.445,-0.566 9.54,-1.698c3.095,-1.142 5.718,-2.652 7.878,-4.539c2.18,-1.877 4.52,-4.906 7.039,-9.105" style="fill:#403f41;fill-rule:nonzero;"/><path d="M1204.98,2038.48c-7.142,0 -13.162,2.501 -18.05,7.492c-4.878,4.982 -7.322,11.2 -7.322,18.626c0,4.878 1.085,9.256 3.265,13.134c2.179,3.897 5.303,6.982 9.36,9.266c4.057,2.283 8.35,3.415 12.87,3.415c4.435,0 8.596,-1.141 12.502,-3.444c3.906,-2.302 7.02,-5.519 9.332,-9.643c2.321,-4.123 3.482,-8.445 3.482,-12.964c-0,-4.558 -1.152,-8.888 -3.454,-12.974c-2.293,-4.076 -5.388,-7.256 -9.266,-9.521c-3.887,-2.255 -8.124,-3.387 -12.719,-3.387m-33.043,-6.312l8.256,-0l0,11.804c3.265,-4.492 7.02,-7.851 11.257,-10.096c4.246,-2.246 8.982,-3.36 14.219,-3.36c9.115,0 16.918,3.293 23.4,9.851c6.483,6.577 9.728,14.484 9.728,23.721c0,9.445 -3.217,17.456 -9.643,24.061c-6.425,6.586 -14.172,9.879 -23.249,9.879c-5.114,-0 -9.813,-1.066 -14.097,-3.189c-4.283,-2.123 -8.152,-5.284 -11.615,-9.502l0,34.525l-8.256,-0l-0,-87.694Z" style="fill:#403f41;fill-rule:nonzero;"/><path d="M1308.31,2057.78c-1.104,-4.407 -2.708,-7.917 -4.812,-10.568c-2.114,-2.623 -4.897,-4.756 -8.37,-6.369c-3.462,-1.604 -7.105,-2.416 -10.926,-2.416c-6.303,0 -11.719,2.029 -16.248,6.077c-3.312,2.944 -5.812,7.378 -7.501,13.276l47.857,-0Zm-0,17.295l6.963,3.652c-2.283,4.491 -4.925,8.114 -7.916,10.86c-2.991,2.765 -6.36,4.85 -10.096,6.293c-3.746,1.425 -7.973,2.142 -12.7,2.142c-10.483,0 -18.673,-3.434 -24.58,-10.284c-5.907,-6.869 -8.851,-14.626 -8.851,-23.287c0,-8.143 2.501,-15.409 7.492,-21.778c6.341,-8.095 14.833,-12.162 25.467,-12.162c10.945,-0 19.682,4.161 26.221,12.455c4.643,5.869 7.011,13.181 7.086,21.956l-57.774,0c0.161,7.455 2.539,13.569 7.153,18.343c4.604,4.765 10.303,7.152 17.078,7.152c3.265,0 6.444,-0.566 9.539,-1.698c3.095,-1.142 5.718,-2.652 7.879,-4.539c2.18,-1.877 4.52,-4.906 7.039,-9.105" style="fill:#403f41;fill-rule:nonzero;"/><path d="M1332.81,2032.17l8.265,-0l0,11.511c3.303,-4.406 6.964,-7.699 10.974,-9.879c4.01,-2.189 8.379,-3.283 13.096,-3.283c4.803,-0 9.059,1.226 12.776,3.661c3.718,2.443 6.464,5.718 8.237,9.85c1.774,4.133 2.652,10.568 2.652,19.296l-0,33.053l-8.256,-0l-0,-30.628c-0,-7.388 -0.312,-12.332 -0.925,-14.814c-0.953,-4.246 -2.793,-7.445 -5.501,-9.586c-2.717,-2.142 -6.256,-3.218 -10.624,-3.218c-5.001,0 -9.483,1.651 -13.437,4.954c-3.953,3.302 -6.557,7.397 -7.812,12.275c-0.783,3.19 -1.18,9.021 -1.18,17.466l0,23.551l-8.265,-0l-0,-64.209Z" style="fill:#403f41;fill-rule:nonzero;"/><path d="M1437.58,2038.48c-4.595,0 -8.841,1.132 -12.729,3.387c-3.897,2.265 -6.991,5.445 -9.284,9.521c-2.303,4.086 -3.454,8.416 -3.454,12.974c0,4.519 1.161,8.841 3.482,12.964c2.312,4.124 5.435,7.341 9.341,9.643c3.907,2.303 8.105,3.444 12.587,3.444c4.52,0 8.804,-1.132 12.842,-3.415c4.048,-2.284 7.171,-5.369 9.351,-9.266c2.179,-3.878 3.274,-8.256 3.274,-13.134c-0,-7.426 -2.453,-13.644 -7.35,-18.626c-4.888,-4.991 -10.908,-7.492 -18.06,-7.492m33.015,-31.1l-0,88.997l-8.143,-0l0,-11.04c-3.463,4.218 -7.341,7.379 -11.653,9.502c-4.312,2.123 -9.02,3.189 -14.134,3.189c-9.087,-0 -16.852,-3.293 -23.278,-9.879c-6.435,-6.605 -9.652,-14.616 -9.652,-24.061c-0,-9.237 3.245,-17.144 9.737,-23.721c6.492,-6.558 14.304,-9.851 23.429,-9.851c5.274,0 10.048,1.114 14.313,3.36c4.265,2.245 8.011,5.604 11.238,10.096l0,-36.592l8.143,0Z" style="fill:#403f41;fill-rule:nonzero;"/><path d="M1488.07,2032.16l8.266,0l-0,64.209l-8.266,0l0,-64.209Zm4.095,-26.438c1.897,-0 3.501,0.679 4.822,2.009c1.33,1.35 2,2.954 2,4.841c-0,1.849 -0.67,3.444 -2,4.784c-1.321,1.34 -2.925,2 -4.822,2c-1.84,-0 -3.416,-0.66 -4.755,-2c-1.331,-1.34 -1.991,-2.935 -1.991,-4.784c-0,-1.887 0.66,-3.491 1.991,-4.841c1.339,-1.33 2.915,-2.009 4.755,-2.009" style="fill:#403f41;fill-rule:nonzero;"/><path d="M1567.56,2057.78c-1.114,-4.407 -2.718,-7.917 -4.813,-10.568c-2.113,-2.623 -4.897,-4.756 -8.369,-6.369c-3.463,-1.604 -7.105,-2.416 -10.936,-2.416c-6.303,0 -11.719,2.029 -16.238,6.077c-3.312,2.944 -5.813,7.378 -7.502,13.276l47.858,-0Zm-0,17.295l6.963,3.652c-2.293,4.491 -4.925,8.114 -7.916,10.86c-2.991,2.765 -6.369,4.85 -10.106,6.293c-3.746,1.425 -7.963,2.142 -12.7,2.142c-10.474,0 -18.664,-3.434 -24.57,-10.284c-5.907,-6.869 -8.851,-14.626 -8.851,-23.287c0,-8.143 2.501,-15.409 7.492,-21.778c6.341,-8.095 14.823,-12.162 25.457,-12.162c10.955,-0 19.683,4.161 26.221,12.455c4.652,5.869 7.011,13.181 7.096,21.956l-57.774,0c0.151,7.455 2.538,13.569 7.143,18.343c4.614,4.765 10.303,7.152 17.078,7.152c3.265,0 6.454,-0.566 9.549,-1.698c3.095,-1.142 5.708,-2.652 7.879,-4.539c2.179,-1.877 4.51,-4.906 7.039,-9.105" style="fill:#403f41;fill-rule:nonzero;"/><path d="M1592.05,2032.17l8.265,-0l0,11.511c3.303,-4.406 6.964,-7.699 10.974,-9.879c4.01,-2.189 8.378,-3.283 13.096,-3.283c4.793,-0 9.058,1.226 12.776,3.661c3.718,2.443 6.463,5.718 8.237,9.85c1.774,4.133 2.652,10.568 2.652,19.296l-0,33.053l-8.257,-0l0,-30.628c0,-7.388 -0.311,-12.332 -0.924,-14.814c-0.953,-4.246 -2.793,-7.445 -5.511,-9.586c-2.717,-2.142 -6.255,-3.218 -10.624,-3.218c-4.991,0 -9.473,1.651 -13.427,4.954c-3.953,3.302 -6.567,7.397 -7.812,12.275c-0.793,3.19 -1.18,9.021 -1.18,17.466l0,23.551l-8.265,-0l-0,-64.209Z" style="fill:#403f41;fill-rule:nonzero;"/><path d="M1672.96,2008.33l8.265,0l0,23.844l13.097,-0l-0,7.142l-13.097,0l0,57.057l-8.265,0l-0,-57.057l-11.276,0l0,-7.142l11.276,-0l-0,-23.844Z" style="fill:#403f41;fill-rule:nonzero;"/><path d="M1760.77,2057.78c-1.114,-4.407 -2.718,-7.917 -4.813,-10.568c-2.113,-2.623 -4.897,-4.756 -8.369,-6.369c-3.463,-1.604 -7.105,-2.416 -10.936,-2.416c-6.293,0 -11.719,2.029 -16.238,6.077c-3.312,2.944 -5.813,7.378 -7.502,13.276l47.858,-0Zm-0,17.295l6.963,3.652c-2.293,4.491 -4.925,8.114 -7.916,10.86c-2.991,2.765 -6.369,4.85 -10.106,6.293c-3.746,1.425 -7.963,2.142 -12.7,2.142c-10.474,0 -18.664,-3.434 -24.57,-10.284c-5.907,-6.869 -8.851,-14.626 -8.851,-23.287c0,-8.143 2.501,-15.409 7.492,-21.778c6.341,-8.095 14.823,-12.162 25.457,-12.162c10.955,-0 19.683,4.161 26.222,12.455c4.651,5.869 7.01,13.181 7.095,21.956l-57.774,0c0.151,7.455 2.538,13.569 7.143,18.343c4.614,4.765 10.303,7.152 17.078,7.152c3.265,0 6.454,-0.566 9.549,-1.698c3.095,-1.142 5.709,-2.652 7.879,-4.539c2.179,-1.877 4.51,-4.906 7.039,-9.105" style="fill:#403f41;fill-rule:nonzero;"/><path d="M1817.54,2039.19l-5.313,5.491c-4.425,-4.283 -8.746,-6.435 -12.955,-6.435c-2.679,0 -4.982,0.887 -6.897,2.652c-1.916,1.773 -2.869,3.84 -2.869,6.199c0,2.085 0.793,4.076 2.359,5.963c1.586,1.934 4.888,4.189 9.945,6.784c6.143,3.189 10.323,6.256 12.531,9.209c2.17,2.991 3.255,6.36 3.255,10.087c0,5.274 -1.849,9.737 -5.557,13.398c-3.709,3.661 -8.332,5.492 -13.89,5.492c-3.708,-0 -7.237,-0.802 -10.615,-2.425c-3.359,-1.604 -6.142,-3.831 -8.35,-6.671l5.19,-5.897c4.217,4.765 8.69,7.143 13.417,7.143c3.321,-0 6.142,-1.067 8.464,-3.19c2.33,-2.123 3.491,-4.614 3.491,-7.492c-0,-2.358 -0.765,-4.463 -2.312,-6.312c-1.529,-1.812 -5.001,-4.086 -10.407,-6.85c-5.794,-2.982 -9.738,-5.935 -11.823,-8.851c-2.095,-2.906 -3.133,-6.237 -3.133,-9.973c0,-4.878 1.67,-8.926 4.992,-12.163c3.33,-3.217 7.529,-4.831 12.615,-4.831c5.916,0 11.87,2.888 17.862,8.672" style="fill:#403f41;fill-rule:nonzero;"/><path d="M1896.7,2038.48c-4.595,0 -8.841,1.132 -12.719,3.387c-3.897,2.265 -6.992,5.445 -9.294,9.521c-2.302,4.086 -3.444,8.416 -3.444,12.974c-0,4.519 1.151,8.841 3.472,12.964c2.321,4.124 5.435,7.341 9.341,9.643c3.907,2.303 8.115,3.444 12.587,3.444c4.52,0 8.804,-1.132 12.852,-3.415c4.048,-2.284 7.161,-5.369 9.35,-9.266c2.171,-3.878 3.265,-8.256 3.265,-13.134c0,-7.426 -2.453,-13.644 -7.341,-18.626c-4.897,-4.991 -10.917,-7.492 -18.069,-7.492m33.025,-31.1l-0,88.997l-8.143,-0l-0,-11.04c-3.473,4.218 -7.351,7.379 -11.663,9.502c-4.312,2.123 -9.02,3.189 -14.125,3.189c-9.096,-0 -16.861,-3.293 -23.287,-9.879c-6.435,-6.605 -9.643,-14.616 -9.643,-24.061c0,-9.237 3.246,-17.144 9.738,-23.721c6.491,-6.558 14.295,-9.851 23.428,-9.851c5.265,0 10.04,1.114 14.304,3.36c4.275,2.245 8.011,5.604 11.248,10.096l-0,-36.592l8.143,0Z" style="fill:#403f41;fill-rule:nonzero;"/><path d="M2002.49,2057.78c-1.114,-4.407 -2.718,-7.917 -4.812,-10.568c-2.114,-2.623 -4.897,-4.756 -8.37,-6.369c-3.463,-1.604 -7.105,-2.416 -10.936,-2.416c-6.293,0 -11.718,2.029 -16.238,6.077c-3.312,2.944 -5.812,7.378 -7.501,13.276l47.857,-0Zm-0,17.295l6.963,3.652c-2.293,4.491 -4.925,8.114 -7.916,10.86c-2.991,2.765 -6.369,4.85 -10.106,6.293c-3.746,1.425 -7.963,2.142 -12.7,2.142c-10.473,0 -18.663,-3.434 -24.57,-10.284c-5.907,-6.869 -8.851,-14.626 -8.851,-23.287c0,-8.143 2.501,-15.409 7.492,-21.778c6.341,-8.095 14.823,-12.162 25.457,-12.162c10.955,-0 19.683,4.161 26.222,12.455c4.651,5.869 7.01,13.181 7.095,21.956l-57.774,0c0.151,7.455 2.538,13.569 7.143,18.343c4.614,4.765 10.304,7.152 17.078,7.152c3.265,0 6.454,-0.566 9.549,-1.698c3.095,-1.142 5.709,-2.652 7.879,-4.539c2.179,-1.877 4.51,-4.906 7.039,-9.105" style="fill:#403f41;fill-rule:nonzero;"/><rect x="2025.74" y="2007.39" width="8.266" height="88.996" style="fill:#403f41;"/><path d="M2169.73,2024.14l-6.727,6.369c-4.841,-4.756 -10.144,-8.36 -15.909,-10.823c-5.765,-2.462 -11.379,-3.689 -16.842,-3.689c-6.813,0 -13.295,1.68 -19.456,5.02c-6.143,3.349 -10.927,7.878 -14.305,13.606c-3.387,5.718 -5.076,11.766 -5.076,18.135c-0,6.539 1.755,12.738 5.256,18.626c3.491,5.878 8.331,10.511 14.521,13.87c6.171,3.369 12.936,5.039 20.296,5.039c8.926,-0 16.474,-2.51 22.664,-7.549c6.171,-5.029 9.832,-11.568 10.974,-19.597l-27.675,-0l0,-8.379l37.412,-0c-0.085,13.417 -4.057,24.07 -11.955,31.958c-7.888,7.888 -18.437,11.832 -31.656,11.832c-16.05,0 -28.76,-5.463 -38.12,-16.408c-7.199,-8.417 -10.803,-18.154 -10.803,-29.213c-0,-8.209 2.066,-15.87 6.199,-22.956c4.132,-7.077 9.794,-12.616 16.993,-16.607c7.199,-4.001 15.342,-5.992 24.438,-5.992c7.351,0 14.276,1.331 20.768,3.992c6.492,2.651 12.823,6.916 19.003,12.766" style="fill:#403f41;fill-rule:nonzero;"/><path d="M2188.97,2032.17l8.266,-0l-0,29.977c-0,7.322 0.387,12.36 1.179,15.106c1.18,3.944 3.435,7.048 6.756,9.332c3.331,2.283 7.313,3.415 11.917,3.415c4.614,0 8.521,-1.104 11.729,-3.321c3.208,-2.236 5.425,-5.152 6.652,-8.775c0.83,-2.482 1.245,-7.728 1.245,-15.757l0,-29.977l8.436,-0l-0,31.515c-0,8.85 -1.038,15.521 -3.105,20.003c-2.066,4.482 -5.17,8.001 -9.322,10.539c-4.142,2.539 -9.351,3.803 -15.606,3.803c-6.256,0 -11.484,-1.264 -15.673,-3.803c-4.189,-2.538 -7.313,-6.076 -9.379,-10.624c-2.066,-4.538 -3.095,-11.379 -3.095,-20.513l0,-30.92Z" style="fill:#403f41;fill-rule:nonzero;"/><path d="M2294.45,2038.48c-4.595,0 -8.841,1.132 -12.719,3.387c-3.897,2.265 -6.992,5.445 -9.294,9.521c-2.302,4.086 -3.444,8.416 -3.444,12.974c0,4.519 1.151,8.841 3.472,12.964c2.322,4.124 5.435,7.341 9.342,9.643c3.906,2.303 8.114,3.444 12.587,3.444c4.519,0 8.803,-1.132 12.851,-3.415c4.048,-2.284 7.162,-5.369 9.351,-9.266c2.17,-3.878 3.264,-8.256 3.264,-13.134c0,-7.426 -2.453,-13.644 -7.341,-18.626c-4.897,-4.991 -10.917,-7.492 -18.069,-7.492m33.025,-6.312l-0,64.209l-8.143,-0l-0,-11.04c-3.472,4.218 -7.35,7.379 -11.662,9.502c-4.312,2.123 -9.021,3.189 -14.125,3.189c-9.087,-0 -16.862,-3.293 -23.287,-9.879c-6.435,-6.605 -9.644,-14.616 -9.644,-24.061c0,-9.237 3.246,-17.144 9.738,-23.721c6.492,-6.558 14.295,-9.851 23.428,-9.851c5.265,0 10.04,1.114 14.305,3.36c4.274,2.245 8.011,5.604 11.247,10.096l-0,-11.804l8.143,-0Z" style="fill:#403f41;fill-rule:nonzero;"/><path d="M2339.16,2032.17l8.737,-0l22.06,49.442l21.429,-49.442l8.794,-0l-38.299,87.694l-8.738,-0l12.37,-28.354l-26.353,-59.34Z" style="fill:#403f41;fill-rule:nonzero;"/><path d="M2441.81,2038.48c-4.595,0 -8.841,1.132 -12.719,3.387c-3.897,2.265 -6.992,5.445 -9.294,9.521c-2.302,4.086 -3.444,8.416 -3.444,12.974c0,4.519 1.151,8.841 3.472,12.964c2.322,4.124 5.435,7.341 9.342,9.643c3.906,2.303 8.114,3.444 12.587,3.444c4.519,0 8.803,-1.132 12.851,-3.415c4.048,-2.284 7.162,-5.369 9.351,-9.266c2.17,-3.878 3.264,-8.256 3.264,-13.134c0,-7.426 -2.453,-13.644 -7.341,-18.626c-4.897,-4.991 -10.917,-7.492 -18.069,-7.492m33.025,-6.312l-0,64.209l-8.143,-0l-0,-11.04c-3.472,4.218 -7.35,7.379 -11.662,9.502c-4.313,2.123 -9.021,3.189 -14.125,3.189c-9.096,-0 -16.862,-3.293 -23.287,-9.879c-6.435,-6.605 -9.644,-14.616 -9.644,-24.061c0,-9.237 3.246,-17.144 9.738,-23.721c6.492,-6.558 14.295,-9.851 23.428,-9.851c5.265,0 10.04,1.114 14.305,3.36c4.274,2.245 8.01,5.604 11.247,10.096l-0,-11.804l8.143,-0Z" style="fill:#403f41;fill-rule:nonzero;"/><path d="M2525.7,2039.19l-5.312,5.491c-4.426,-4.283 -8.747,-6.435 -12.955,-6.435c-2.68,0 -4.982,0.887 -6.898,2.652c-1.915,1.773 -2.868,3.84 -2.868,6.199c-0,2.085 0.792,4.076 2.359,5.963c1.585,1.934 4.887,4.189 9.945,6.784c6.142,3.189 10.322,6.256 12.53,9.209c2.17,2.991 3.255,6.36 3.255,10.087c0,5.274 -1.849,9.737 -5.557,13.398c-3.708,3.661 -8.332,5.492 -13.889,5.492c-3.708,-0 -7.237,-0.802 -10.615,-2.425c-3.359,-1.604 -6.143,-3.831 -8.351,-6.671l5.19,-5.897c4.217,4.765 8.69,7.143 13.417,7.143c3.321,-0 6.143,-1.067 8.464,-3.19c2.33,-2.123 3.491,-4.614 3.491,-7.492c-0,-2.358 -0.764,-4.463 -2.312,-6.312c-1.528,-1.812 -5.001,-4.086 -10.407,-6.85c-5.794,-2.982 -9.738,-5.935 -11.823,-8.851c-2.095,-2.906 -3.133,-6.237 -3.133,-9.973c0,-4.878 1.661,-8.926 4.992,-12.163c3.331,-3.217 7.529,-4.831 12.615,-4.831c5.916,0 11.87,2.888 17.862,8.672" style="fill:#403f41;fill-rule:nonzero;"/><path d="M803.362,1817.86l-54.688,33.996c-47.216,-62.737 -111.679,-94.1 -193.382,-94.1c-65.284,-0 -119.558,21.013 -162.669,62.982c-43.111,42.035 -64.709,93.035 -64.709,153.064c0,38.997 9.936,75.786 29.807,110.273c19.786,34.411 47.055,61.18 81.627,80.146c34.647,19.05 73.409,28.58 116.435,28.58c78.749,-0 143.043,-31.364 192.891,-94.101l54.688,35.959c-25.617,38.601 -60.029,68.493 -103.215,89.76c-43.196,21.268 -92.384,31.94 -147.563,31.94c-84.75,-0 -155.035,-26.939 -210.875,-80.806c-55.84,-53.868 -83.759,-119.388 -83.759,-196.581c-0,-51.895 13.058,-100.102 39.167,-144.609c26.117,-44.508 62.001,-79.24 107.659,-104.206c45.649,-24.957 96.734,-37.441 153.224,-37.441c35.478,0 69.72,5.416 102.725,16.258c33.015,10.841 61.01,24.966 84.005,42.375c22.994,17.408 42.535,39.573 58.632,66.511" style="fill:#d1d3d4;fill-rule:nonzero;"/><path d="M459.843,1907.34c-11.332,0 -21.824,2.793 -31.43,8.379c-9.596,5.557 -17.239,13.398 -22.89,23.494c-5.681,10.068 -8.521,20.749 -8.521,31.987c0,11.172 2.859,21.824 8.587,32.015c5.708,10.171 13.398,18.116 23.041,23.768c9.662,5.68 19.994,8.52 31.072,8.52c11.134,0 21.72,-2.811 31.722,-8.444c9.973,-5.615 17.673,-13.229 23.032,-22.816c5.388,-9.614 8.086,-20.447 8.086,-32.458c0,-18.324 -6.048,-33.638 -18.106,-45.97c-12.087,-12.313 -26.948,-18.475 -44.593,-18.475m81.486,-15.587l-0,158.46l-20.098,0l-0,-27.231c-8.549,10.389 -18.135,18.202 -28.769,23.448c-10.625,5.236 -22.259,7.86 -34.874,7.86c-22.428,-0 -41.583,-8.134 -57.453,-24.391c-15.88,-16.267 -23.815,-36.054 -23.815,-59.35c-0,-22.815 8.01,-42.337 24.032,-58.548c16.021,-16.219 35.289,-24.325 57.812,-24.325c13.011,0 24.787,2.775 35.326,8.304c10.53,5.538 19.777,13.832 27.741,24.9l-0,-29.127l20.098,-0Z" style="fill:#ed1c24;fill-rule:nonzero;"/><path d="M549.916,1889.63l20.39,-0l0,158.451l-20.39,-0l-0,-158.451Zm10.115,-65.247c4.642,-0 8.596,1.651 11.898,4.953c3.274,3.293 4.925,7.275 4.925,11.936c0,4.567 -1.651,8.502 -4.925,11.795c-3.302,3.302 -7.256,4.953 -11.898,4.953c-4.539,0 -8.464,-1.651 -11.748,-4.953c-3.274,-3.293 -4.925,-7.228 -4.925,-11.795c0,-4.661 1.651,-8.643 4.925,-11.936c3.284,-3.302 7.209,-4.953 11.748,-4.953" style="fill:#ed1c24;fill-rule:nonzero;"/><path d="M628.38,1914.03c-9.577,5.425 -16.984,12.794 -22.202,22.136c-5.227,9.341 -7.841,19.956 -7.841,31.854c0,18.286 5.68,33.043 17.05,44.262c11.37,11.229 26.392,16.833 45.065,16.833c18.484,0 33.524,-5.652 45.139,-16.974c11.606,-11.323 17.409,-25.637 17.409,-42.96c-0,-11.417 -2.803,-22.042 -8.417,-31.855c-5.604,-9.822 -13.351,-17.512 -23.221,-23.079c-9.869,-5.558 -20.56,-8.351 -32.071,-8.351c-11.03,0 -21.334,2.718 -30.911,8.134m-29.024,3.774c9.492,-11.228 19.343,-19.277 29.562,-24.164c10.219,-4.888 21.23,-7.322 33.053,-7.322c14.228,-0 27.768,3.67 40.601,11.03c12.832,7.35 22.881,17.333 30.146,29.967c7.266,12.615 10.899,26.24 10.899,40.856c-0,14.606 -3.492,28.005 -10.465,40.195c-6.972,12.182 -16.851,21.891 -29.637,29.1c-12.785,7.208 -26.438,10.813 -40.969,10.813c-12.398,-0 -24.108,-2.585 -35.147,-7.766c-11.049,-5.17 -20.4,-12.596 -28.043,-22.277l0,8.124c0,17.409 2.029,30.015 6.096,37.827c4.076,7.803 10.879,14.295 20.418,19.456c9.54,5.152 21.24,7.737 35.091,7.737c14.05,0 25.816,-2.519 35.317,-7.548c9.483,-5.029 17.239,-12.766 23.24,-23.221l22.06,0c-5.708,12.427 -11.945,21.853 -18.72,28.307c-6.774,6.454 -15.55,11.596 -26.344,15.436c-10.785,3.831 -22.947,5.747 -36.497,5.747c-18.474,-0 -34.298,-3.926 -47.451,-11.757c-13.163,-7.832 -22.4,-19.003 -27.731,-33.525c-3.859,-10.256 -5.793,-26.457 -5.793,-48.612l-0,-125.832l20.314,-0l0,27.429Z" style="fill:#ed1c24;fill-rule:nonzero;"/></g><g><path d="M1926.44,828.956l47.916,0l0,250l45.834,0l-0,-250l47.916,0l0,-41.667l-141.666,0l-0,41.667Z" style="fill:#ffab00;fill-rule:nonzero;"/><path d="M2133.94,828.956l79.166,0l0,-41.667l-125,0l0,291.667l125,0l0,-41.667l-79.166,0l-0,-85.416l62.916,-0l0,-41.667l-62.916,0l-0,-81.25Z" style="fill:#ffab00;fill-rule:nonzero;"/><path d="M2235.6,857.289c0,83.334 89.584,94.584 89.584,154.584c-0,20.833 -9.167,28.333 -23.75,28.333c-14.584,0 -23.75,-7.5 -23.75,-28.333l-0,-20.834l-43.334,0l0,17.917c0,46.667 23.334,73.333 68.334,73.333c45,0 68.333,-26.666 68.333,-73.333c-0,-83.333 -89.583,-94.583 -89.583,-154.583c-0,-20.834 8.333,-28.75 22.916,-28.75c14.584,-0 22.917,7.916 22.917,28.75l-0,12.083l43.333,0l0,-9.167c0,-46.666 -22.916,-73.333 -67.5,-73.333c-44.583,0 -67.5,26.667 -67.5,73.333Z" style="fill:#ffab00;fill-rule:nonzero;"/><path d="M2383.94,828.956l47.916,0l0,250l45.834,0l-0,-250l47.916,0l0,-41.667l-141.666,0l-0,41.667Z" style="fill:#ffab00;fill-rule:nonzero;"/><rect x="2545.6" y="787.289" width="45.833" height="291.667" style="fill:#ffab00;fill-rule:nonzero;"/><path d="M2688.1,787.289l-63.75,0l0,291.667l40,0l0,-206.25l34.167,206.25l43.333,0l31.667,-209.167l-0,209.167l43.333,0l0,-291.667l-63.75,0l-31.25,207.084l-33.75,-207.084Z" style="fill:#ffab00;fill-rule:nonzero;"/><path d="M2892.27,854.373c-0,-20.834 9.167,-28.75 23.75,-28.75c14.583,-0 23.75,7.916 23.75,28.75l-0,157.5c-0,20.833 -9.167,28.75 -23.75,28.75c-14.583,-0 -23.75,-7.917 -23.75,-28.75l-0,-157.5Zm-45.833,154.583c-0,46.667 24.583,73.333 69.583,73.333c45,0 69.583,-26.666 69.583,-73.333l0,-151.667c0,-46.666 -24.583,-73.333 -69.583,-73.333c-45,0 -69.583,26.667 -69.583,73.333l-0,151.667Z" style="fill:#ffab00;fill-rule:nonzero;"/><path d="M3113.1,1078.96l47.084,0l-0,-291.667l-40.834,0l0,174.584l-47.083,-174.584l-57.5,0l-0,291.667l41.25,0l-0,-211.25l57.083,211.25Z" style="fill:#ffab00;fill-rule:nonzero;"/><rect x="3193.1" y="787.289" width="45.833" height="291.667" style="fill:#ffab00;fill-rule:nonzero;"/><path d="M3314.35,854.373c0,-20.834 9.167,-28.75 23.75,-28.75c14.584,-0 23.75,7.916 23.75,28.75l0,157.5c0,20.833 -9.166,28.75 -23.75,28.75c-14.583,-0 -23.75,-7.917 -23.75,-28.75l0,-157.5Zm-45.833,154.583c-0,46.667 24.583,73.333 69.583,73.333c45,0 69.584,-26.666 69.584,-73.333l-0,-151.667c-0,-46.666 -24.584,-73.333 -69.584,-73.333c-45,0 -69.583,26.667 -69.583,73.333l-0,151.667Z" style="fill:#ffab00;fill-rule:nonzero;"/><path d="M3547.69,953.956l52.083,0l-0,125l46.667,0l-0,-291.667l-46.667,0l-0,125l-52.083,0l-0,-125l-45.834,0l0,291.667l45.834,0l-0,-125Z" style="fill:#ffab00;fill-rule:nonzero;"/><rect x="3679.77" y="787.289" width="45.833" height="291.667" style="fill:#ffab00;fill-rule:nonzero;"/><path d="M3753.1,857.289c0,83.334 89.584,94.584 89.584,154.584c-0,20.833 -9.167,28.333 -23.75,28.333c-14.584,0 -23.75,-7.5 -23.75,-28.333l-0,-20.834l-43.334,0l0,17.917c0,46.667 23.334,73.333 68.334,73.333c45,0 68.333,-26.666 68.333,-73.333c-0,-83.333 -89.583,-94.583 -89.583,-154.583c-0,-20.834 8.333,-28.75 22.916,-28.75c14.584,-0 22.917,7.916 22.917,28.75l-0,12.083l43.333,0l0,-9.167c0,-46.666 -22.916,-73.333 -67.5,-73.333c-44.583,0 -67.5,26.667 -67.5,73.333Z" style="fill:#ffab00;fill-rule:nonzero;"/><path d="M3901.44,828.956l47.916,0l0,250l45.834,0l-0,-250l47.916,0l0,-41.667l-141.666,0l-0,41.667Z" style="fill:#ffab00;fill-rule:nonzero;"/><path d="M4105.19,854.373c-0,-20.834 9.166,-28.75 23.75,-28.75c14.583,-0 23.75,7.916 23.75,28.75l-0,157.5c-0,20.833 -9.167,28.75 -23.75,28.75c-14.584,-0 -23.75,-7.917 -23.75,-28.75l-0,-157.5Zm-45.834,154.583c0,46.667 24.584,73.333 69.584,73.333c45,0 69.583,-26.666 69.583,-73.333l-0,-151.667c-0,-46.666 -24.583,-73.333 -69.583,-73.333c-45,0 -69.584,26.667 -69.584,73.333l0,151.667Zm73.75,-283.333l-28.333,46.25l30.833,-0l42.5,-46.25l-45,-0Z" style="fill:#ffab00;fill-rule:nonzero;"/><path d="M4370.6,1078.96c-4.583,-10.833 -5,-21.25 -5,-35.417l0,-45c0,-30.416 -7.5,-52.5 -30.416,-62.083c20.416,-9.583 30,-29.167 30,-59.167l-0,-22.916c-0,-45 -20.417,-67.084 -67.917,-67.084l-69.167,0l0,291.667l45.834,0l-0,-118.75l15.833,0c20.833,0 30,10 30,37.083l-0,45.834c-0,23.75 1.667,28.333 4.167,35.833l46.666,0Zm-74.583,-250c16.25,0 23.333,9.167 23.333,30l0,28.75c0,23.333 -10.416,30.833 -27.5,30.833l-17.916,0l-0,-89.583l22.083,0Z" style="fill:#ffab00;fill-rule:nonzero;"/><rect x="4395.6" y="787.289" width="45.833" height="291.667" style="fill:#ffab00;fill-rule:nonzero;"/><path d="M4564.35,970.206l0,41.667c0,20.833 -9.166,28.333 -23.75,28.333c-14.583,0 -23.75,-7.5 -23.75,-28.333l0,-157.5c0,-20.834 9.167,-28.75 23.75,-28.75c14.584,-0 23.75,7.916 23.75,28.75l0,31.25l43.334,-0l-0,-28.334c-0,-46.666 -23.334,-73.333 -68.334,-73.333c-45,0 -68.333,26.667 -68.333,73.333l-0,151.667c-0,46.667 23.333,73.333 68.333,73.333c45,0 68.334,-26.666 68.334,-73.333l-0,-38.75l-43.334,0Z" style="fill:#ffab00;fill-rule:nonzero;"/><path d="M4677.69,854.373c-0,-20.834 9.166,-28.75 23.75,-28.75c14.583,-0 23.75,7.916 23.75,28.75l-0,157.5c-0,20.833 -9.167,28.75 -23.75,28.75c-14.584,-0 -23.75,-7.917 -23.75,-28.75l-0,-157.5Zm-45.834,154.583c0,46.667 24.584,73.333 69.584,73.333c45,0 69.583,-26.666 69.583,-73.333l-0,-151.667c-0,-46.666 -24.583,-73.333 -69.583,-73.333c-45,0 -69.584,26.667 -69.584,73.333l0,151.667Z" style="fill:#ffab00;fill-rule:nonzero;"/><path d="M1729.35,1495.62l72.5,-0c45.834,-0 68.334,-25.417 68.334,-72.084l-0,-147.5c-0,-46.666 -22.5,-72.083 -68.334,-72.083l-72.5,0l0,291.667Zm71.667,-250c14.583,-0 23.333,7.5 23.333,28.333l0,151.667c0,20.833 -8.75,28.333 -23.333,28.333l-25.833,0l-0,-208.333l25.833,-0Z" style="fill:#ffab00;fill-rule:nonzero;"/><path d="M1945.19,1245.62l79.166,-0l0,-41.667l-125,0l0,291.667l125,-0l0,-41.667l-79.166,0l-0,-85.417l62.916,0l0,-41.666l-62.916,-0l-0,-81.25Z" style="fill:#ffab00;fill-rule:nonzero;"/><path d="M2052.69,1495.62l121.25,-0l-0,-41.667l-75.417,0l-0,-250l-45.833,0l-0,291.667Z" style="fill:#ffab00;fill-rule:nonzero;"/><path d="M2360.19,1203.96l-67.084,0l-46.666,291.667l42.083,-0l7.917,-52.917l56.25,0l7.916,52.917l46.25,-0l-46.666,-291.667Zm-35.834,51.667l22.084,147.5l-44.167,-0l22.083,-147.5Z" style="fill:#ffab00;fill-rule:nonzero;"/><path d="M2570.6,1495.62c-4.583,-10.834 -5,-21.25 -5,-35.417l0,-45c0,-30.417 -7.5,-52.5 -30.416,-62.083c20.416,-9.584 30,-29.167 30,-59.167l-0,-22.917c-0,-45 -20.417,-67.083 -67.917,-67.083l-69.167,0l0,291.667l45.834,-0l-0,-118.75l15.833,-0c20.833,-0 30,10 30,37.083l-0,45.833c-0,23.75 1.667,28.334 4.167,35.834l46.666,-0Zm-74.583,-250c16.25,-0 23.333,9.166 23.333,30l0,28.75c0,23.333 -10.416,30.833 -27.5,30.833l-17.916,0l-0,-89.583l22.083,-0Z" style="fill:#ffab00;fill-rule:nonzero;"/><path d="M2582.27,1245.62l47.917,-0l-0,250l45.833,-0l-0,-250l47.917,-0l-0,-41.667l-141.667,0l-0,41.667Z" style="fill:#ffab00;fill-rule:nonzero;"/><path d="M2789.77,1245.62l79.167,-0l-0,-41.667l-125,0l-0,291.667l125,-0l-0,-41.667l-79.167,0l-0,-85.417l62.917,0l-0,-41.666l-62.917,-0l-0,-81.25Z" style="fill:#ffab00;fill-rule:nonzero;"/><path d="M3030.6,1374.79l20.834,0l-0,53.75c-0,20.834 -9.167,28.334 -23.75,28.334c-14.584,-0 -23.75,-7.5 -23.75,-28.334l-0,-157.5c-0,-20.833 9.166,-28.75 23.75,-28.75c14.583,0 23.75,7.917 23.75,28.75l-0,31.25l43.333,0l-0,-28.333c-0,-46.667 -23.333,-73.333 -68.333,-73.333c-45,-0 -68.334,26.666 -68.334,73.333l0,151.667c0,46.666 23.334,73.333 68.334,73.333c45,0 68.333,-26.667 68.333,-73.333l-0,-92.5l-64.167,-0l0,41.666Z" style="fill:#ffab00;fill-rule:nonzero;"/><path d="M3122.27,1203.96l-0,222.083c-0,46.667 23.333,73.334 68.333,73.334c45,-0 68.334,-26.667 68.334,-73.334l-0,-222.083l-43.334,0l0,225c0,20.833 -9.166,28.333 -23.75,28.333c-14.583,0 -23.75,-7.5 -23.75,-28.333l0,-225l-45.833,0Z" style="fill:#ffab00;fill-rule:nonzero;"/><path d="M3391.85,1203.96l-67.083,0l-46.667,291.667l42.084,-0l7.916,-52.917l56.25,0l7.917,52.917l46.25,-0l-46.667,-291.667Zm-35.833,51.667l22.083,147.5l-44.166,-0l22.083,-147.5Z" style="fill:#ffab00;fill-rule:nonzero;"/><path d="M3482.27,1495.62l45.833,-0l0,-96.667l57.917,-195l-43.75,0l-35,132.917l-35,-132.917l-47.917,0l57.917,195l-0,96.667Z" style="fill:#ffab00;fill-rule:nonzero;"/><path d="M3685.6,1203.96l-67.083,0l-46.667,291.667l42.084,-0l7.916,-52.917l56.25,0l7.917,52.917l46.25,-0l-46.667,-291.667Zm-35.833,51.667l22.083,147.5l-44.166,-0l22.083,-147.5Z" style="fill:#ffab00;fill-rule:nonzero;"/><path d="M3749.35,1425.62c0,46.666 24.584,73.333 69.584,73.333c12.083,0 22.916,-2.083 32.083,-5.417c6.25,12.5 19.167,20 39.583,20l6.25,0l0,-40.833l-4.166,0c-7.5,0 -10.834,-0.833 -12.917,-6.25c5.833,-10.833 8.75,-24.583 8.75,-40.833l-0,-151.667c-0,-46.667 -24.583,-73.333 -69.583,-73.333c-45,-0 -69.584,26.666 -69.584,73.333l0,151.667Zm45.834,-154.584c-0,-20.833 9.166,-28.75 23.75,-28.75c14.583,0 23.75,7.917 23.75,28.75l-0,157.5c-0,20.834 -9.167,28.75 -23.75,28.75c-14.584,0 -23.75,-7.916 -23.75,-28.75l-0,-157.5Z" style="fill:#ffab00;fill-rule:nonzero;"/><path d="M3916.02,1203.96l-0,222.083c-0,46.667 23.333,73.334 68.333,73.334c45,-0 68.334,-26.667 68.334,-73.334l-0,-222.083l-43.334,0l0,225c0,20.833 -9.166,28.333 -23.75,28.333c-14.583,0 -23.75,-7.5 -23.75,-28.333l0,-225l-45.833,0Z" style="fill:#ffab00;fill-rule:nonzero;"/><rect x="4083.94" y="1203.96" width="45.833" height="291.667" style="fill:#ffab00;fill-rule:nonzero;"/><path d="M4163.1,1495.62l121.25,-0l0,-41.667l-75.416,0l-0,-250l-45.834,0l0,291.667Z" style="fill:#ffab00;fill-rule:nonzero;"/><path d="M4350.19,1245.62l79.166,-0l0,-41.667l-125,0l0,291.667l125,-0l0,-41.667l-79.166,0l-0,-85.417l62.916,0l0,-41.666l-62.916,-0l-0,-81.25Z" style="fill:#ffab00;fill-rule:nonzero;"/><path d="M4555.6,1495.62l47.084,-0l-0,-291.667l-40.834,0l0,174.583l-47.083,-174.583l-57.5,0l-0,291.667l41.25,-0l-0,-211.25l57.083,211.25Zm-9.166,-338.75c-12.5,-0 -20,-10.417 -37.5,-10.417c-14.584,0 -27.5,7.083 -35.417,28.333l22.083,15.417c5,-10.417 10.417,-12.083 17.917,-12.083c12.5,-0 20,10.416 37.5,10.416c14.583,0 27.5,-7.083 35.417,-28.333l-22.084,-15.417c-5,10.417 -10.416,12.084 -17.916,12.084Z" style="fill:#ffab00;fill-rule:nonzero;"/><path d="M4677.69,1271.04c-0,-20.833 9.166,-28.75 23.75,-28.75c14.583,0 23.75,7.917 23.75,28.75l-0,157.5c-0,20.834 -9.167,28.75 -23.75,28.75c-14.584,0 -23.75,-7.916 -23.75,-28.75l-0,-157.5Zm-45.834,154.584c0,46.666 24.584,73.333 69.584,73.333c45,0 69.583,-26.667 69.583,-73.333l-0,-151.667c-0,-46.667 -24.583,-73.333 -69.583,-73.333c-45,-0 -69.584,26.666 -69.584,73.333l0,151.667Z" style="fill:#ffab00;fill-rule:nonzero;"/></g></svg>