<?xml version="1.0" encoding="UTF-8" standalone="no"?><!DOCTYPE svg PUBLIC "-//W3C//DTD SVG 1.1//EN" "http://www.w3.org/Graphics/SVG/1.1/DTD/svg11.dtd"><svg width="100%" height="100%" viewBox="0 0 2580 642" version="1.1" xmlns="http://www.w3.org/2000/svg" xmlns:xlink="http://www.w3.org/1999/xlink" xml:space="preserve" xmlns:serif="http://www.serif.com/" style="fill-rule:evenodd;clip-rule:evenodd;stroke-linejoin:round;stroke-miterlimit:2;"><g><path d="M622.458,214.3l0,-119.303l16.246,-0l-0,105.224l60.459,0l-0,14.079l-76.705,-0Z" style="fill:#57b9e9;fill-rule:nonzero;"/><path d="M716.664,111.842l-0,-16.845l15.073,-0l-0,16.845l-15.073,0Zm-0,102.458l-0,-86.426l15.073,0l-0,86.426l-15.073,-0Z" style="fill:#57b9e9;fill-rule:nonzero;"/><path d="M748.652,188.502l14.905,-2.278c0.838,5.805 3.168,10.254 6.992,13.346c3.824,3.093 9.17,4.639 16.036,4.639c6.923,-0 12.058,-1.37 15.408,-4.11c3.35,-2.74 5.024,-5.954 5.024,-9.643c0,-3.31 -1.479,-5.914 -4.438,-7.813c-2.065,-1.302 -7.201,-2.957 -15.408,-4.964c-11.053,-2.713 -18.715,-5.059 -22.986,-7.04c-4.27,-1.98 -7.508,-4.72 -9.713,-8.219c-2.205,-3.499 -3.308,-7.365 -3.308,-11.597c-0,-3.852 0.907,-7.419 2.721,-10.701c1.815,-3.282 4.285,-6.009 7.411,-8.179c2.345,-1.682 5.541,-3.106 9.588,-4.272c4.048,-1.167 8.388,-1.75 13.022,-1.75c6.978,0 13.105,0.977 18.38,2.93c5.276,1.953 9.169,4.598 11.682,7.934c2.512,3.337 4.242,7.799 5.191,13.387l-14.738,1.953c-0.669,-4.448 -2.609,-7.921 -5.819,-10.416c-3.21,-2.496 -7.746,-3.744 -13.608,-3.744c-6.922,0 -11.863,1.113 -14.821,3.337c-2.959,2.224 -4.439,4.828 -4.439,7.812c0,1.899 0.614,3.608 1.843,5.127c1.228,1.574 3.154,2.876 5.778,3.907c1.507,0.542 5.945,1.79 13.314,3.743c10.663,2.767 18.101,5.032 22.316,6.795c4.215,1.764 7.523,4.327 9.923,7.691c2.401,3.364 3.601,7.541 3.601,12.532c-0,4.883 -1.466,9.481 -4.396,13.794c-2.931,4.313 -7.16,7.65 -12.687,10.01c-5.526,2.36 -11.779,3.54 -18.757,3.54c-11.556,0 -20.362,-2.333 -26.419,-6.999c-6.058,-4.665 -9.923,-11.583 -11.598,-20.752Z" style="fill:#57b9e9;fill-rule:nonzero;"/><path d="M873.338,201.198l2.177,12.939c-4.243,0.868 -8.039,1.302 -11.388,1.302c-5.471,0 -9.714,-0.841 -12.729,-2.522c-3.014,-1.682 -5.135,-3.893 -6.364,-6.633c-1.228,-2.74 -1.842,-8.504 -1.842,-17.293l0,-49.724l-11.053,0l-0,-11.393l11.053,0l0,-21.403l14.989,-8.789l0,30.192l15.157,0l-0,11.393l-15.157,0l0,50.538c0,4.177 0.265,6.863 0.796,8.056c0.53,1.194 1.395,2.143 2.596,2.848c1.2,0.706 2.917,1.058 5.15,1.058c1.674,0 3.879,-0.189 6.615,-0.569Z" style="fill:#57b9e9;fill-rule:nonzero;"/><path d="M948.953,186.468l15.576,1.872c-2.457,8.843 -7.006,15.706 -13.65,20.589c-6.643,4.883 -15.128,7.324 -25.456,7.324c-13.007,0 -23.321,-3.893 -30.941,-11.678c-7.62,-7.785 -11.431,-18.704 -11.431,-32.755c0,-14.54 3.852,-25.825 11.556,-33.855c7.704,-8.029 17.697,-12.044 29.979,-12.044c11.89,0 21.604,3.933 29.14,11.8c7.537,7.867 11.305,18.935 11.305,33.203c0,0.868 -0.028,2.17 -0.084,3.907l-66.32,-0c0.558,9.494 3.321,16.764 8.29,21.809c4.968,5.046 11.165,7.569 18.59,7.569c5.526,-0 10.244,-1.411 14.151,-4.232c3.908,-2.821 7.007,-7.324 9.295,-13.509Zm-49.489,-23.682l49.657,0c-0.67,-7.27 -2.568,-12.722 -5.694,-16.357c-4.801,-5.642 -11.026,-8.464 -18.674,-8.464c-6.922,0 -12.742,2.252 -17.459,6.755c-4.718,4.503 -7.327,10.525 -7.83,18.066Z" style="fill:#57b9e9;fill-rule:nonzero;"/><path d="M983.453,214.3l0,-86.426l13.566,0l0,12.289c6.532,-9.495 15.966,-14.242 28.304,-14.242c5.359,0 10.285,0.936 14.779,2.808c4.494,1.871 7.858,4.326 10.091,7.365c2.233,3.038 3.796,6.646 4.689,10.823c0.558,2.713 0.837,7.46 0.837,14.242l0,53.141l-15.072,-0l-0,-52.572c-0,-5.968 -0.587,-10.43 -1.759,-13.387c-1.172,-2.956 -3.252,-5.317 -6.238,-7.08c-2.987,-1.763 -6.49,-2.645 -10.509,-2.645c-6.42,0 -11.961,1.981 -16.623,5.941c-4.661,3.961 -6.992,11.475 -6.992,22.542l0,47.201l-15.073,-0Z" style="fill:#57b9e9;fill-rule:nonzero;"/><path d="M1120.87,171.087c-0,-16.005 4.577,-27.859 13.733,-35.563c7.648,-6.402 16.971,-9.603 27.968,-9.603c12.226,0 22.219,3.893 29.979,11.678c7.759,7.786 11.639,18.541 11.639,32.267c0,11.122 -1.716,19.871 -5.15,26.245c-3.433,6.375 -8.429,11.326 -14.989,14.852c-6.559,3.527 -13.719,5.29 -21.479,5.29c-12.449,0 -22.511,-3.879 -30.187,-11.637c-7.676,-7.759 -11.514,-18.935 -11.514,-33.529Zm15.491,0c0,11.068 2.485,19.355 7.453,24.862c4.968,5.506 11.221,8.26 18.757,8.26c7.481,-0 13.705,-2.767 18.674,-8.301c4.968,-5.534 7.453,-13.97 7.453,-25.309c-0,-10.688 -2.499,-18.785 -7.495,-24.292c-4.996,-5.507 -11.207,-8.26 -18.632,-8.26c-7.536,-0 -13.789,2.74 -18.757,8.219c-4.968,5.48 -7.453,13.753 -7.453,24.821Z" style="fill:#57b9e9;fill-rule:nonzero;"/><path d="M1221.86,214.3l-0,-86.426l13.565,0l0,12.289c6.532,-9.495 15.967,-14.242 28.304,-14.242c5.359,0 10.286,0.936 14.78,2.808c4.494,1.871 7.857,4.326 10.09,7.365c2.233,3.038 3.796,6.646 4.69,10.823c0.558,2.713 0.837,7.46 0.837,14.242l-0,53.141l-15.073,-0l0,-52.572c0,-5.968 -0.586,-10.43 -1.758,-13.387c-1.173,-2.956 -3.252,-5.317 -6.239,-7.08c-2.987,-1.763 -6.49,-2.645 -10.509,-2.645c-6.42,0 -11.961,1.981 -16.622,5.941c-4.662,3.961 -6.992,11.475 -6.992,22.542l-0,47.201l-15.073,-0Z" style="fill:#57b9e9;fill-rule:nonzero;"/></g><g><path d="M684.604,430.324l-0,-21.092l76.151,-0.123l-0,66.709c-11.691,9.32 -23.749,16.33 -36.175,21.031c-12.426,4.701 -25.179,7.051 -38.26,7.051c-17.658,-0 -33.702,-3.781 -48.131,-11.343c-14.429,-7.562 -25.322,-18.496 -32.68,-32.803c-7.357,-14.306 -11.036,-30.289 -11.036,-47.947c-0,-17.495 3.658,-33.824 10.975,-48.989c7.317,-15.165 17.842,-26.426 31.576,-33.784c13.735,-7.358 29.553,-11.036 47.457,-11.036c12.998,-0 24.75,2.105 35.255,6.315c10.505,4.21 18.742,10.076 24.71,17.597c5.967,7.521 10.505,17.331 13.611,29.43l-21.46,5.886c-2.697,-9.156 -6.049,-16.35 -10.055,-21.582c-4.006,-5.232 -9.728,-9.422 -17.168,-12.569c-7.439,-3.148 -15.696,-4.721 -24.77,-4.721c-10.873,-0 -20.275,1.655 -28.205,4.966c-7.929,3.311 -14.327,7.664 -19.191,13.06c-4.864,5.395 -8.645,11.322 -11.343,17.781c-4.578,11.118 -6.867,23.176 -6.867,36.175c0,16.023 2.759,29.43 8.278,40.221c5.518,10.791 13.55,18.803 24.096,24.035c10.546,5.232 21.746,7.848 33.599,7.848c10.301,0 20.357,-1.982 30.167,-5.947c9.81,-3.965 17.249,-8.196 22.318,-12.692l-0,-33.477l-52.852,-0Z" style="fill:#57b9e9;fill-rule:nonzero;"/><path d="M784.79,435.719c-0,-24.116 6.703,-41.979 20.111,-53.588c11.199,-9.646 24.852,-14.47 40.957,-14.47c17.903,0 32.537,5.866 43.9,17.597c11.364,11.732 17.046,27.939 17.046,48.622c-0,16.759 -2.514,29.941 -7.542,39.547c-5.028,9.606 -12.344,17.066 -21.95,22.38c-9.606,5.313 -20.091,7.97 -31.454,7.97c-18.231,0 -32.966,-5.845 -44.207,-17.535c-11.241,-11.691 -16.861,-28.532 -16.861,-50.523Zm22.686,0c-0,16.678 3.638,29.165 10.914,37.463c7.275,8.298 16.432,12.447 27.468,12.447c10.955,-0 20.07,-4.17 27.346,-12.508c7.276,-8.339 10.914,-21.051 10.914,-38.137c-0,-16.105 -3.659,-28.307 -10.976,-36.605c-7.316,-8.297 -16.411,-12.446 -27.284,-12.446c-11.036,-0 -20.193,4.128 -27.468,12.385c-7.276,8.257 -10.914,20.724 -10.914,37.401Z" style="fill:#57b9e9;fill-rule:nonzero;"/><path d="M924.462,435.719c-0,-24.116 6.703,-41.979 20.111,-53.588c11.2,-9.646 24.852,-14.47 40.957,-14.47c17.904,0 32.537,5.866 43.9,17.597c11.364,11.732 17.046,27.939 17.046,48.622c-0,16.759 -2.514,29.941 -7.542,39.547c-5.028,9.606 -12.344,17.066 -21.95,22.38c-9.606,5.313 -20.091,7.97 -31.454,7.97c-18.231,0 -32.966,-5.845 -44.207,-17.535c-11.241,-11.691 -16.861,-28.532 -16.861,-50.523Zm22.686,0c-0,16.678 3.638,29.165 10.914,37.463c7.275,8.298 16.432,12.447 27.468,12.447c10.955,-0 20.07,-4.17 27.346,-12.508c7.276,-8.339 10.914,-21.051 10.914,-38.137c-0,-16.105 -3.659,-28.307 -10.976,-36.605c-7.316,-8.297 -16.411,-12.446 -27.284,-12.446c-11.036,-0 -20.193,4.128 -27.468,12.385c-7.276,8.257 -10.914,20.724 -10.914,37.401Z" style="fill:#57b9e9;fill-rule:nonzero;"/><path d="M1068.3,511.625l21.46,3.189c0.899,6.622 3.393,11.445 7.48,14.47c5.477,4.087 12.958,6.131 22.441,6.131c10.219,0 18.108,-2.044 23.667,-6.131c5.559,-4.088 9.319,-9.81 11.281,-17.168c1.145,-4.496 1.676,-13.939 1.595,-28.327c-9.647,11.364 -21.664,17.045 -36.053,17.045c-17.903,0 -31.76,-6.458 -41.57,-19.375c-9.81,-12.916 -14.715,-28.408 -14.715,-46.475c-0,-12.427 2.248,-23.892 6.744,-34.397c4.496,-10.505 11.016,-18.619 19.559,-24.342c8.543,-5.722 18.578,-8.584 30.105,-8.584c15.369,0 28.041,6.214 38.014,18.64l0,-15.697l20.356,0l0,112.572c0,20.274 -2.064,34.642 -6.192,43.103c-4.129,8.462 -10.669,15.145 -19.621,20.05c-8.951,4.905 -19.967,7.357 -33.048,7.357c-15.532,0 -28.081,-3.494 -37.646,-10.484c-9.565,-6.99 -14.184,-17.515 -13.857,-31.577Zm18.272,-78.236c-0,17.086 3.392,29.554 10.178,37.402c6.785,7.848 15.287,11.772 25.506,11.772c10.137,-0 18.639,-3.904 25.506,-11.711c6.867,-7.807 10.301,-20.05 10.301,-36.727c0,-15.941 -3.536,-27.959 -10.607,-36.052c-7.072,-8.093 -15.594,-12.14 -25.568,-12.14c-9.81,-0 -18.149,3.985 -25.016,11.956c-6.867,7.971 -10.3,19.804 -10.3,35.5Z" style="fill:#57b9e9;fill-rule:nonzero;"/><rect x="1211.53" y="321.063" width="22.073" height="179.771" style="fill:#57b9e9;fill-rule:nonzero;"/><path d="M1356.97,458.896l22.808,2.82c-3.597,13.326 -10.259,23.667 -19.988,31.025c-9.728,7.357 -22.154,11.036 -37.278,11.036c-19.048,0 -34.152,-5.865 -45.311,-17.597c-11.159,-11.731 -16.739,-28.183 -16.739,-49.357c0,-21.909 5.641,-38.914 16.923,-51.013c11.282,-12.099 25.915,-18.149 43.9,-18.149c17.413,0 31.638,5.927 42.675,17.781c11.036,11.854 16.554,28.532 16.554,50.032c0,1.308 -0.041,3.27 -0.122,5.886l-97.121,0c0.818,14.307 4.864,25.261 12.14,32.864c7.276,7.603 16.35,11.405 27.223,11.405c8.094,-0 15.002,-2.126 20.724,-6.377c5.723,-4.251 10.26,-11.036 13.612,-20.356Zm-72.473,-35.685l72.718,0c-0.981,-10.954 -3.76,-19.17 -8.339,-24.648c-7.03,-8.502 -16.145,-12.753 -27.345,-12.753c-10.137,0 -18.66,3.393 -25.568,10.178c-6.908,6.786 -10.73,15.86 -11.466,27.223Z" style="fill:#57b9e9;fill-rule:nonzero;"/><path d="M1480.08,500.834l0,-179.771l67.813,0c11.936,0 21.051,0.572 27.346,1.717c8.829,1.472 16.227,4.272 22.195,8.4c5.968,4.128 10.771,9.912 14.409,17.352c3.638,7.439 5.457,15.614 5.457,24.525c-0,15.288 -4.864,28.225 -14.593,38.811c-9.728,10.587 -27.305,15.881 -52.729,15.881l-46.108,-0l-0,73.085l-23.79,0Zm23.79,-94.3l46.475,0c15.37,0 26.284,-2.861 32.742,-8.584c6.458,-5.722 9.687,-13.775 9.687,-24.157c0,-7.521 -1.9,-13.959 -5.702,-19.314c-3.801,-5.355 -8.808,-8.89 -15.022,-10.607c-4.005,-1.063 -11.404,-1.594 -22.195,-1.594l-45.985,-0l-0,64.256Z" style="fill:#57b9e9;fill-rule:nonzero;"/><path d="M1636.56,435.719c0,-24.116 6.704,-41.979 20.111,-53.588c11.2,-9.646 24.852,-14.47 40.957,-14.47c17.904,0 32.537,5.866 43.901,17.597c11.363,11.732 17.045,27.939 17.045,48.622c-0,16.759 -2.514,29.941 -7.542,39.547c-5.027,9.606 -12.344,17.066 -21.95,22.38c-9.606,5.313 -20.09,7.97 -31.454,7.97c-18.23,0 -32.966,-5.845 -44.207,-17.535c-11.24,-11.691 -16.861,-28.532 -16.861,-50.523Zm22.686,0c0,16.678 3.638,29.165 10.914,37.463c7.276,8.298 16.432,12.447 27.468,12.447c10.955,-0 20.07,-4.17 27.346,-12.508c7.276,-8.339 10.914,-21.051 10.914,-38.137c-0,-16.105 -3.658,-28.307 -10.975,-36.605c-7.317,-8.297 -16.412,-12.446 -27.285,-12.446c-11.036,-0 -20.192,4.128 -27.468,12.385c-7.276,8.257 -10.914,20.724 -10.914,37.401Z" style="fill:#57b9e9;fill-rule:nonzero;"/><path d="M1868.93,500.834l0,-16.432c-8.257,12.917 -20.397,19.375 -36.42,19.375c-10.382,0 -19.927,-2.861 -28.633,-8.584c-8.707,-5.722 -15.451,-13.713 -20.234,-23.973c-4.782,-10.26 -7.174,-22.053 -7.174,-35.378c0,-12.998 2.167,-24.791 6.5,-35.378c4.333,-10.587 10.832,-18.7 19.497,-24.341c8.666,-5.641 18.354,-8.462 29.063,-8.462c7.848,0 14.838,1.656 20.969,4.967c6.131,3.311 11.118,7.623 14.961,12.937l-0,-64.502l21.95,0l-0,179.771l-20.479,0Zm-69.775,-64.992c0,16.677 3.516,29.144 10.546,37.401c7.031,8.257 15.329,12.386 24.894,12.386c9.646,-0 17.842,-3.945 24.586,-11.834c6.745,-7.889 10.117,-19.927 10.117,-36.114c0,-17.821 -3.434,-30.902 -10.301,-39.24c-6.867,-8.339 -15.328,-12.508 -25.383,-12.508c-9.811,-0 -18.006,4.006 -24.587,12.017c-6.581,8.012 -9.872,20.642 -9.872,37.892Z" style="fill:#57b9e9;fill-rule:nonzero;"/><path d="M2009.1,453.132l21.705,2.821c-2.371,14.96 -8.441,26.671 -18.21,35.132c-9.77,8.462 -21.767,12.692 -35.991,12.692c-17.822,0 -32.149,-5.824 -42.981,-17.474c-10.832,-11.65 -16.248,-28.347 -16.248,-50.093c-0,-14.061 2.33,-26.365 6.99,-36.911c4.659,-10.546 11.751,-18.455 21.275,-23.728c9.524,-5.273 19.886,-7.91 31.086,-7.91c14.143,0 25.711,3.577 34.704,10.73c8.992,7.154 14.756,17.311 17.29,30.473l-21.46,3.311c-2.043,-8.747 -5.661,-15.328 -10.852,-19.743c-5.191,-4.414 -11.466,-6.622 -18.823,-6.622c-11.119,0 -20.152,3.986 -27.101,11.956c-6.949,7.971 -10.423,20.581 -10.423,37.831c-0,17.495 3.352,30.207 10.055,38.137c6.704,7.93 15.451,11.895 26.242,11.895c8.666,-0 15.901,-2.657 21.705,-7.971c5.805,-5.314 9.483,-13.489 11.037,-24.526Z" style="fill:#57b9e9;fill-rule:nonzero;"/><path d="M2134.67,484.77c-8.175,6.949 -16.044,11.854 -23.606,14.715c-7.562,2.862 -15.676,4.292 -24.341,4.292c-14.307,0 -25.302,-3.495 -32.987,-10.484c-7.685,-6.99 -11.527,-15.921 -11.527,-26.794c-0,-6.377 1.451,-12.202 4.353,-17.475c2.902,-5.273 6.704,-9.503 11.405,-12.691c4.7,-3.189 9.994,-5.6 15.88,-7.235c4.333,-1.145 10.873,-2.249 19.62,-3.311c17.822,-2.126 30.943,-4.66 39.363,-7.603c0.082,-3.025 0.123,-4.946 0.123,-5.764c-0,-8.992 -2.085,-15.328 -6.254,-19.007c-5.641,-4.987 -14.02,-7.48 -25.139,-7.48c-10.382,-0 -18.046,1.819 -22.992,5.457c-4.946,3.638 -8.604,10.076 -10.975,19.313l-21.583,-2.943c1.962,-9.237 5.192,-16.697 9.688,-22.379c4.496,-5.682 10.995,-10.055 19.498,-13.121c8.502,-3.066 18.353,-4.599 29.553,-4.599c11.118,0 20.151,1.308 27.1,3.925c6.949,2.616 12.059,5.906 15.329,9.871c3.27,3.965 5.559,8.972 6.867,15.022c0.735,3.76 1.103,10.546 1.103,20.356l0,29.43c0,20.52 0.47,33.498 1.411,38.934c0.94,5.437 2.8,10.648 5.579,15.635l-23.054,0c-2.289,-4.578 -3.76,-9.933 -4.414,-16.064Zm-1.84,-49.296c-8.011,3.27 -20.029,6.05 -36.052,8.339c-9.074,1.308 -15.492,2.779 -19.252,4.414c-3.761,1.635 -6.663,4.027 -8.707,7.174c-2.044,3.147 -3.066,6.642 -3.066,10.485c0,5.886 2.228,10.791 6.683,14.715c4.456,3.924 10.976,5.886 19.559,5.886c8.503,-0 16.065,-1.86 22.686,-5.58c6.622,-3.719 11.487,-8.808 14.593,-15.267c2.371,-4.986 3.556,-12.344 3.556,-22.073l0,-8.093Z" style="fill:#57b9e9;fill-rule:nonzero;"/><path d="M2180.53,461.962l21.828,-3.434c1.226,8.747 4.639,15.451 10.239,20.111c5.6,4.66 13.428,6.99 23.483,6.99c10.137,-0 17.658,-2.065 22.563,-6.193c4.906,-4.129 7.358,-8.972 7.358,-14.531c0,-4.987 -2.166,-8.911 -6.499,-11.773c-3.025,-1.962 -10.546,-4.455 -22.564,-7.48c-16.186,-4.087 -27.407,-7.623 -33.661,-10.607c-6.254,-2.984 -10.995,-7.112 -14.224,-12.385c-3.23,-5.273 -4.844,-11.098 -4.844,-17.475c-0,-5.804 1.328,-11.179 3.985,-16.125c2.657,-4.946 6.275,-9.054 10.853,-12.324c3.433,-2.534 8.114,-4.68 14.041,-6.438c5.927,-1.758 12.283,-2.637 19.068,-2.637c10.219,0 19.191,1.472 26.917,4.415c7.725,2.943 13.427,6.928 17.106,11.956c3.679,5.028 6.213,11.752 7.603,20.172l-21.582,2.943c-0.981,-6.703 -3.822,-11.935 -8.523,-15.696c-4.701,-3.76 -11.343,-5.641 -19.927,-5.641c-10.137,0 -17.372,1.676 -21.705,5.028c-4.333,3.352 -6.499,7.276 -6.499,11.772c-0,2.861 0.899,5.437 2.698,7.726c1.798,2.37 4.619,4.332 8.461,5.886c2.207,0.817 8.707,2.697 19.498,5.641c15.614,4.169 26.508,7.582 32.68,10.239c6.172,2.657 11.016,6.52 14.531,11.588c3.515,5.069 5.273,11.364 5.273,18.885c0,7.357 -2.146,14.286 -6.438,20.785c-4.292,6.499 -10.484,11.527 -18.578,15.083c-8.093,3.556 -17.249,5.334 -27.468,5.334c-16.923,0 -29.819,-3.515 -38.689,-10.546c-8.87,-7.03 -14.531,-17.454 -16.984,-31.269Z" style="fill:#57b9e9;fill-rule:nonzero;"/><path d="M2363.12,481.091l3.188,19.498c-6.213,1.308 -11.772,1.962 -16.677,1.962c-8.012,0 -14.225,-1.267 -18.64,-3.801c-4.414,-2.535 -7.521,-5.866 -9.319,-9.994c-1.799,-4.129 -2.698,-12.815 -2.698,-26.059l-0,-74.925l-16.187,0l0,-17.168l16.187,0l-0,-32.25l21.95,-13.244l0,45.494l22.196,0l-0,17.168l-22.196,0l0,76.152c0,6.294 0.388,10.341 1.165,12.14c0.777,1.798 2.044,3.229 3.801,4.292c1.758,1.062 4.272,1.594 7.542,1.594c2.453,-0 5.682,-0.286 9.688,-0.859Z" style="fill:#57b9e9;fill-rule:nonzero;"/><path d="M2375.87,461.962l21.827,-3.434c1.227,8.747 4.64,15.451 10.24,20.111c5.6,4.66 13.427,6.99 23.483,6.99c10.137,-0 17.658,-2.065 22.563,-6.193c4.905,-4.129 7.358,-8.972 7.358,-14.531c-0,-4.987 -2.167,-8.911 -6.5,-11.773c-3.024,-1.962 -10.545,-4.455 -22.563,-7.48c-16.187,-4.087 -27.407,-7.623 -33.661,-10.607c-6.254,-2.984 -10.996,-7.112 -14.225,-12.385c-3.229,-5.273 -4.843,-11.098 -4.843,-17.475c-0,-5.804 1.328,-11.179 3.985,-16.125c2.657,-4.946 6.274,-9.054 10.852,-12.324c3.434,-2.534 8.114,-4.68 14.041,-6.438c5.927,-1.758 12.283,-2.637 19.069,-2.637c10.219,0 19.191,1.472 26.916,4.415c7.726,2.943 13.428,6.928 17.107,11.956c3.679,5.028 6.213,11.752 7.603,20.172l-21.583,2.943c-0.981,-6.703 -3.822,-11.935 -8.522,-15.696c-4.701,-3.76 -11.343,-5.641 -19.927,-5.641c-10.137,0 -17.372,1.676 -21.705,5.028c-4.333,3.352 -6.499,7.276 -6.499,11.772c-0,2.861 0.899,5.437 2.697,7.726c1.799,2.37 4.619,4.332 8.462,5.886c2.207,0.817 8.706,2.697 19.497,5.641c15.615,4.169 26.508,7.582 32.68,10.239c6.173,2.657 11.016,6.52 14.532,11.588c3.515,5.069 5.273,11.364 5.273,18.885c-0,7.357 -2.146,14.286 -6.438,20.785c-4.292,6.499 -10.485,11.527 -18.578,15.083c-8.094,3.556 -17.25,5.334 -27.469,5.334c-16.922,0 -29.818,-3.515 -38.688,-10.546c-8.87,-7.03 -14.532,-17.454 -16.984,-31.269Z" style="fill:#57b9e9;fill-rule:nonzero;"/></g><path d="M137.281,298.65c0,-14.276 -11.59,-25.866 -25.865,-25.866c-14.276,0 -25.866,11.59 -25.866,25.866l0,27.828c0,14.276 11.59,25.866 25.866,25.866c14.275,0 25.865,-11.59 25.865,-25.866l0,-27.828Z" style="fill:#57b9e9;"/><path d="M218.759,375.945c0,-14.276 -11.59,-25.866 -25.865,-25.866c-14.276,-0 -25.866,11.59 -25.866,25.866l0,27.828c0,14.276 11.59,25.866 25.866,25.866c14.275,-0 25.865,-11.59 25.865,-25.866l0,-27.828Z" style="fill:#57b9e9;"/><path d="M309.649,245.301c-0,-14.907 -12.103,-27.009 -27.009,-27.009c-14.907,-0 -27.009,12.102 -27.009,27.009l-0,135.006c-0,14.907 12.102,27.009 27.009,27.009c14.906,0 27.009,-12.102 27.009,-27.009l-0,-135.006Z" style="fill:#57b9e9;"/><path d="M392.779,319.243c-0,-14.276 -11.59,-25.866 -25.866,-25.866c-14.276,0 -25.866,11.59 -25.866,25.866l0,86.365c0,14.276 11.59,25.866 25.866,25.866c14.276,0 25.866,-11.59 25.866,-25.866l-0,-86.365Z" style="fill:#57b9e9;"/><path d="M220.464,217.31c0,-14.275 -11.59,-25.865 -25.865,-25.865c-14.276,-0 -25.866,11.59 -25.866,25.865l-0,86.366c-0,14.275 11.59,25.865 25.866,25.865c14.275,0 25.865,-11.59 25.865,-25.865l0,-86.366Z" style="fill:#57b9e9;"/><path d="M308.709,452.007c-0,-14.276 -11.59,-25.866 -25.866,-25.866c-14.275,-0 -25.865,11.59 -25.865,25.866l-0,27.828c-0,14.276 11.59,25.866 25.865,25.866c14.276,-0 25.866,-11.59 25.866,-25.866l-0,-27.828Z" style="fill:#57b9e9;"/><path d="M477.609,297.816c0,-14.276 -11.59,-25.866 -25.865,-25.866c-14.276,-0 -25.866,11.59 -25.866,25.866l0,27.828c0,14.276 11.59,25.866 25.866,25.866c14.275,-0 25.865,-11.59 25.865,-25.866l0,-27.828Z" style="fill:#57b9e9;"/><path d="M393.247,217.245c-0,-14.276 -11.59,-25.866 -25.866,-25.866c-14.276,0 -25.866,11.59 -25.866,25.866l0,27.829c0,14.275 11.59,25.865 25.866,25.865c14.276,0 25.866,-11.59 25.866,-25.865l-0,-27.829Z" style="fill:#57b9e9;"/><path d="M308.937,141.252c-0,-14.275 -11.59,-25.865 -25.866,-25.865c-14.276,-0 -25.866,11.59 -25.866,25.865l0,27.829c0,14.276 11.59,25.866 25.866,25.866c14.276,-0 25.866,-11.59 25.866,-25.866l-0,-27.829Z" style="fill:#57b9e9;"/></svg>