<?xml version="1.0" encoding="UTF-8" standalone="no"?><!DOCTYPE svg PUBLIC "-//W3C//DTD SVG 1.1//EN" "http://www.w3.org/Graphics/SVG/1.1/DTD/svg11.dtd"><svg width="100%" height="100%" viewBox="0 0 3334 1875" version="1.1" xmlns="http://www.w3.org/2000/svg" xmlns:xlink="http://www.w3.org/1999/xlink" xml:space="preserve" xmlns:serif="http://www.serif.com/" style="fill-rule:evenodd;clip-rule:evenodd;stroke-linejoin:round;stroke-miterlimit:2;"><path d="M806.033,241.635l-0,236.484l-49.766,0l-0,-159.658l-19.894,159.658l-35.291,0l-20.958,-156.004l-0,156.004l-49.767,0l0,-236.484l73.696,-0c2.177,14.221 4.465,30.952 6.912,50.242l7.834,60.174l12.982,-110.416l74.252,-0Z" style="fill:#154267;fill-rule:nonzero;"/><path d="M958.303,241.635l-0,158.038c-0,17.923 -0.54,30.508 -1.621,37.753c-1.08,7.246 -4.29,14.714 -9.613,22.357c-5.307,7.643 -12.33,13.427 -21.006,17.367c-8.724,3.957 -18.956,5.911 -30.778,5.911c-13.062,0 -24.597,-2.32 -34.624,-6.991c-10.01,-4.688 -17.494,-10.773 -22.452,-18.257c-4.957,-7.5 -7.897,-15.413 -8.787,-23.724c-0.905,-8.342 -1.35,-25.836 -1.35,-52.531l-0,-139.923l56.932,-0l0,177.312c0,10.328 0.524,16.922 1.557,19.798c1.049,2.876 3.131,4.306 6.293,4.306c3.607,0 5.926,-1.573 6.975,-4.735c1.017,-3.178 1.557,-10.646 1.557,-22.436l0,-174.245l56.917,-0Z" style="fill:#154267;fill-rule:nonzero;"/><path d="M1100.99,313.201l-52.88,0l-0,-17.526c-0,-8.167 -0.683,-13.395 -2.034,-15.619c-1.351,-2.241 -3.607,-3.385 -6.769,-3.385c-3.416,0 -6.022,1.51 -7.77,4.545c-1.748,3.034 -2.638,7.595 -2.638,13.728c0,7.897 0.986,13.824 2.972,17.812c1.891,4.005 7.261,8.835 16.096,14.476c25.328,16.255 41.297,29.602 47.875,40.026c6.579,10.407 9.884,27.203 9.884,50.386c-0,16.843 -1.844,29.268 -5.482,37.245c-3.655,7.992 -10.71,14.666 -21.181,20.084c-10.44,5.403 -22.611,8.088 -36.514,8.088c-15.223,0 -28.236,-3.098 -38.994,-9.327c-10.773,-6.245 -17.828,-14.189 -21.18,-23.819c-3.321,-9.645 -5.006,-23.31 -5.006,-41.027l0,-15.492l52.897,0l-0,28.76c-0,8.867 0.747,14.555 2.224,17.098c1.478,2.526 4.132,3.797 7.913,3.797c3.782,0 6.61,-1.589 8.438,-4.814c1.859,-3.21 2.78,-7.977 2.78,-14.317c0,-13.919 -1.763,-23.024 -5.259,-27.33c-3.623,-4.258 -12.489,-11.425 -26.663,-21.467c-14.141,-10.122 -23.516,-17.463 -28.108,-22.055c-4.608,-4.56 -8.406,-10.9 -11.441,-18.988c-3.019,-8.088 -4.528,-18.4 -4.528,-30.969c-0,-18.114 2.145,-31.35 6.419,-39.724c4.306,-8.373 11.202,-14.92 20.752,-19.639c9.581,-4.735 21.117,-7.087 34.639,-7.087c14.777,0 27.378,2.59 37.801,7.738c10.408,5.164 17.304,11.663 20.689,19.497c3.368,7.849 5.068,21.149 5.068,39.946l0,9.359Z" style="fill:#154267;fill-rule:nonzero;"/><path d="M1123.57,241.635l94.94,-0l-0,47.319l-38.008,-0l0,44.84l35.561,0l-0,44.984l-35.561,-0l0,52.006l41.79,0l-0,47.335l-98.722,0l-0,-236.484Z" style="fill:#154267;fill-rule:nonzero;"/><path d="M1368.76,380.097c0,23.77 -0.524,40.582 -1.557,50.481c-1.049,9.883 -4.29,18.908 -9.74,27.092c-5.451,8.167 -12.839,14.443 -22.103,18.845c-9.295,4.369 -20.116,6.562 -32.478,6.562c-11.695,0 -22.23,-2.066 -31.573,-6.213c-9.327,-4.131 -16.827,-10.344 -22.5,-18.622c-5.688,-8.279 -9.057,-17.288 -10.137,-27.029c-1.097,-9.74 -1.637,-26.774 -1.637,-51.116l0,-40.439c0,-23.771 0.525,-40.598 1.557,-50.482c1.049,-9.883 4.291,-18.908 9.741,-27.092c5.434,-8.199 12.807,-14.475 22.102,-18.845c9.296,-4.385 20.116,-6.578 32.447,-6.578c11.726,0 22.261,2.082 31.588,6.213c9.327,4.147 16.843,10.344 22.516,18.623c5.688,8.278 9.057,17.272 10.137,27.012c1.081,9.74 1.637,26.79 1.637,51.149l0,40.439Zm-56.948,-77.717c-0,-10.995 -0.572,-18.034 -1.685,-21.101c-1.144,-3.051 -3.464,-4.608 -6.959,-4.608c-2.987,0 -5.26,1.255 -6.849,3.75c-1.573,2.463 -2.367,9.804 -2.367,21.959l-0,110.433c-0,13.729 0.524,22.198 1.557,25.408c1.049,3.225 3.448,4.83 7.246,4.83c3.877,0 6.355,-1.843 7.436,-5.545c1.065,-3.703 1.605,-12.521 1.605,-26.441l-0,-108.685l0.016,0Z" style="fill:#154267;fill-rule:nonzero;"/><path d="M1712.11,241.635l-0,236.484l-49.751,0l0,-159.658l-19.878,159.658l-35.29,0l-20.991,-156.004l0,156.004l-49.75,0l0,-236.484l73.696,-0c2.177,14.221 4.465,30.952 6.896,50.242l7.85,60.174l12.997,-110.416l74.221,-0Z" style="fill:#154267;fill-rule:nonzero;"/><path d="M1864.39,241.635l0,158.038c0,17.923 -0.54,30.508 -1.636,37.753c-1.065,7.246 -4.259,14.714 -9.582,22.357c-5.338,7.643 -12.33,13.427 -21.053,17.367c-8.692,3.957 -18.941,5.911 -30.747,5.911c-13.077,0 -24.613,-2.32 -34.623,-6.991c-10.011,-4.688 -17.495,-10.773 -22.436,-18.257c-4.974,-7.5 -7.913,-15.413 -8.803,-23.724c-0.906,-8.342 -1.351,-25.836 -1.351,-52.531l0,-139.923l56.933,-0l-0,177.312c-0,10.328 0.524,16.922 1.557,19.798c1.017,2.876 3.146,4.306 6.292,4.306c3.607,0 5.927,-1.573 6.96,-4.735c1.049,-3.178 1.557,-10.646 1.557,-22.436l0,-174.245l56.932,-0Z" style="fill:#154267;fill-rule:nonzero;"/><path d="M2013.56,241.635l0,236.484l-49.909,0l-29.618,-107.509l-0,107.509l-47.606,0l0,-236.484l47.606,-0l31.922,106.46l-0,-106.46l47.605,-0Z" style="fill:#154267;fill-rule:nonzero;"/><rect x="2036.4" y="241.635" width="56.932" height="236.469" style="fill:#154267;"/><path d="M2249.14,344.742l-56.932,0l-0,-41.17c-0,-11.996 -0.604,-19.465 -1.827,-22.436c-1.208,-2.971 -3.909,-4.465 -8.041,-4.465c-4.703,0 -7.674,1.812 -8.93,5.418c-1.271,3.592 -1.89,11.377 -1.89,23.358l-0,109.845c-0,11.504 0.619,18.988 1.89,22.5c1.256,3.495 4.084,5.243 8.501,5.243c4.259,0 7.024,-1.748 8.327,-5.243c1.318,-3.512 1.97,-11.727 1.97,-24.693l-0,-29.65l56.916,0l0,9.2c0,24.454 -1.589,41.79 -4.798,52.007c-3.194,10.217 -10.265,19.179 -21.213,26.869c-10.964,7.691 -24.47,11.536 -40.518,11.536c-16.684,0 -30.413,-3.257 -41.234,-9.772c-10.837,-6.531 -17.987,-15.556 -21.514,-27.108c-3.512,-11.535 -5.276,-28.903 -5.276,-52.07l0,-69.072c0,-17.049 0.525,-29.841 1.637,-38.342c1.065,-8.516 4.306,-16.731 9.661,-24.613c5.37,-7.881 12.807,-14.109 22.309,-18.622c9.518,-4.529 20.45,-6.801 32.796,-6.801c16.795,0 30.619,3.512 41.519,10.519c10.917,7.023 18.083,15.763 21.499,26.234c3.432,10.471 5.148,26.758 5.148,48.844l0,22.484Z" style="fill:#154267;fill-rule:nonzero;"/><rect x="2269.56" y="241.635" width="56.932" height="236.469" style="fill:#154267;"/><path d="M2349.34,241.635l57.346,-0c15.508,-0 27.409,1.303 35.767,3.924c8.326,2.654 14.619,6.436 18.798,11.409c4.21,4.973 7.039,10.98 8.532,18.035c1.478,7.055 2.225,17.987 2.225,32.796l-0,20.593c-0,15.095 -1.446,26.091 -4.322,33.002c-2.892,6.912 -8.183,12.235 -15.89,15.922c-7.706,3.702 -17.78,5.545 -30.222,5.545l-15.301,0l-0,95.243l-56.933,-0l0,-236.469Zm56.933,40.454l-0,60.19c1.636,0.096 3.034,0.143 4.21,0.143c5.228,0 8.835,-1.398 10.869,-4.163c2.05,-2.78 3.051,-8.548 3.051,-17.304l-0,-19.433c-0,-8.087 -1.176,-13.347 -3.512,-15.778c-2.352,-2.431 -7.214,-3.655 -14.618,-3.655Z" style="fill:#154267;fill-rule:nonzero;"/><path d="M2579.79,241.635l32.59,236.484l-58.283,0l-2.845,-42.52l-20.418,-0l-3.384,42.52l-58.967,0l28.951,-236.484l82.356,-0Zm-30.158,152.063c-2.876,-26.79 -5.768,-59.84 -8.66,-99.183c-5.768,45.19 -9.359,78.241 -10.805,99.183l19.465,0Z" style="fill:#154267;fill-rule:nonzero;"/><path d="M2679.05,241.635l0,189.149l34.64,0l-0,47.335l-91.556,0l-0,-236.484l56.916,-0Z" style="fill:#154267;fill-rule:nonzero;"/><path d="M908.997,524.152l42.616,-0c27.505,-0 46.096,1.366 55.789,4.083c9.692,2.733 17.065,7.23 22.102,13.459c5.053,6.229 8.199,13.156 9.47,20.799c1.272,7.643 1.907,22.659 1.907,45.079l0,82.801c0,21.228 -0.921,35.418 -2.781,42.584c-1.859,7.166 -5.068,12.759 -9.676,16.811c-4.608,4.036 -10.281,6.864 -17.034,8.469c-6.769,1.605 -16.954,2.415 -30.572,2.415l-71.821,0l0,-236.5Zm56.949,40.47l-0,155.544c8.215,-0 13.252,-1.764 15.143,-5.323c1.906,-3.559 2.844,-13.22 2.844,-28.983l-0,-91.889c-0,-10.71 -0.318,-17.574 -0.938,-20.593c-0.635,-3.035 -2.081,-5.228 -4.322,-6.642c-2.256,-1.414 -6.499,-2.114 -12.727,-2.114Z" style="fill:#154267;fill-rule:nonzero;"/><path d="M1062.09,524.152l94.94,-0l0,47.335l-37.992,-0l0,44.84l35.561,0l-0,44.984l-35.561,-0l0,52.006l41.774,0l-0,47.32l-98.722,-0l-0,-236.485Z" style="fill:#154267;fill-rule:nonzero;"/><path d="M1405.47,611.195l-56.932,-0l-0,-21.467c-0,-13.522 -0.525,-22.007 -1.637,-25.407c-1.081,-3.401 -3.639,-5.117 -7.707,-5.117c-3.495,0 -5.91,1.462 -7.166,4.386c-1.255,2.923 -1.891,10.423 -1.891,22.499l0,113.5c0,10.598 0.636,17.59 1.891,20.942c1.256,3.369 3.798,5.037 7.58,5.037c4.147,0 6.959,-1.891 8.453,-5.704c1.494,-3.782 2.224,-11.186 2.224,-22.182l0,-28.045l-11.488,-0l0,-35.942l66.673,-0l0,126.942l-35.831,-0l-5.291,-16.955c-3.861,7.31 -8.755,12.776 -14.666,16.446c-5.895,3.639 -12.855,5.45 -20.895,5.45c-9.55,0 -18.496,-2.479 -26.838,-7.516c-8.342,-5.005 -14.682,-11.202 -19.004,-18.622c-4.322,-7.389 -7.023,-15.143 -8.103,-23.294c-1.097,-8.136 -1.637,-20.339 -1.637,-36.578l-0,-70.264c-0,-22.579 1.128,-38.993 3.384,-49.226c2.257,-10.201 8.74,-19.592 19.418,-28.109c10.661,-8.501 24.485,-12.775 41.44,-12.775c16.684,0 30.524,3.702 41.519,11.091c10.996,7.42 18.162,16.192 21.499,26.377c3.337,10.169 5.005,24.946 5.005,44.332l0,10.201Z" style="fill:#154267;fill-rule:nonzero;"/><path d="M1556.94,524.152l-0,158.054c-0,17.907 -0.557,30.492 -1.653,37.753c-1.065,7.246 -4.274,14.714 -9.597,22.357c-5.323,7.643 -12.315,13.427 -21.022,17.367c-8.692,3.957 -18.956,5.927 -30.762,5.927c-13.078,0 -24.613,-2.336 -34.624,-7.007c-9.994,-4.688 -17.494,-10.773 -22.452,-18.257c-4.957,-7.5 -7.897,-15.413 -8.787,-23.739c-0.906,-8.327 -1.35,-25.821 -1.35,-52.516l-0,-139.923l56.932,-0l-0,177.328c-0,10.312 0.524,16.906 1.557,19.782c1.033,2.876 3.13,4.306 6.292,4.306c3.607,0 5.927,-1.573 6.96,-4.735c1.049,-3.178 1.557,-10.646 1.557,-22.436l0,-174.245l56.949,-0l-0,-0.016Z" style="fill:#154267;fill-rule:nonzero;"/><path d="M1677.29,524.152l32.59,236.5l-58.267,0l-2.86,-42.52l-20.418,-0l-3.369,42.52l-58.966,0l28.935,-236.5l82.355,-0Zm-30.158,152.063c-2.892,-26.79 -5.768,-59.84 -8.66,-99.183c-5.768,45.174 -9.375,78.241 -10.821,99.183l19.481,0Z" style="fill:#154267;fill-rule:nonzero;"/><path d="M1824.3,524.152l-41.535,150.887l-0,85.613l-52.722,0l-0,-85.613l-40.042,-150.887l52.325,-0c8.214,46.064 12.807,77.08 13.792,93.049c3.178,-25.233 8.437,-56.233 15.826,-93.049l52.356,-0Z" style="fill:#154267;fill-rule:nonzero;"/><path d="M1918.56,524.152l32.59,236.5l-58.299,0l-2.829,-42.52l-20.418,-0l-3.4,42.52l-58.951,0l28.935,-236.5l82.372,-0Zm-30.158,152.063c-2.892,-26.79 -5.768,-59.84 -8.66,-99.183c-5.768,45.174 -9.359,78.241 -10.821,99.183l19.481,0Z" style="fill:#154267;fill-rule:nonzero;"/><path d="M2091.12,760.652l0,28.618l-43.013,-0c-10.36,-0 -17.669,-0.858 -21.896,-2.574c-4.242,-1.685 -7.102,-4.243 -8.596,-7.659c-1.478,-3.401 -2.225,-9.534 -2.225,-18.385c-12.886,-0.413 -23.977,-4.067 -33.288,-10.979c-9.264,-6.912 -15.413,-15.683 -18.385,-26.361c-2.955,-10.662 -4.465,-26.599 -4.465,-47.828l0,-73.187c0,-16.065 0.89,-28.3 2.638,-36.737c1.78,-8.422 5.403,-16.366 10.9,-23.819c5.498,-7.436 12.569,-13.045 21.245,-16.858c8.644,-3.782 18.241,-5.705 28.792,-5.705c12.711,0 24.057,2.336 34.019,7.023c9.963,4.672 17.399,10.615 22.309,17.813c4.91,7.214 8.12,14.698 9.614,22.436c1.477,7.722 2.224,19.242 2.224,34.528l0,76.826c0,21.054 -0.953,35.307 -2.844,42.807c-1.891,7.515 -5.514,13.458 -10.885,17.891c-5.354,4.449 -12.505,7.818 -21.45,10.17c0.286,5.243 1.302,8.564 3.05,9.931c1.748,1.366 5.927,2.049 12.505,2.049l19.751,0Zm-57.091,-175.738c-0,-10.996 -0.54,-18.035 -1.653,-21.118c-1.144,-3.051 -3.464,-4.592 -6.975,-4.592c-2.972,0 -5.244,1.255 -6.833,3.75c-1.557,2.463 -2.383,9.804 -2.383,21.96l-0,110.432c-0,13.729 0.524,22.214 1.557,25.424c1.049,3.209 3.448,4.814 7.262,4.814c3.861,0 6.34,-1.843 7.42,-5.545c1.081,-3.703 1.621,-12.521 1.621,-26.441l-0,-108.684l-0.016,-0Z" style="fill:#154267;fill-rule:nonzero;"/><path d="M2241.63,524.152l-0,158.054c-0,17.907 -0.525,30.492 -1.605,37.753c-1.097,7.246 -4.291,14.714 -9.614,22.357c-5.338,7.643 -12.33,13.427 -21.037,17.367c-8.708,3.957 -18.941,5.927 -30.763,5.927c-13.077,0 -24.613,-2.336 -34.607,-7.007c-10.011,-4.688 -17.495,-10.773 -22.468,-18.257c-4.958,-7.5 -7.897,-15.413 -8.787,-23.739c-0.89,-8.327 -1.335,-25.821 -1.335,-52.516l0,-139.923l56.917,-0l-0,177.328c-0,10.312 0.524,16.906 1.557,19.782c1.049,2.876 3.146,4.306 6.292,4.306c3.607,0 5.911,-1.573 6.96,-4.735c1.033,-3.178 1.557,-10.646 1.557,-22.436l0,-174.245l56.933,-0l-0,-0.016Z" style="fill:#154267;fill-rule:nonzero;"/><rect x="2263.66" y="524.152" width="56.932" height="236.469" style="fill:#154267;"/><path d="M2400.39,524.152l0,189.165l34.624,0l-0,47.335l-91.556,0l-0,-236.5l56.932,-0Z" style="fill:#154267;fill-rule:nonzero;"/><path d="M961.227,1424.66l362.076,-40.82l-24.963,-47.224l-62.493,12.743l49.972,-25.264l-25.026,-40.837l-299.566,141.402Z" style="fill:#d6d6db;fill-rule:nonzero;"/><path d="M1467.18,1572.36c0,-0 949.881,-330.202 957.11,-349.285c7.262,-19.1 -26.122,-42.06 -93.605,-25.773c-67.388,16.43 -555.707,77.414 -555.707,77.414l-50.609,54.819l527.63,-76.493l-645.721,221.104l118.091,-144.595l250.627,-275.669c0,0 -60.301,-16.43 -86.805,2.765c-26.583,19.036 -319.81,125.448 -319.81,125.448l-2.431,40.98l209.028,-84.612l-134.967,152.873l-78.923,13.602l-2.368,40.868l33.098,-5.45l-30.73,39.311l-2.368,110.877l-91.54,81.816Z" style="fill:#d6d6db;fill-rule:nonzero;"/><path d="M1489.06,1230.92l82.499,-59.268l-10.312,329.391l-84.295,70.868l12.108,-340.991Z" style="fill:#cbc3c0;fill-rule:nonzero;"/><path d="M1490.75,1232.03l-11.886,335.811l80.687,-67.848l10.154,-324.784l-78.955,56.821Zm-15.604,343.851l0.127,-4.099l12.108,-341.944l0.763,-0.556l85.247,-61.366l-0.095,3.734l-10.344,330.424l-0.683,0.572l-87.123,73.235Z" style="fill:#cbc3c0;fill-rule:nonzero;"/><path d="M1249.59,1163.39l83.706,-58.807l90.365,136.682l-4.974,172.895l-169.097,-250.77Z" style="fill:#cbc3c0;fill-rule:nonzero;"/><path d="M991.941,1092.4l85.311,-54.947l-1.604,174.182l-80.561,83.166l-3.146,-202.401Z" style="fill:#cbc3c0;fill-rule:nonzero;"/><path d="M993.705,1093.56l3.051,196.903l77.175,-79.765l1.574,-169.797l-81.8,52.659Zm-0.238,205.627l-3.274,-207.995l88.823,-57.091l-1.636,178.36l-0.572,0.604l-83.341,86.122Z" style="fill:#cbc3c0;fill-rule:nonzero;"/><path d="M1218.29,1233.13l-14.667,-24.327l-223.042,208.742l104.268,-50.847l133.441,-133.568Z" style="fill:#cbc3c0;fill-rule:nonzero;"/><path d="M1203.29,1211.63l-212.206,198.62l92.811,-45.19l132.043,-132.17l-12.648,-21.26Zm-221.994,207.725l-1.811,-3.337l224.52,-210.172l16.589,27.632l-135.094,135.062l-104.204,50.815Z" style="fill:#cbc3c0;fill-rule:nonzero;"/><path d="M925.03,1070.74l4.147,311.357c0,-0 16.065,54.152 51.403,35.45l220.691,-206.788l244.684,363.205c-0,-0 45.11,15 38.675,-35.307l9.645,-309.275l-72.488,-20.545l-3.146,204.88l-169.05,-251.5l-95.067,-29.762l-159.421,158.324l-3.162,-199.351l-66.911,-20.688Z" style="fill:#938379;fill-rule:nonzero;"/><path d="M1446.96,1572.2c1.621,0.54 6.896,1.891 12.823,1.891c8.532,-0 14.904,-2.701 18.845,-7.913c4.417,-5.832 5.847,-15.016 4.258,-27.267l9.613,-308.02l-69.024,-19.496l-3.21,208.011l-2.971,-4.449l-168.7,-250.961l-93.622,-29.396l-161.501,160.438l-3.21,-202.068l-63.463,-19.624l4.115,308.433c1.097,3.496 12.585,37.674 35.323,37.674c4.274,0 8.818,-1.191 13.458,-3.623l221.835,-207.915l245.431,364.285Zm12.823,5.879c-7.675,0 -14.063,-2.05 -14.317,-2.177l-0.54,-0.174l-0.35,-0.541l-243.587,-361.663l-219.658,205.834c-5.132,2.653 -10.265,4.099 -15.095,4.099c-26.298,0 -38.183,-38.993 -38.691,-40.693l-0.096,-0.604l-4.195,-314.042l70.423,21.848l0.032,1.446l3.035,195.109l157.323,-156.179l96.529,30.174l0.318,0.461l166.078,247.068l3.13,-201.655l75.953,21.403l-9.773,310.959c1.748,13.014 0,23.167 -5.037,30c-4.608,6.054 -12.012,9.327 -21.482,9.327" style="fill:#938379;fill-rule:nonzero;"/><path d="M959.765,722.12l116.327,1.923l195.919,300.933l-68.468,71.027l-243.778,-373.883Z" style="fill:#a1a2a9;fill-rule:nonzero;"/><path d="M963.229,724.249l240.568,368.83l65.91,-68.357l-194.473,-298.741l-112.005,-1.732Zm240.06,374.661l-1.128,-1.732l-245.908,-377.012l120.729,1.938l0.493,0.747l196.84,302.411l-1.128,1.176l-69.898,72.472Z" style="fill:#a1a2a9;fill-rule:nonzero;"/><path d="M1454.41,849.078l87.345,-45.968c0,-0 35.688,4.115 40.63,41.996l-12.315,328.056l-76.286,56.71l6.229,-345.614c0,-0 -23.421,-36.546 -45.603,-35.18" style="fill:#a1a2a9;fill-rule:nonzero;"/><path d="M1461.14,847.712c20.402,4.798 39.359,33.972 40.217,35.338l0.381,0.524l0,0.684l-6.165,341.88l72.774,-54.151l12.347,-326.929c-4.386,-33.368 -34.64,-39.215 -38.628,-39.899l-80.926,42.553Zm30.858,385.767l-0,-3.638l6.244,-344.979c-2.939,-4.434 -24.152,-35.164 -43.728,-33.782l-0.842,-3.782l87.822,-46.143l0.429,0.048c0.397,0.016 37.134,4.687 42.187,43.633l-12.362,329.407l-79.75,59.236Z" style="fill:#a1a2a9;fill-rule:nonzero;"/><path d="M984.425,1095.16l97.976,-56.122l-0,-16.652l-95.1,-127.387l-2.876,200.161Z" style="fill:#a1a2a9;fill-rule:nonzero;"/><path d="M988.938,900.243l-2.781,191.739l94.448,-54.167l0,-14.698l-91.667,-122.874Zm-6.308,198.159l0.048,-3.242l2.923,-205.404l98.452,131.899l0,18.639l-101.423,58.108Z" style="fill:#a1a2a9;fill-rule:nonzero;"/><path d="M1251.62,1163.01l72.774,-49.719l103.569,-111.703l-176.343,161.422Z" style="fill:#acadb3;fill-rule:nonzero;"/><path d="M1395.87,1033.57l-123.367,112.944l51.037,-34.926l72.33,-78.018Zm-143.372,131.169l-1.907,-3.242l176.359,-161.422l2.256,3.003l-103.648,111.704l-73.06,49.957Z" style="fill:#acadb3;fill-rule:nonzero;"/><path d="M925.427,1081.78l-4.814,-323.337c-0,-0 -2.431,-25.074 39.104,-36.181l238.217,366.446l256.045,-238.948c-0,0 48.352,5.546 48.352,57.06l-9.693,323.29l-72.393,-14.698l6.372,-214.939l-178.647,165.332l-96.688,-25.678l-162.535,-246.162l3.321,199.59l-66.641,-11.775Z" style="fill:#371711;fill-rule:nonzero;"/><path d="M1421.98,1213.79l69.025,14.062l9.549,-321.16c0,-45.778 -40.248,-53.914 -46.032,-54.867l-256.887,239.679l-1.033,-1.653l-237.597,-365.333c-38.23,10.646 -36.737,32.78 -36.689,33.701l4.83,321.812l63.177,11.234l-3.448,-203.307l165.427,250.357l95.21,25.375l180.967,-167.476l-6.499,217.576Zm72.346,18.734l-75.857,-15.445l6.356,-212.317l-176.454,163.187l-0.795,-0.143l-97.276,-25.9l-0.413,-0.62l-159.341,-241.3l3.289,195.967l-70.073,-12.505l-0,-1.685l-4.846,-323.273c-0.112,-0.954 -2.13,-26.743 40.391,-38.183l1.08,-0.286l237.852,365.763l255.25,-238.074l0.684,0.047c0.524,0.096 49.845,6.388 49.845,59.062l-9.692,325.705Z" style="fill:#371711;fill-rule:nonzero;"/><path d="M1157.54,1658.29l39.533,-0l-0,8.771l-30,-0l0,30.127l27.585,-0l-0,8.771l-27.585,-0l0,32.542l30.635,-0l0,8.771l-40.168,-0l-0,-88.982Z" style="fill:#371711;fill-rule:nonzero;"/><path d="M1211.44,1735.45c1.621,1.112 3.877,2.145 6.801,3.114c2.924,0.985 6.26,1.462 9.979,1.462c4.751,-0 8.612,-1.16 11.567,-3.496c2.972,-2.32 4.449,-5.99 4.449,-10.995c0,-3.305 -0.842,-6.181 -2.542,-8.644c-1.684,-2.447 -3.814,-4.719 -6.356,-6.801c-2.542,-2.066 -5.275,-4.1 -8.199,-6.102c-2.924,-1.986 -5.657,-4.194 -8.199,-6.61c-2.542,-2.415 -4.656,-5.18 -6.356,-8.326c-1.684,-3.13 -2.542,-6.896 -2.542,-11.313c-0,-7.119 2.145,-12.394 6.419,-15.826c4.29,-3.432 9.852,-5.149 16.716,-5.149c4.243,0 8.008,0.382 11.313,1.145c3.306,0.762 5.975,1.747 8.009,2.923l-3.051,8.39c-1.525,-0.922 -3.702,-1.78 -6.546,-2.542c-2.829,-0.763 -6.118,-1.144 -9.852,-1.144c-4.576,-0 -7.961,1.128 -10.169,3.368c-2.193,2.256 -3.305,5.069 -3.305,8.453c-0,2.972 0.858,5.594 2.542,7.882c1.7,2.288 3.813,4.449 6.356,6.483c2.542,2.033 5.275,4.099 8.199,6.165c2.923,2.081 5.656,4.385 8.199,6.928c2.542,2.542 4.671,5.434 6.356,8.644c1.7,3.225 2.542,7.039 2.542,11.44c-0,7.468 -2.193,13.316 -6.61,17.542c-4.401,4.243 -10.63,6.356 -18.686,6.356c-5.085,0 -9.248,-0.461 -12.521,-1.398c-3.258,-0.922 -5.864,-1.986 -7.818,-3.178l3.305,-8.771Z" style="fill:#371711;fill-rule:nonzero;"/><path d="M1313.39,1667.06l-21.864,-0l-0,80.211l-9.534,-0l-0,-80.211l-21.864,-0l-0,-8.771l53.262,-0l-0,8.771Z" style="fill:#371711;fill-rule:nonzero;"/><path d="M1350.51,1722.36l-25.169,-0l-7.119,24.915l-9.406,-0l26.821,-90.38l5.212,-0l26.822,90.38l-9.915,-0l-7.246,-24.915Zm-22.627,-8.517l20.339,-0l-7.754,-27.457l-2.416,-13.348l-0.254,0l-2.415,13.602l-7.5,27.203Z" style="fill:#371711;fill-rule:nonzero;"/><path d="M1420.55,1678.5c0,2.209 -0.254,4.418 -0.762,6.611c-0.509,2.208 -1.303,4.29 -2.416,6.228c-1.096,1.955 -2.478,3.687 -4.131,5.212c-1.652,1.525 -3.655,2.669 -6.038,3.432l-0,0.509c2.034,0.429 3.988,1.128 5.847,2.097c1.875,0.985 3.528,2.336 4.958,4.068c1.446,1.748 2.59,3.861 3.432,6.356c0.858,2.51 1.271,5.497 1.271,8.961c0,4.577 -0.715,8.549 -2.161,11.886c-1.43,3.353 -3.4,6.086 -5.911,8.199c-2.494,2.129 -5.37,3.686 -8.644,4.703c-3.257,1.017 -6.705,1.526 -10.36,1.526l-4.131,-0c-1.557,-0 -3.241,-0.064 -5.021,-0.191c-1.78,-0.127 -3.528,-0.286 -5.275,-0.509c-1.732,-0.206 -3.321,-0.524 -4.767,-0.953l-0,-87.583c2.542,-0.509 5.529,-0.922 8.961,-1.272c3.433,-0.333 7.151,-0.508 11.123,-0.508c2.892,-0 5.768,0.286 8.644,0.826c2.892,0.556 5.466,1.589 7.754,3.115c2.288,1.525 4.132,3.67 5.53,6.419c1.398,2.765 2.097,6.388 2.097,10.868Zm-24.152,61.017c2.288,-0 4.417,-0.35 6.356,-1.081c1.954,-0.715 3.67,-1.796 5.148,-3.241c1.494,-1.431 2.654,-3.194 3.496,-5.276c0.858,-2.065 1.271,-4.512 1.271,-7.309c0,-3.464 -0.524,-6.292 -1.589,-8.453c-1.049,-2.161 -2.431,-3.83 -4.131,-5.021c-1.685,-1.176 -3.623,-1.987 -5.784,-2.416c-2.161,-0.413 -4.386,-0.635 -6.674,-0.635l-8.517,-0l0,32.542c0.509,0.174 1.176,0.302 1.971,0.381c0.81,0.095 1.7,0.175 2.669,0.254c0.985,0.096 1.971,0.159 2.987,0.191c1.017,0.048 1.955,0.064 2.797,0.064Zm-5.212,-41.695c1.192,0 2.543,-0.032 4.068,-0.127c1.525,-0.079 2.797,-0.206 3.814,-0.381c3.146,-1.271 5.831,-3.321 8.071,-6.165c2.257,-2.829 3.369,-6.324 3.369,-10.488c0,-2.796 -0.381,-5.148 -1.144,-7.055c-0.763,-1.906 -1.796,-3.4 -3.114,-4.512c-1.303,-1.097 -2.861,-1.875 -4.64,-2.352c-1.78,-0.461 -3.639,-0.699 -5.593,-0.699c-2.193,-0 -4.195,0.064 -5.975,0.191c-1.779,0.127 -3.13,0.286 -4.068,0.445l0,31.143l5.212,0Z" style="fill:#371711;fill-rule:nonzero;"/><path d="M1479.15,1747.27l-42.838,-0l-0,-88.982l9.533,-0l0,80.211l33.305,-0l0,8.771Z" style="fill:#371711;fill-rule:nonzero;"/><path d="M1489.06,1658.29l39.534,-0l-0,8.771l-30,-0l-0,30.127l27.584,-0l0,8.771l-27.584,-0l-0,32.542l30.635,-0l0,8.771l-40.169,-0l0,-88.982Z" style="fill:#371711;fill-rule:nonzero;"/><path d="M1590.12,1743.84c-2.113,1.78 -4.783,3.051 -8.008,3.814c-3.21,0.763 -6.61,1.144 -10.17,1.144c-4.48,0 -8.644,-0.842 -12.457,-2.542c-3.814,-1.685 -7.087,-4.386 -9.852,-8.072c-2.749,-3.687 -4.894,-8.453 -6.419,-14.301c-1.525,-5.847 -2.288,-12.87 -2.288,-21.101c-0,-8.469 0.874,-15.636 2.606,-21.483c1.748,-5.847 4.052,-10.582 6.928,-14.237c2.892,-3.639 6.212,-6.261 9.978,-7.881c3.782,-1.605 7.659,-2.416 11.631,-2.416c4.068,0 7.437,0.302 10.106,0.89c2.67,0.604 4.99,1.319 6.928,2.161l-2.288,8.644c-1.684,-0.921 -3.686,-1.652 -5.974,-2.161c-2.289,-0.508 -4.91,-0.762 -7.882,-0.762c-2.955,-0 -5.752,0.667 -8.389,1.97c-2.622,1.319 -4.958,3.432 -6.992,6.356c-2.034,2.923 -3.639,6.769 -4.83,11.504c-1.176,4.751 -1.78,10.55 -1.78,17.415c0,12.378 2.129,21.673 6.356,27.902c4.242,6.229 9.883,9.343 16.906,9.343c2.892,-0 5.467,-0.397 7.755,-1.208c2.288,-0.794 4.242,-1.747 5.847,-2.86l2.288,7.881Z" style="fill:#371711;fill-rule:nonzero;"/><rect x="1603.72" y="1658.29" width="9.534" height="88.982" style="fill:#371711;"/><path d="M1631.43,1658.29c1.367,-0.254 2.86,-0.445 4.513,-0.572c1.652,-0.127 3.337,-0.207 5.021,-0.254c1.7,-0.032 3.368,-0.08 5.021,-0.128c1.652,-0.031 3.21,-0.063 4.64,-0.063c6.197,-0 11.44,1.065 15.762,3.178c4.322,2.129 7.85,5.148 10.551,9.089c2.717,3.94 4.671,8.675 5.847,14.173c1.192,5.514 1.78,11.663 1.78,18.432c-0,6.102 -0.572,11.949 -1.716,17.542c-1.144,5.593 -3.067,10.519 -5.784,14.746c-2.701,4.242 -6.292,7.627 -10.741,10.169c-4.449,2.543 -10.011,3.814 -16.716,3.814c-1.097,-0 -2.495,-0.016 -4.195,-0.064c-1.684,-0.032 -3.448,-0.127 -5.275,-0.254c-1.812,-0.127 -3.512,-0.223 -5.085,-0.318c-1.557,-0.079 -2.765,-0.206 -3.623,-0.381l0,-89.109Zm19.703,7.754l-2.733,-0c-0.969,-0 -1.923,0.048 -2.86,0.127c-0.922,0.095 -1.796,0.175 -2.606,0.254c-0.794,0.096 -1.462,0.175 -1.97,0.255l-0,72.456c0.349,0.096 0.953,0.159 1.843,0.191l5.593,0.254c0.89,0.048 1.557,0.064 1.97,0.064c4.672,-0 8.565,-1.017 11.695,-3.051c3.146,-2.034 5.625,-4.767 7.437,-8.199c1.827,-3.432 3.114,-7.405 3.877,-11.949c0.762,-4.529 1.144,-9.343 1.144,-14.428c-0,-4.481 -0.334,-8.898 -1.017,-13.22c-0.668,-4.322 -1.875,-8.151 -3.623,-11.504c-1.732,-3.337 -4.1,-6.054 -7.119,-8.136c-3.003,-2.065 -6.88,-3.114 -11.631,-3.114Z" style="fill:#371711;fill-rule:nonzero;"/><path d="M1695.5,1702.78c-0,-15.079 2.415,-26.52 7.246,-34.322c4.83,-7.786 12.203,-11.695 22.118,-11.695c5.339,0 9.883,1.081 13.601,3.242c3.734,2.161 6.769,5.244 9.089,9.216c2.336,3.988 4.052,8.819 5.148,14.491c1.113,5.689 1.653,12.045 1.653,19.068c0,15.095 -2.431,26.535 -7.309,34.321c-4.862,7.802 -12.267,11.695 -22.182,11.695c-5.244,0 -9.74,-1.08 -13.474,-3.241c-3.719,-2.161 -6.769,-5.228 -9.153,-9.216c-2.367,-3.973 -4.084,-8.803 -5.148,-14.492c-1.049,-5.672 -1.589,-12.028 -1.589,-19.067Zm10.042,-0c0,5.005 0.366,9.756 1.081,14.237c0.731,4.497 1.843,8.437 3.368,11.822c1.526,3.4 3.528,6.101 5.975,8.135c2.463,2.034 5.434,3.051 8.898,3.051c6.356,-0 11.186,-3.051 14.491,-9.152c3.305,-6.102 4.958,-15.461 4.958,-28.093c-0,-4.91 -0.35,-9.613 -1.081,-14.11c-0.715,-4.481 -1.843,-8.453 -3.368,-11.886c-1.526,-3.432 -3.512,-6.165 -5.975,-8.199c-2.447,-2.034 -5.466,-3.05 -9.025,-3.05c-6.261,-0 -11.059,3.05 -14.364,9.152c-3.305,6.102 -4.958,15.476 -4.958,28.093Z" style="fill:#371711;fill-rule:nonzero;"/><path d="M1794.91,1658.29l39.534,-0l-0,8.771l-30,-0l0,30.127l27.584,-0l0,8.771l-27.584,-0l0,32.542l30.635,-0l0,8.771l-40.169,-0l0,-88.982Z" style="fill:#371711;fill-rule:nonzero;"/><path d="M1863.04,1690.83l-5.466,-13.983l-0.381,-0l1.398,13.983l-0,56.44l-9.153,-0l0,-90.38l5.721,-0l32.923,57.711l5.212,13.347l0.508,-0l-1.398,-13.347l-0,-56.313l9.152,-0l0,90.38l-5.847,-0l-32.669,-57.838Z" style="fill:#371711;fill-rule:nonzero;"/><path d="M1948.59,1738.75l14.365,-0l-0,-61.906l1.144,-7.5l-4.322,6.102l-10.678,8.644l-4.83,-5.721l23.135,-21.61l4.703,0l0,81.991l13.856,-0l-0,8.517l-37.373,-0l0,-8.517Z" style="fill:#371711;fill-rule:nonzero;"/><path d="M1999.69,1685.24c0,-8.803 1.891,-15.763 5.657,-20.848c3.782,-5.084 9.391,-7.627 16.843,-7.627c7.119,0 12.648,2.638 16.589,7.882c3.94,5.259 5.911,13.315 5.911,24.152c-0,9.581 -0.89,17.907 -2.67,24.978c-1.779,7.087 -4.226,13.062 -7.372,17.924c-3.131,4.878 -6.817,8.707 -11.06,11.504c-4.226,2.796 -8.802,4.671 -13.728,5.593l-2.415,-7.5c8.135,-2.113 14.459,-6.372 18.94,-12.775c4.497,-6.388 7.341,-14.428 8.517,-24.089c-1.78,2.463 -3.75,4.195 -5.911,5.212c-2.161,1.017 -5.021,1.525 -8.581,1.525c-2.701,0 -5.307,-0.524 -7.817,-1.588c-2.495,-1.049 -4.704,-2.67 -6.61,-4.831c-1.907,-2.161 -3.432,-4.862 -4.576,-8.135c-1.145,-3.258 -1.717,-7.055 -1.717,-11.377Zm9.28,-1.017c-0,6.022 1.239,10.646 3.686,13.855c2.463,3.226 5.721,4.831 9.788,4.831c3.226,-0 5.959,-0.699 8.199,-2.098c2.257,-1.398 3.877,-3.193 4.894,-5.402c0.175,-1.096 0.255,-2.161 0.255,-3.178l-0,-2.924c-0,-3.209 -0.27,-6.292 -0.827,-9.216c-0.54,-2.923 -1.398,-5.497 -2.542,-7.754c-1.144,-2.24 -2.606,-4.02 -4.385,-5.339c-1.78,-1.303 -3.893,-1.97 -6.356,-1.97c-3.973,0 -7.087,1.748 -9.343,5.212c-2.241,3.48 -3.369,8.135 -3.369,13.983Z" style="fill:#371711;fill-rule:nonzero;"/><path d="M2056,1702.78c0,-8.136 0.509,-15.127 1.526,-20.975c1.017,-5.847 2.542,-10.614 4.576,-14.3c2.034,-3.687 4.544,-6.388 7.5,-8.136c2.971,-1.732 6.356,-2.606 10.169,-2.606c4.068,0 7.611,0.874 10.614,2.606c3.019,1.748 5.498,4.449 7.437,8.136c1.954,3.686 3.4,8.453 4.322,14.3c0.937,5.848 1.398,12.839 1.398,20.975c-0,8.231 -0.509,15.238 -1.526,21.038c-1.016,5.815 -2.542,10.55 -4.576,14.237c-2.034,3.686 -4.512,6.403 -7.436,8.135c-2.924,1.748 -6.292,2.606 -10.106,2.606c-4.147,0 -7.722,-0.89 -10.741,-2.669c-3.003,-1.78 -5.482,-4.529 -7.437,-8.263c-1.938,-3.718 -3.384,-8.485 -4.322,-14.301c-0.921,-5.799 -1.398,-12.727 -1.398,-20.783Zm9.534,-0c-0,12.124 1.144,21.451 3.432,27.965c2.288,6.531 5.975,9.788 11.059,9.788c4.926,0 8.501,-2.987 10.742,-8.961c2.256,-5.975 3.368,-15.572 3.368,-28.792c0,-12.029 -1.08,-21.324 -3.241,-27.902c-2.161,-6.563 -5.863,-9.852 -11.123,-9.852c-4.91,0 -8.517,2.971 -10.805,8.898c-2.288,5.943 -3.432,15.556 -3.432,28.856Z" style="fill:#371711;fill-rule:nonzero;"/><path d="M2115.75,1726.68c0,-5.673 1.176,-10.503 3.496,-14.492c2.336,-3.972 5.784,-7.579 10.36,-10.805c-1.684,-1.271 -3.273,-2.605 -4.767,-4.004c-1.478,-1.398 -2.765,-2.987 -3.877,-4.767c-1.096,-1.779 -1.97,-3.765 -2.606,-5.974c-0.636,-2.193 -0.953,-4.735 -0.953,-7.627c-0,-6.864 1.811,-12.283 5.402,-16.271c3.607,-3.972 8.549,-5.975 14.809,-5.975c5.848,0 10.487,1.812 13.919,5.403c3.433,3.607 5.149,8.549 5.149,14.809c-0,4.83 -0.922,9.121 -2.797,12.839c-1.859,3.734 -4.783,7.373 -8.771,10.932c1.78,1.271 3.48,2.669 5.085,4.195c1.62,1.525 3.035,3.241 4.258,5.148c1.24,1.907 2.193,4.068 2.86,6.483c0.684,2.415 1.017,5.196 1.017,8.326c0,7.214 -1.922,12.998 -5.784,17.352c-3.845,4.369 -9.216,6.546 -16.08,6.546c-3.305,0 -6.229,-0.54 -8.771,-1.652c-2.542,-1.097 -4.703,-2.622 -6.483,-4.577c-1.78,-1.938 -3.13,-4.274 -4.068,-6.991c-0.921,-2.701 -1.398,-5.673 -1.398,-8.898Zm19.83,-21.737c-3.893,2.892 -6.705,6.101 -8.453,9.661c-1.732,3.559 -2.606,7.118 -2.606,10.677c0,4.322 1.065,7.945 3.178,10.869c2.129,2.924 5.212,4.385 9.28,4.385c3.305,0 6.165,-1.207 8.58,-3.622c2.415,-2.416 3.623,-6.245 3.623,-11.504c-0,-2.622 -0.382,-4.958 -1.144,-6.992c-0.763,-2.034 -1.78,-3.829 -3.051,-5.402c-1.271,-1.558 -2.701,-3.003 -4.322,-4.322c-1.605,-1.303 -3.305,-2.559 -5.085,-3.75Zm3.432,-7.5c2.892,-2.876 5.085,-5.784 6.611,-8.708c1.525,-2.923 2.288,-6.165 2.288,-9.724c-0,-4.656 -1.033,-8.151 -3.115,-10.487c-2.065,-2.32 -4.512,-3.496 -7.309,-3.496c-1.78,0 -3.369,0.366 -4.767,1.081c-1.398,0.73 -2.558,1.716 -3.496,2.987c-0.921,1.271 -1.652,2.733 -2.161,4.385c-0.508,1.653 -0.762,3.417 -0.762,5.276c-0,2.288 0.349,4.353 1.017,6.165c0.683,1.827 1.62,3.48 2.796,4.957c1.192,1.494 2.543,2.845 4.068,4.068c1.525,1.24 3.146,2.399 4.83,3.496Z" style="fill:#371711;fill-rule:nonzero;"/></svg>