<?xml version="1.0" encoding="UTF-8" standalone="no"?><!DOCTYPE svg PUBLIC "-//W3C//DTD SVG 1.1//EN" "http://www.w3.org/Graphics/SVG/1.1/DTD/svg11.dtd"><svg width="100%" height="100%" viewBox="0 0 8000 4500" version="1.1" xmlns="http://www.w3.org/2000/svg" xmlns:xlink="http://www.w3.org/1999/xlink" xml:space="preserve" xmlns:serif="http://www.serif.com/" style="fill-rule:evenodd;clip-rule:evenodd;stroke-linejoin:round;stroke-miterlimit:2;"><g><path d="M9.927,1974.62l1511.93,-933.036l-91.937,-137.607l-1420,1025.22l0,45.421Z" style="fill:#ffa100;fill-rule:nonzero;"/><path d="M9.927,1838.32l1240.01,-1153.56l-117.016,-116.966l-1122.99,1207.6l0,62.92Z" style="fill:#ffa100;fill-rule:nonzero;"/><path d="M9.927,2172.74l1823.54,-294.409l-32.208,-162.337l-1791.33,424.239l0,32.507Z" style="fill:#ffa100;fill-rule:nonzero;"/><path d="M9.927,2080.97l1708.97,-636.482l-63.32,-152.714l-1645.65,752.451l0,36.745Z" style="fill:#ffa100;fill-rule:nonzero;"/><path d="M9.927,1640.11l903.819,-1252.27l-137.507,-91.887l-766.312,1242.1l0,102.059Z" style="fill:#ffa100;fill-rule:nonzero;"/><path d="M9.927,404.573l91.788,-387.943l-91.788,-18.297l0,406.24Z" style="fill:#ffa100;fill-rule:nonzero;"/><path d="M9.927,1291.2l516.176,-1128.98l-152.863,-63.27l-363.313,975.814l0,216.431Z" style="fill:#ffa100;fill-rule:nonzero;"/><path d="M9.927,4488.2l91.788,-18.348l-91.788,-387.892l0,406.24Z" style="fill:#ffa100;fill-rule:nonzero;"/><path d="M9.927,2258.85l1851.41,67.108l-0,-165.527l-1851.41,67.108l0,31.311Z" style="fill:#ffa100;fill-rule:nonzero;"/><path d="M9.927,3411.73l363.313,975.714l152.863,-63.27l-516.176,-1128.83l0,216.382Z" style="fill:#ffa100;fill-rule:nonzero;"/><path d="M9.927,2711.07l1122.99,1207.6l117.016,-116.917l-1240.01,-1153.56l0,62.87Z" style="fill:#ffa100;fill-rule:nonzero;"/><path d="M9.927,2948.48l766.312,1242l137.507,-91.837l-903.819,-1252.27l0,102.108Z" style="fill:#ffa100;fill-rule:nonzero;"/><path d="M9.927,2557.41l1420,1024.97l91.937,-137.557l-1511.93,-932.936l0,45.52Z" style="fill:#ffa100;fill-rule:nonzero;"/><path d="M9.927,2346.2l1791.33,424.239l32.208,-162.237l-1823.54,-294.758l0,32.756Z" style="fill:#ffa100;fill-rule:nonzero;"/><path d="M9.927,2442.14l1645.65,752.551l63.32,-152.714l-1708.97,-636.582l0,36.745Z" style="fill:#ffa100;fill-rule:nonzero;"/></g></svg>